<?xml version="1.0" encoding="UTF-8" standalone="no"?>
<!-- Created with Fritzing (https://fritzing.org/) -->

<svg
   height="2.09439in"
   version="1.2"
   viewBox="0 0 127.331 150.796"
   width="1.76849in"
   x="0in"
   y="0in"
   id="svg1499"
   sodipodi:docname="1053_pcb.svg"
   inkscape:version="1.1.2 (0a00cf5339, 2022-02-04)"
   xmlns:inkscape="http://www.inkscape.org/namespaces/inkscape"
   xmlns:sodipodi="http://sodipodi.sourceforge.net/DTD/sodipodi-0.dtd"
   xmlns="http://www.w3.org/2000/svg"
   xmlns:svg="http://www.w3.org/2000/svg">
  <defs
     id="defs1503" />
  <sodipodi:namedview
     id="namedview1501"
     pagecolor="#ffffff"
     bordercolor="#666666"
     borderopacity="1.0"
     inkscape:pageshadow="2"
     inkscape:pageopacity="0.0"
     inkscape:pagecheckerboard="0"
     inkscape:document-units="in"
     showgrid="false"
     inkscape:zoom="4.2076692"
     inkscape:cx="100.64955"
     inkscape:cy="48.007576"
     inkscape:window-width="1920"
     inkscape:window-height="1055"
     inkscape:window-x="0"
     inkscape:window-y="25"
     inkscape:window-maximized="1"
     inkscape:current-layer="svg1499" />
  <g
     id="watermark">
    <g
       id="g1444">
      <g
         id="g1442">
        <path
           d="M102.599,144.596c-0.604,0,-1.131,0.325,-1.422,0.809l-2.796,0l3.96,-4.071c0.146,-0.146,0.289,-0.322,0.428,-0.521c0.149,-0.222,0.228,-0.479,0.228,-0.768c0,-0.279,-0.097,-0.518,-0.287,-0.71c-0.19,-0.188,-0.444,-0.287,-0.754,-0.287l-4.636,0c-0.305,0,-0.555,0.06,-0.742,0.17c-0.219,0.13,-0.33,0.368,-0.33,0.707c0,0.329,0.111,0.562,0.33,0.692c0.188,0.111,0.438,0.168,0.742,0.168l3.148,0l-3.974,4.086c-0.146,0.147,-0.289,0.315,-0.425,0.504c-0.153,0.212,-0.23,0.472,-0.23,0.771c0,0.28,0.096,0.521,0.288,0.711c0.188,0.188,0.442,0.285,0.754,0.285l4.315,0c0.293,0.467,0.812,0.776,1.4,0.776c0.916,0,1.66,-0.744,1.66,-1.661C104.258,145.341,103.513,144.596,102.599,144.596zM102.599,146.859c-0.334,0,-0.604,-0.271,-0.604,-0.604c0,-0.333,0.27,-0.604,0.604,-0.604c0.332,0,0.604,0.271,0.604,0.604C103.202,146.59,102.931,146.859,102.599,146.859z"
           fill="#8C8C8C"
           id="path1422" />
        <path
           d="M85.6563,134.554c-0.914,0,-1.659,0.745,-1.659,1.66c0,0.916,0.745,1.66,1.659,1.66s1.658,-0.744,1.658,-1.66C87.3163,135.299,86.5723,134.554,85.6563,134.554zM85.6573,136.817c-0.333,0,-0.604,-0.27,-0.604,-0.603s0.271,-0.603,0.604,-0.603c0.331,0,0.604,0.27,0.604,0.603S85.9883,136.817,85.6573,136.817z"
           fill="#8C8C8C"
           id="path1424" />
        <path
           d="M94.1773,139.216c-0.193,-0.111,-0.439,-0.169,-0.732,-0.169l-1.465,0L91.9803,136.525c0,-0.292,-0.057,-0.538,-0.166,-0.729C91.7243,135.639,91.5313,135.454,91.1213,135.454c-0.34,0,-0.578,0.116,-0.709,0.342c-0.109,0.193,-0.167,0.438,-0.167,0.729l0,2.521l-0.481,0c-0.295,0,-0.539,0.06,-0.731,0.169c-0.228,0.129,-0.341,0.368,-0.341,0.708c0,0.412,0.185,0.603,0.341,0.692c0.192,0.111,0.438,0.168,0.731,0.168l0.481,0l0,4.362c0,0.277,0.026,0.533,0.081,0.768c0.056,0.246,0.154,0.464,0.298,0.645c0.146,0.186,0.345,0.332,0.595,0.436c0.241,0.098,0.555,0.146,0.93,0.146l0.896,0c0.292,0,0.539,-0.054,0.731,-0.166c0.154,-0.089,0.341,-0.281,0.341,-0.693c0,-0.338,-0.114,-0.578,-0.341,-0.709c-0.192,-0.109,-0.439,-0.168,-0.731,-0.168l-0.821,0c-0.138,0,-0.19,-0.019,-0.207,-0.024c-0.014,-0.034,-0.035,-0.103,-0.035,-0.231L91.9823,140.784l1.465,0c0.295,0,0.541,-0.057,0.734,-0.168c0.152,-0.09,0.34,-0.28,0.34,-0.692C94.5173,139.584,94.4043,139.345,94.1773,139.216z"
           fill="#8C8C8C"
           id="path1426" />
        <path
           d="M85.7223,139.046l-1.191,0c-0.292,0,-0.538,0.059,-0.731,0.169c-0.226,0.129,-0.341,0.368,-0.341,0.708c0,0.412,0.188,0.604,0.341,0.691c0.193,0.113,0.439,0.168,0.731,0.168l0.544,0l0,5.362c0,0.293,0.057,0.539,0.167,0.73c0.131,0.227,0.367,0.341,0.708,0.341c0.411,0,0.604,-0.187,0.692,-0.341c0.111,-0.191,0.168,-0.438,0.168,-0.73L86.8103,140.134c0,-0.386,-0.084,-0.656,-0.256,-0.83C86.3793,139.132,86.1093,139.046,85.7223,139.046z"
           fill="#8C8C8C"
           id="path1428" />
        <path
           d="M81.8873,139.216c-0.193,-0.111,-0.44,-0.169,-0.732,-0.169l-0.604,0c-0.25,0,-0.498,0.063,-0.734,0.187c-0.226,0.119,-0.433,0.271,-0.616,0.453l-0.644,0.604l0,-0.247c0,-0.291,-0.055,-0.538,-0.168,-0.729c-0.128,-0.228,-0.368,-0.34,-0.707,-0.34c-0.41,0,-0.604,0.184,-0.693,0.34c-0.11,0.191,-0.167,0.438,-0.167,0.729l0,4.801c-0.475,0.293,-0.791,0.816,-0.791,1.412c0,0.917,0.745,1.661,1.658,1.661c0.916,0,1.66,-0.744,1.66,-1.661c0,-0.596,-0.317,-1.119,-0.792,-1.412l0,-2.21l1.738,-1.564c0.1,-0.09,0.199,-0.164,0.297,-0.217c0.084,-0.045,0.174,-0.067,0.274,-0.067l0.288,0c0.292,0,0.539,-0.056,0.732,-0.169c0.155,-0.088,0.339,-0.279,0.339,-0.691C82.2273,139.584,82.1123,139.345,81.8873,139.216zM77.6883,146.859c-0.332,0,-0.603,-0.271,-0.603,-0.604c0,-0.333,0.271,-0.604,0.603,-0.604c0.333,0,0.604,0.271,0.604,0.604C78.2923,146.59,78.0213,146.859,77.6883,146.859z"
           fill="#8C8C8C"
           id="path1430" />
        <path
           d="M75.1713,135.697c-0.193,-0.111,-0.44,-0.167,-0.731,-0.167l-0.59,0c-0.2,0,-0.389,0.004,-0.562,0.016c-0.176,0.009,-0.345,0.035,-0.506,0.07c-0.168,0.041,-0.336,0.109,-0.496,0.202c-0.158,0.093,-0.319,0.222,-0.48,0.382c-0.334,0.314,-0.554,0.656,-0.652,1.017c-0.094,0.348,-0.143,0.735,-0.143,1.151l0,0.678l-0.483,0c-0.292,0,-0.539,0.059,-0.73,0.169c-0.227,0.13,-0.342,0.369,-0.342,0.708c0,0.412,0.185,0.604,0.341,0.693c0.191,0.111,0.438,0.166,0.73,0.166l0.483,0l0,5.362c0,0.293,0.057,0.539,0.167,0.73c0.13,0.227,0.367,0.341,0.708,0.341c0.411,0,0.603,-0.187,0.692,-0.341c0.111,-0.191,0.168,-0.438,0.168,-0.73l0,-5.36l0.92,0c0.293,0,0.54,-0.057,0.732,-0.168c0.155,-0.09,0.34,-0.28,0.34,-0.692c0,-0.34,-0.114,-0.579,-0.34,-0.708c-0.189,-0.111,-0.436,-0.17,-0.729,-0.17l-0.92,0l0,-0.678c0,-0.218,0.019,-0.41,0.056,-0.571c0.032,-0.141,0.103,-0.261,0.218,-0.367l0.002,-0.004l0.002,-0.002c0.082,-0.082,0.176,-0.126,0.29,-0.136c0.15,-0.015,0.339,-0.022,0.564,-0.022l0.56,0c0.291,0,0.539,-0.058,0.731,-0.168c0.154,-0.088,0.339,-0.281,0.339,-0.693C75.5113,136.066,75.3963,135.827,75.1713,135.697z"
           fill="#8C8C8C"
           id="path1432" />
        <path
           d="M127.164,139.314c-0.089,-0.156,-0.282,-0.34,-0.693,-0.34c-0.339,0,-0.578,0.113,-0.707,0.34c-0.078,0.133,-0.127,0.293,-0.152,0.477l-0.021,-0.021c-0.216,-0.236,-0.466,-0.42,-0.747,-0.539c-0.277,-0.119,-0.563,-0.183,-0.849,-0.183l-0.709,0c-0.249,0,-0.466,0.015,-0.64,0.041c-0.182,0.026,-0.352,0.074,-0.51,0.14c-0.158,0.066,-0.313,0.15,-0.459,0.254c-0.139,0.097,-0.303,0.226,-0.486,0.377c-0.188,0.156,-0.342,0.302,-0.463,0.434c-0.127,0.141,-0.23,0.293,-0.306,0.455c-0.069,0.16,-0.122,0.337,-0.147,0.523c-0.026,0.178,-0.041,0.391,-0.041,0.631l0,2.386c0,0.24,0.015,0.451,0.041,0.631c0.025,0.188,0.078,0.361,0.147,0.521c0.074,0.164,0.179,0.318,0.306,0.457c0.119,0.129,0.274,0.274,0.463,0.433c0.186,0.153,0.35,0.28,0.486,0.379c0.146,0.103,0.299,0.188,0.459,0.254c0.158,0.065,0.329,0.112,0.51,0.14c0.174,0.026,0.389,0.039,0.64,0.039l0.709,0c0.298,0,0.591,-0.066,0.87,-0.199c0.244,-0.114,0.492,-0.291,0.73,-0.523l0,1.434c0,0.18,-0.025,0.334,-0.072,0.465c-0.043,0.119,-0.159,0.258,-0.344,0.406c-0.154,0.127,-0.309,0.217,-0.457,0.264c-0.15,0.049,-0.341,0.074,-0.563,0.074l-2.203,0c-0.293,0,-0.538,0.055,-0.732,0.166c-0.152,0.088,-0.34,0.282,-0.34,0.692c0,0.341,0.115,0.579,0.34,0.71c0.194,0.109,0.439,0.167,0.732,0.167l2.326,0c0.247,0,0.463,-0.015,0.638,-0.041c0.179,-0.026,0.351,-0.073,0.513,-0.14c0.153,-0.064,0.31,-0.15,0.455,-0.254c0.143,-0.101,0.305,-0.227,0.487,-0.379c0.185,-0.153,0.343,-0.299,0.463,-0.431c0.128,-0.141,0.229,-0.294,0.304,-0.456c0.071,-0.162,0.123,-0.338,0.148,-0.523c0.025,-0.182,0.041,-0.393,0.041,-0.631l0,-7.898C127.331,139.752,127.277,139.505,127.164,139.314zM125.595,143.774c0,0.188,-0.062,0.35,-0.188,0.49c-0.15,0.172,-0.394,0.403,-0.716,0.686l-0.002,0.003l-0.002,0.004c-0.139,0.13,-0.291,0.237,-0.453,0.325c-0.148,0.082,-0.325,0.121,-0.526,0.121L123.407,145.403c-0.222,0,-0.41,-0.021,-0.563,-0.072c-0.148,-0.049,-0.301,-0.137,-0.453,-0.264c-0.231,-0.186,-0.315,-0.322,-0.346,-0.404c-0.049,-0.131,-0.072,-0.285,-0.072,-0.465l0,-2.206c0,-0.18,0.023,-0.336,0.072,-0.467c0.029,-0.082,0.113,-0.217,0.346,-0.403c0.152,-0.127,0.305,-0.216,0.453,-0.265c0.153,-0.049,0.342,-0.072,0.563,-0.072l0.301,0c0.212,0,0.388,0.037,0.526,0.113c0.152,0.082,0.308,0.191,0.457,0.324c0.322,0.293,0.564,0.529,0.716,0.7c0.128,0.146,0.188,0.304,0.188,0.492L125.595,143.774z"
           fill="#8C8C8C"
           id="path1434" />
        <path
           d="M107.185,134.554c-0.914,0,-1.66,0.745,-1.66,1.66c0,0.916,0.746,1.66,1.66,1.66s1.66,-0.744,1.66,-1.66C108.845,135.299,108.099,134.554,107.185,134.554zM107.185,136.817c-0.332,0,-0.604,-0.27,-0.604,-0.603s0.271,-0.603,0.604,-0.603s0.604,0.27,0.604,0.603C107.789,136.547,107.517,136.817,107.185,136.817z"
           fill="#8C8C8C"
           id="path1436" />
        <path
           d="M117.871,144.822l-0.107,-3.419c-0.011,-0.178,-0.021,-0.338,-0.031,-0.489c-0.01,-0.162,-0.037,-0.322,-0.082,-0.476c-0.045,-0.158,-0.11,-0.309,-0.198,-0.453c-0.093,-0.146,-0.216,-0.289,-0.37,-0.42c-0.225,-0.192,-0.443,-0.334,-0.646,-0.416c-0.207,-0.084,-0.461,-0.127,-0.754,-0.127l-1.012,0c-0.259,0,-0.501,0.058,-0.716,0.164c-0.197,0.098,-0.39,0.203,-0.572,0.315l-0.003,0.002l-0.003,0.003l-0.837,0.555l0,-0.041c0,-0.291,-0.057,-0.539,-0.168,-0.733c-0.129,-0.226,-0.367,-0.339,-0.707,-0.339c-0.411,0,-0.604,0.185,-0.693,0.339c-0.109,0.194,-0.168,0.438,-0.168,0.733l0,6.099c0,0.295,0.059,0.539,0.168,0.734c0.09,0.153,0.282,0.338,0.693,0.338c0.34,0,0.578,-0.114,0.707,-0.338c0.111,-0.195,0.168,-0.439,0.168,-0.734L112.54,142.084l1.953,-1.215c0.04,-0.024,0.082,-0.048,0.121,-0.063c0.031,-0.016,0.07,-0.025,0.115,-0.031c0.049,-0.012,0.117,-0.016,0.195,-0.016l0.362,0c0.188,0,0.334,0.021,0.435,0.059c0.082,0.029,0.143,0.076,0.18,0.143c0.05,0.078,0.08,0.18,0.098,0.303c0.02,0.139,0.034,0.309,0.045,0.504l0.096,3.097c-0.457,0.297,-0.762,0.811,-0.762,1.394c0,0.917,0.746,1.661,1.66,1.661c0.916,0,1.66,-0.744,1.66,-1.661C118.697,145.647,118.364,145.109,117.871,144.822zM117.037,146.859c-0.334,0,-0.602,-0.271,-0.602,-0.604c0,-0.333,0.268,-0.604,0.602,-0.604c0.333,0,0.604,0.271,0.604,0.604C117.642,146.59,117.37,146.859,117.037,146.859z"
           fill="#8C8C8C"
           id="path1438" />
        <path
           d="M107.248,139.046l-1.193,0c-0.293,0,-0.539,0.059,-0.731,0.169c-0.226,0.129,-0.341,0.368,-0.341,0.708c0,0.412,0.186,0.604,0.341,0.691c0.192,0.113,0.438,0.168,0.731,0.168l0.545,0l0,5.362c0,0.293,0.055,0.539,0.168,0.73c0.127,0.227,0.365,0.341,0.707,0.341c0.41,0,0.604,-0.187,0.691,-0.341c0.111,-0.191,0.17,-0.438,0.17,-0.73L108.336,140.134c0,-0.386,-0.085,-0.656,-0.259,-0.83C107.905,139.132,107.632,139.046,107.248,139.046z"
           fill="#8C8C8C"
           id="path1440" />
      </g>
    </g>
  </g>
  <g
     partID="864775250"
     id="g1460"
     transform="matrix(-1,0,0,1,128.935,0)">
    <g
       gorn="0.4.0"
       id="copper0">
      <circle
         cx="24.864"
         cy="6.8522902"
         fill="none"
         gorn="0.4.0.0"
         id="connector0pin"
         r="2.0880001"
         stroke="#ffbf00"
         stroke-width="1.44" />
      <circle
         cx="32.070599"
         cy="6.8522902"
         fill="none"
         gorn="0.4.0.1"
         id="connector1pin"
         r="2.0880001"
         stroke="#ffbf00"
         stroke-width="1.44" />
      <circle
         cx="75.270599"
         cy="14.0523"
         fill="none"
         gorn="0.4.0.2"
         id="connector2pin"
         r="2.0880001"
         stroke="#ffbf00"
         stroke-width="1.44" />
      <circle
         cx="75.270599"
         cy="6.8522902"
         fill="none"
         gorn="0.4.0.3"
         id="connector3pin"
         r="2.0880001"
         stroke="#ffbf00"
         stroke-width="1.44" />
      <circle
         cx="82.470596"
         cy="14.0523"
         fill="none"
         gorn="0.4.0.4"
         id="connector4pin"
         r="2.0880001"
         stroke="#ffbf00"
         stroke-width="1.44" />
      <circle
         cx="82.470596"
         cy="6.8522902"
         fill="none"
         gorn="0.4.0.5"
         id="connector5pin"
         r="2.0880001"
         stroke="#ffbf00"
         stroke-width="1.44" />
      <circle
         cx="89.670601"
         cy="14.0523"
         fill="none"
         gorn="0.4.0.6"
         id="connector6pin"
         r="2.0880001"
         stroke="#ffbf00"
         stroke-width="1.44" />
      <circle
         cx="89.670601"
         cy="6.8522902"
         fill="none"
         gorn="0.4.0.7"
         id="connector7pin"
         r="2.0880001"
         stroke="#ffbf00"
         stroke-width="1.44" />
      <circle
         cx="96.870598"
         cy="14.0523"
         fill="none"
         gorn="0.4.0.8"
         id="connector8pin"
         r="2.0880001"
         stroke="#ffbf00"
         stroke-width="1.44" />
      <circle
         cx="96.870598"
         cy="6.8522902"
         fill="none"
         gorn="0.4.0.9"
         id="connector9pin"
         r="2.0880001"
         stroke="#ffbf00"
         stroke-width="1.44" />
      <circle
         cx="104.071"
         cy="14.0523"
         fill="none"
         gorn="0.4.0.10"
         id="connector10pin"
         r="2.0880001"
         stroke="#ffbf00"
         stroke-width="1.44" />
      <circle
         cx="104.071"
         cy="6.8522902"
         fill="none"
         gorn="0.4.0.11"
         id="connector11pin"
         r="2.0880001"
         stroke="#ffbf00"
         stroke-width="1.44" />
    </g>
  </g>
  <g
     partID="864775252"
     id="g1489"
     transform="matrix(-1,0,0,1,128.935,0)">
    <g
       gorn="0.4"
       id="copper1">
      <g
         gorn="0.4.0"
         id="g1486">
        <circle
           cx="24.864"
           cy="6.8522902"
           fill="none"
           gorn="0.4.0.0"
           id="circle1462"
           r="2.0880001"
           stroke="#ffbf00"
           stroke-width="1.44" />
        <circle
           cx="32.070599"
           cy="6.8522902"
           fill="none"
           gorn="0.4.0.1"
           id="circle1464"
           r="2.0880001"
           stroke="#ffbf00"
           stroke-width="1.44" />
        <circle
           cx="75.270599"
           cy="14.0523"
           fill="none"
           gorn="0.4.0.2"
           id="circle1466"
           r="2.0880001"
           stroke="#ffbf00"
           stroke-width="1.44" />
        <circle
           cx="75.270599"
           cy="6.8522902"
           fill="none"
           gorn="0.4.0.3"
           id="circle1468"
           r="2.0880001"
           stroke="#ffbf00"
           stroke-width="1.44" />
        <circle
           cx="82.470596"
           cy="14.0523"
           fill="none"
           gorn="0.4.0.4"
           id="circle1470"
           r="2.0880001"
           stroke="#ffbf00"
           stroke-width="1.44" />
        <circle
           cx="82.470596"
           cy="6.8522902"
           fill="none"
           gorn="0.4.0.5"
           id="circle1472"
           r="2.0880001"
           stroke="#ffbf00"
           stroke-width="1.44" />
        <circle
           cx="89.670601"
           cy="14.0523"
           fill="none"
           gorn="0.4.0.6"
           id="circle1474"
           r="2.0880001"
           stroke="#ffbf00"
           stroke-width="1.44" />
        <circle
           cx="89.670601"
           cy="6.8522902"
           fill="none"
           gorn="0.4.0.7"
           id="circle1476"
           r="2.0880001"
           stroke="#ffbf00"
           stroke-width="1.44" />
        <circle
           cx="96.870598"
           cy="14.0523"
           fill="none"
           gorn="0.4.0.8"
           id="circle1478"
           r="2.0880001"
           stroke="#ffbf00"
           stroke-width="1.44" />
        <circle
           cx="96.870598"
           cy="6.8522902"
           fill="none"
           gorn="0.4.0.9"
           id="circle1480"
           r="2.0880001"
           stroke="#ffbf00"
           stroke-width="1.44" />
        <circle
           cx="104.071"
           cy="14.0523"
           fill="none"
           gorn="0.4.0.10"
           id="circle1482"
           r="2.0880001"
           stroke="#ffbf00"
           stroke-width="1.44" />
        <circle
           cx="104.071"
           cy="6.8522902"
           fill="none"
           gorn="0.4.0.11"
           id="circle1484"
           r="2.0880001"
           stroke="#ffbf00"
           stroke-width="1.44" />
      </g>
    </g>
  </g>
  <g
     partID="864775251"
     id="g1497">
    <g
       gorn="0.3"
       id="silkscreen">
      <path
         d="m6.45261,0.360002,113.131,0.0996408c4.71151,0.004176,7.38792,2.49337,7.38792,7.9195L126.971,118.08c0,4.92904,-1.08235,9.32342,-7.78644,9.31442L7.6981,127.245C4.23225,127.24,0.411862,123.806,0.409818,119.226L0.360001,7.53228C0.358129,3.35019,3.28558,0.357216,6.45261,0.360002Z"
         fill="none"
         gorn="0.3.0"
         id="rect360"
         stroke="#000000"
         stroke-width="0.72" />
      <path
         d="M6.24405,9.1162A4.35,4.35,0,0,1,10.7919,4.981,4.35,4.35,0,0,1,14.9346,9.52215,4.35,4.35,0,0,1,10.4002,13.6722,4.35,4.35,0,0,1,6.24277,9.14456"
         fill="#000000"
         gorn="0.3.1"
         id="path375"
         stroke-width="0" />
      <path
         d="m113.044,9.1162a4.35,4.35,0,0,1,4.5479,-4.13519,4.35,4.35,0,0,1,4.14261,4.54115,4.35,4.35,0,0,1,-4.53438,4.15001,4.35,4.35,0,0,1,-4.15741,-4.5276"
         fill="#000000"
         gorn="0.3.2"
         id="path377"
         stroke-width="0" />
      <path
         d="m113.044,115.841a4.35,4.35,0,0,1,4.5479,-4.13519,4.35,4.35,0,0,1,4.14261,4.54116,4.35,4.35,0,0,1,-4.53438,4.15001,4.35,4.35,0,0,1,-4.15741,-4.5276"
         fill="#000000"
         gorn="0.3.3"
         id="path379"
         stroke-width="0" />
      <path
         d="m6.24422,115.841a4.35,4.35,0,0,1,4.5479,-4.13519,4.35,4.35,0,0,1,4.14261,4.54116,4.35,4.35,0,0,1,-4.53438,4.15001,4.35,4.35,0,0,1,-4.15741,-4.5276"
         fill="#000000"
         gorn="0.3.4"
         id="path381"
         stroke-width="0" />
    </g>
  </g>
</svg>
