<?xml version="1.0" encoding="UTF-8" standalone="no"?>
<!-- Created with Fritzing (http://www.fritzing.org/) -->

<svg
   xmlns:dc="http://purl.org/dc/elements/1.1/"
   xmlns:cc="http://creativecommons.org/ns#"
   xmlns:rdf="http://www.w3.org/1999/02/22-rdf-syntax-ns#"
   xmlns:svg="http://www.w3.org/2000/svg"
   xmlns="http://www.w3.org/2000/svg"
   xmlns:sodipodi="http://sodipodi.sourceforge.net/DTD/sodipodi-0.dtd"
   xmlns:inkscape="http://www.inkscape.org/namespaces/inkscape"
   version="1.2"
   x="0in"
   y="0in"
   width="2.49708in"
   height="2.07393in"
   viewBox="0 0 179.79 149.323"
   id="svg6371"
   inkscape:version="0.91 r13725"
   sodipodi:docname="rampart_pcb.svg">
  <metadata
     id="metadata8566">
    <rdf:RDF>
      <cc:Work
         rdf:about="">
        <dc:format>image/svg+xml</dc:format>
        <dc:type
           rdf:resource="http://purl.org/dc/dcmitype/StillImage" />
      </cc:Work>
    </rdf:RDF>
  </metadata>
  <defs
     id="defs8564" />
  <sodipodi:namedview
     pagecolor="#ffffff"
     bordercolor="#666666"
     borderopacity="1"
     objecttolerance="10"
     gridtolerance="10"
     guidetolerance="10"
     inkscape:pageopacity="0"
     inkscape:pageshadow="2"
     inkscape:window-width="1280"
     inkscape:window-height="1000"
     id="namedview8562"
     showgrid="false"
     inkscape:zoom="3.1992922"
     inkscape:cx="174.88243"
     inkscape:cy="80.824086"
     inkscape:window-x="1366"
     inkscape:window-y="0"
     inkscape:window-maximized="1"
     inkscape:current-layer="svg6371" />
  <g
     id="g6375"
     transform="translate(6.87672,0.974117)" />
  <g
     id="g6381"
     transform="translate(6.87672,0.974117)" />
  <g
     style="fill:none;stroke:#000000;stroke-width:0.80000097;stroke-miterlimit:4;stroke-dasharray:none;stroke-opacity:1"
     id="g6388"
     transform="translate(169.636,138.251)">
    <g
       style="fill:none;stroke:#000000;stroke-width:0.80000097;stroke-miterlimit:4;stroke-dasharray:none;stroke-opacity:1"
       id="copper0">
      <path
         style="fill:none;stroke:#000000;stroke-width:0.80000097;stroke-miterlimit:4;stroke-dasharray:none;stroke-opacity:1"
         d="M 7.83622,4.7181101 A 3.1181099,3.1181099 0 0 1 4.7181101,7.83622 a 3.1181099,3.1181099 0 0 1 -3.11811,-3.1181099 3.1181099,3.1181099 0 0 1 3.11811,-3.11811 3.1181099,3.1181099 0 0 1 3.1181099,3.11811 z"
         id="nonconn0" />
    </g>
  </g>
  <g
     style="fill:none;fill-opacity:1;stroke:#000000;stroke-width:0.80000097;stroke-miterlimit:4;stroke-dasharray:none;stroke-opacity:1"
     id="g6394"
     transform="translate(7.7732,138.055)">
    <g
       style="fill:none;fill-opacity:1;stroke:#000000;stroke-width:0.80000097;stroke-miterlimit:4;stroke-dasharray:none;stroke-opacity:1"
       id="g6396">
      <path
         style="fill:none;fill-opacity:1;stroke:#000000;stroke-width:0.80000097;stroke-miterlimit:4;stroke-dasharray:none;stroke-opacity:1"
         d="M 7.83622,4.7181101 A 3.1181099,3.1181099 0 0 1 4.7181101,7.83622 a 3.1181099,3.1181099 0 0 1 -3.11811,-3.1181099 3.1181099,3.1181099 0 0 1 3.11811,-3.11811 3.1181099,3.1181099 0 0 1 3.1181099,3.11811 z"
         id="circle6398" />
    </g>
  </g>
  <g
     style="fill:none;stroke:#000000;stroke-width:0.80000097;stroke-miterlimit:4;stroke-dasharray:none;stroke-opacity:1"
     id="g6402"
     transform="translate(7.57648,1.75941)">
    <g
       style="fill:none;stroke:#000000;stroke-width:0.80000097;stroke-miterlimit:4;stroke-dasharray:none;stroke-opacity:1"
       id="g6404">
      <path
         style="fill:none;stroke:#000000;stroke-width:0.80000097;stroke-miterlimit:4;stroke-dasharray:none;stroke-opacity:1"
         d="M 7.83622,4.7181101 A 3.1181099,3.1181099 0 0 1 4.7181101,7.83622 a 3.1181099,3.1181099 0 0 1 -3.11811,-3.1181099 3.1181099,3.1181099 0 0 1 3.11811,-3.11811 3.1181099,3.1181099 0 0 1 3.1181099,3.11811 z"
         id="circle6406" />
    </g>
  </g>
  <g
     style="fill:none;stroke:#000000;stroke-width:0.80000097;stroke-miterlimit:4;stroke-dasharray:none;stroke-opacity:1"
     id="g6410"
     transform="translate(169.243,2.15275)">
    <g
       style="fill:none;stroke:#000000;stroke-width:0.80000097;stroke-miterlimit:4;stroke-dasharray:none;stroke-opacity:1"
       id="g6412">
      <path
         style="fill:none;stroke:#000000;stroke-width:0.80000097;stroke-miterlimit:4;stroke-dasharray:none;stroke-opacity:1"
         d="M 7.83622,4.7181101 A 3.1181099,3.1181099 0 0 1 4.7181101,7.83622 a 3.1181099,3.1181099 0 0 1 -3.11811,-3.1181099 3.1181099,3.1181099 0 0 1 3.11811,-3.11811 3.1181099,3.1181099 0 0 1 3.1181099,3.11811 z"
         id="circle6414" />
    </g>
  </g>
  <g
     id="g6418"
     transform="translate(25.0951,25.6486)">
    <g
       id="g6420"
       transform="matrix(0,1,-1,0,0,0)">
      <g
         id="g6422" />
    </g>
  </g>
  <g
     id="g6429"
     transform="translate(78.9333,16.7119)">
    <g
       id="g6431"
       transform="matrix(0,1,-1,0,0,0)" />
  </g>
  <g
     id="g6442"
     transform="translate(126.213,30.8225)">
    <g
       id="g6444"
       transform="matrix(0,-1,1,0,0,0)" />
  </g>
  <g
     id="g6454"
     transform="translate(148.396,30.4159)">
    <g
       id="g6456"
       transform="matrix(0,-1,1,0,0,0)" />
  </g>
  <g
     id="g6470"
     transform="translate(90.5077,20.7371)">
    <g
       id="g6472" />
  </g>
  <g
     id="g6482"
     transform="translate(88.5789,2.25761)">
    <g
       id="g6484"
       transform="matrix(0,1,-1,0,0,0)">
      <g
         id="g6486" />
    </g>
  </g>
  <g
     id="g6496"
     transform="translate(164.002,82.5329)">
    <g
       id="g6498"
       transform="scale(-1,-1)">
      <g
         id="g6500" />
    </g>
  </g>
  <g
     id="g6510"
     transform="translate(166.643,89.3862)">
    <g
       id="g6512"
       transform="scale(-1,-1)">
      <g
         id="g6514" />
    </g>
  </g>
  <g
     id="g6524"
     transform="translate(169.27,95.7019)">
    <g
       id="g6526"
       transform="scale(-1,-1)">
      <g
         id="g6528" />
    </g>
  </g>
  <g
     id="g6538"
     transform="translate(171.898,103.343)">
    <g
       id="g6540"
       transform="scale(-1,-1)">
      <g
         id="g6542" />
    </g>
  </g>
  <g
     id="g6552"
     transform="translate(129.41,41.9074)">
    <g
       id="g6554"
       transform="matrix(0,1,-1,0,0,0)" />
  </g>
  <g
     id="g6669"
     transform="translate(8.79488,23.5065)" />
  <g
     id="g6680"
     transform="translate(130.544,42.278)" />
  <g
     id="g6693"
     transform="translate(140.594,37.0631)" />
  <g
     id="g6707"
     transform="translate(161.86,37.5883)" />
  <g
     id="g6721"
     transform="translate(151.346,43.4507)" />
  <g
     id="g6755"
     transform="translate(114.97,92.0675)" />
  <g
     id="g6763"
     transform="translate(116.25,102.147)">
    <g
       id="g6765"
       transform="scale(-1,-1)" />
  </g>
  <g
     id="g6773"
     transform="translate(63.6237,11.934)">
    <g
       id="g6775"
       transform="matrix(0,-1,1,0,0,0)" />
  </g>
  <g
     id="g6785"
     transform="translate(63.5701,41.4808)">
    <g
       id="g6787"
       transform="matrix(0,-1,1,0,0,0)" />
  </g>
  <g
     id="g6797"
     transform="translate(104.37,41.7475)">
    <g
       id="g6799"
       transform="matrix(0,-1,1,0,0,0)" />
  </g>
  <g
     id="g6809"
     transform="translate(90.7925,101.21)" />
  <g
     id="g7113"
     transform="translate(25.0951,25.6486)">
    <g
       id="g7115"
       transform="matrix(0,1,-1,0,0,0)" />
  </g>
  <g
     id="g7125"
     transform="translate(78.9333,16.7119)">
    <g
       id="g7127"
       transform="matrix(0,1,-1,0,0,0)">
      <g
         id="g7129" />
    </g>
  </g>
  <g
     id="g7141"
     transform="translate(126.213,30.8225)">
    <g
       id="g7143"
       transform="matrix(0,-1,1,0,0,0)">
      <g
         id="g7145" />
    </g>
  </g>
  <g
     id="g7159"
     transform="translate(148.396,30.4159)">
    <g
       id="g7161"
       transform="matrix(0,-1,1,0,0,0)">
      <g
         id="g7163" />
    </g>
  </g>
  <g
     id="g7177"
     transform="translate(90.5077,20.7371)" />
  <g
     id="g7187"
     transform="translate(88.5789,2.25761)">
    <g
       id="g7189"
       transform="matrix(0,1,-1,0,0,0)" />
  </g>
  <g
     id="g7199"
     transform="translate(164.002,82.5329)">
    <g
       id="g7201"
       transform="scale(-1,-1)" />
  </g>
  <g
     id="g7211"
     transform="translate(166.643,89.3862)">
    <g
       id="g7213"
       transform="scale(-1,-1)" />
  </g>
  <g
     id="g7223"
     transform="translate(169.27,95.7019)">
    <g
       id="g7225"
       transform="scale(-1,-1)" />
  </g>
  <g
     id="g7235"
     transform="translate(171.898,103.343)">
    <g
       id="g7237"
       transform="scale(-1,-1)" />
  </g>
  <g
     id="g7247"
     transform="translate(129.41,41.9074)">
    <g
       id="g7249"
       transform="matrix(0,1,-1,0,0,0)">
      <g
         id="g7251" />
    </g>
  </g>
  <g
     id="g7407"
     transform="translate(8.79488,23.5065)">
    <g
       id="g7409" />
  </g>
  <g
     id="g7421"
     transform="translate(130.544,42.278)">
    <g
       id="g7423" />
  </g>
  <g
     id="g7437"
     transform="translate(140.594,37.0631)">
    <g
       id="g7439" />
  </g>
  <g
     id="g7453"
     transform="translate(161.86,37.5883)">
    <g
       id="g7455" />
  </g>
  <g
     id="g7469"
     transform="translate(151.346,43.4507)">
    <g
       id="g7471" />
  </g>
  <g
     id="g7507"
     transform="translate(114.97,92.0675)">
    <g
       id="g7509" />
  </g>
  <g
     id="g7517"
     transform="translate(116.25,102.147)">
    <g
       id="g7519"
       transform="scale(-1,-1)">
      <g
         id="g7521" />
    </g>
  </g>
  <g
     id="g7529"
     transform="translate(63.6237,11.934)">
    <g
       id="g7531"
       transform="matrix(0,-1,1,0,0,0)">
      <g
         id="g7533" />
    </g>
  </g>
  <g
     id="g7543"
     transform="translate(63.5701,41.4808)">
    <g
       id="g7545"
       transform="matrix(0,-1,1,0,0,0)">
      <g
         id="g7547" />
    </g>
  </g>
  <g
     id="g7557"
     transform="translate(104.37,41.7475)">
    <g
       id="g7559"
       transform="matrix(0,-1,1,0,0,0)">
      <g
         id="g7561" />
    </g>
  </g>
  <g
     id="g7571"
     transform="translate(90.7925,101.21)" />
  <g
     id="g7879"
     transform="translate(0,96.6467)" />
  <g
     id="g7885"
     transform="translate(25.0951,25.6486)">
    <g
       id="g7887"
       transform="matrix(0,1,-1,0,0,0)">
      <g
         id="g7889" />
    </g>
  </g>
  <g
     id="g7899"
     transform="translate(78.9333,16.7119)">
    <g
       id="g7901"
       transform="matrix(0,1,-1,0,0,0)" />
  </g>
  <g
     id="g7912"
     transform="translate(126.213,30.8225)">
    <g
       id="g7914"
       transform="matrix(0,-1,1,0,0,0)" />
  </g>
  <g
     id="g7932"
     transform="translate(6.87672,0.974117)" />
  <g
     id="g7940"
     transform="translate(148.396,30.4159)">
    <g
       id="g7942"
       transform="matrix(0,-1,1,0,0,0)" />
  </g>
  <g
     id="g7960"
     transform="translate(90.5077,20.7371)" />
  <g
     id="g7978"
     transform="translate(88.5789,2.25761)">
    <g
       id="g7980"
       transform="matrix(0,1,-1,0,0,0)" />
  </g>
  <g
     id="g7998"
     transform="translate(164.002,82.5329)">
    <g
       id="g8000"
       transform="scale(-1,-1)" />
  </g>
  <g
     id="g8018"
     transform="translate(166.643,89.3862)">
    <g
       id="g8020"
       transform="scale(-1,-1)" />
  </g>
  <g
     id="g8038"
     transform="translate(169.27,95.7019)">
    <g
       id="g8040"
       transform="scale(-1,-1)" />
  </g>
  <g
     id="g8058"
     transform="translate(171.898,103.343)">
    <g
       id="g8060"
       transform="scale(-1,-1)" />
  </g>
  <g
     id="g8120"
     transform="translate(93.8386,145.882)">
    <g
       id="g8122"
       transform="matrix(0,-1,1,0,0,0)" />
  </g>
  <g
     id="g8130"
     transform="translate(55.3619,145.082)">
    <g
       id="g8132"
       transform="matrix(0,-1,1,0,0,0)" />
  </g>
  <g
     id="g8142"
     transform="translate(133.887,145.082)">
    <g
       id="g8144"
       transform="matrix(0,-1,1,0,0,0)" />
  </g>
  <g
     id="g8154"
     transform="translate(16.8876,145.882)">
    <g
       id="g8156"
       transform="matrix(0,-1,1,0,0,0)" />
  </g>
  <g
     id="g8166"
     transform="translate(8.79488,23.5065)" />
  <g
     id="g8246"
     transform="translate(24.7944,39.7483)">
    <g
       id="g8248"
       transform="matrix(0,-1,1,0,0,0)" />
  </g>
  <g
     id="g8258"
     transform="translate(114.97,92.0675)" />
  <g
     id="g8274"
     transform="translate(116.25,102.147)">
    <g
       id="g8276"
       transform="scale(-1,-1)" />
  </g>
  <g
     id="g8345"
     transform="translate(36.9457,112.606)">
    <g
       style="font-style:normal;font-weight:normal;font-size:5px;font-family:OCRA;fill:#000000;fill-opacity:1;stroke:none"
       id="silkscreenLabel"
       font-weight="normal"
       font-style="normal"
       font-size="5" />
  </g>
  <g
     id="g8352"
     transform="translate(150.628,124.238)">
    <g
       id="g8354">
      <g
         style="font-style:normal;font-weight:normal;font-size:5px;font-family:OCRA;fill:#000000;fill-opacity:1;stroke:none"
         id="g8356"
         font-weight="normal"
         font-style="normal"
         font-size="5" />
    </g>
  </g>
  <g
     id="g8362"
     transform="translate(66.3533,116.339)">
    <g
       style="font-style:normal;font-weight:normal;font-size:5px;font-family:OCRA;fill:#000000;fill-opacity:1;stroke:none"
       id="g8364"
       font-weight="normal"
       font-style="normal"
       font-size="5" />
  </g>
  <g
     id="g8370"
     transform="translate(10.3415,17.9065)">
    <g
       style="font-style:normal;font-weight:normal;font-size:5px;font-family:OCRA;fill:#000000;fill-opacity:1;stroke:none"
       id="g8372"
       font-weight="normal"
       font-style="normal"
       font-size="5" />
  </g>
  <g
     id="g8378"
     transform="translate(27.771,61.8703)">
    <g
       style="font-style:normal;font-weight:normal;font-size:5px;font-family:OCRA;fill:#000000;fill-opacity:1;stroke:none"
       id="g8380"
       font-weight="normal"
       font-style="normal"
       font-size="5" />
  </g>
  <g
     id="g8386"
     transform="translate(36.201,10.9048)">
    <g
       id="g8388">
      <g
         style="font-style:normal;font-weight:normal;font-size:5px;font-family:OCRA;fill:#000000;fill-opacity:1;stroke:none"
         id="g8390"
         font-weight="normal"
         font-style="normal"
         font-size="5" />
    </g>
  </g>
  <g
     id="g8396"
     transform="translate(132.222,39.8284)">
    <g
       style="font-style:normal;font-weight:normal;font-size:5px;font-family:OCRA;fill:#000000;fill-opacity:1;stroke:none"
       id="g8398"
       font-weight="normal"
       font-style="normal"
       font-size="5" />
  </g>
  <g
     id="g8404"
     transform="translate(166.427,34.0885)">
    <g
       style="font-style:normal;font-weight:normal;font-size:5px;font-family:OCRA;fill:#000000;fill-opacity:1;stroke:none"
       id="g8406"
       font-weight="normal"
       font-style="normal"
       font-size="5" />
  </g>
  <g
     id="g8412"
     transform="translate(153.288,38.9009)">
    <g
       style="font-style:normal;font-weight:normal;font-size:5px;font-family:OCRA;fill:#000000;fill-opacity:1;stroke:none"
       id="g8414"
       font-weight="normal"
       font-style="normal"
       font-size="5" />
  </g>
  <g
     id="g8420"
     transform="translate(142.285,70.026)">
    <g
       style="font-style:normal;font-weight:normal;font-size:5px;font-family:OCRA;fill:#000000;fill-opacity:1;stroke:none"
       id="g8422"
       font-weight="normal"
       font-style="normal"
       font-size="5" />
  </g>
  <g
     id="g8428"
     transform="translate(109.364,120.073)">
    <g
       style="font-style:normal;font-weight:normal;font-size:5px;font-family:OCRA;fill:#000000;fill-opacity:1;stroke:none"
       id="g8430"
       font-weight="normal"
       font-style="normal"
       font-size="5" />
  </g>
  <g
     id="g8436"
     transform="translate(131.581,21.1677)">
    <g
       style="font-style:normal;font-weight:normal;font-size:5px;font-family:OCRA;fill:#000000;fill-opacity:1;stroke:none"
       id="g8438"
       font-weight="normal"
       font-style="normal"
       font-size="5" />
  </g>
  <g
     id="g8444"
     transform="translate(144.488,84.4997)">
    <g
       style="font-style:normal;font-weight:normal;font-size:5px;font-family:OCRA;fill:#000000;fill-opacity:1;stroke:none"
       id="g8446"
       font-weight="normal"
       font-style="normal"
       font-size="5" />
  </g>
  <g
     id="g8452"
     transform="translate(148.211,90.9667)">
    <g
       style="font-style:normal;font-weight:normal;font-size:5px;font-family:OCRA;fill:#000000;fill-opacity:1;stroke:none"
       id="g8454"
       font-weight="normal"
       font-style="normal"
       font-size="5" />
  </g>
  <g
     id="g8460"
     transform="translate(83.9549,25.4628)">
    <g
       id="g8462"
       transform="matrix(0,-1,1,0,0,0)">
      <g
         style="font-style:normal;font-weight:normal;font-size:5px;font-family:OCRA;fill:#000000;fill-opacity:1;stroke:none"
         id="g8464"
         font-weight="normal"
         font-style="normal"
         font-size="5" />
    </g>
  </g>
  <g
     id="g8470"
     transform="translate(104.412,21.8613)">
    <g
       style="font-style:normal;font-weight:normal;font-size:5px;font-family:OCRA;fill:#000000;fill-opacity:1;stroke:none"
       id="g8472"
       font-weight="normal"
       font-style="normal"
       font-size="5" />
  </g>
  <g
     id="g8478"
     transform="translate(140.11,77.8087)">
    <g
       style="font-style:normal;font-weight:normal;font-size:5px;font-family:OCRA;fill:#000000;fill-opacity:1;stroke:none"
       id="g8480"
       font-weight="normal"
       font-style="normal"
       font-size="5" />
  </g>
  <g
     id="g8486"
     transform="translate(153.239,98.3411)">
    <g
       style="font-style:normal;font-weight:normal;font-size:5px;font-family:OCRA;fill:#000000;fill-opacity:1;stroke:none"
       id="g8488"
       font-weight="normal"
       font-style="normal"
       font-size="5" />
  </g>
  <g
     id="g8494"
     transform="translate(154.025,21.2862)">
    <g
       style="font-style:normal;font-weight:normal;font-size:5px;font-family:OCRA;fill:#000000;fill-opacity:1;stroke:none"
       id="g8496"
       font-weight="normal"
       font-style="normal"
       font-size="5" />
  </g>
  <g
     id="g8502"
     transform="translate(60.6367,40.7341)">
    <g
       id="g8504"
       transform="matrix(0,-1,1,0,0,0)">
      <g
         style="font-style:normal;font-weight:normal;font-size:5px;font-family:OCRA;fill:#000000;fill-opacity:1;stroke:none"
         id="g8506"
         font-weight="normal"
         font-style="normal"
         font-size="5" />
    </g>
  </g>
  <g
     id="g8512"
     transform="translate(122.77,40.4675)">
    <g
       id="g8514"
       transform="matrix(0,-1,1,0,0,0)">
      <g
         style="font-style:normal;font-weight:normal;font-size:5px;font-family:OCRA;fill:#000000;fill-opacity:1;stroke:none"
         id="g8516"
         font-weight="normal"
         font-style="normal"
         font-size="5" />
    </g>
  </g>
  <g
     id="g8522"
     transform="translate(74.3405,12.1678)">
    <g
       style="font-style:normal;font-weight:normal;font-size:5px;font-family:OCRA;fill:#000000;fill-opacity:1;stroke:none"
       id="g8524"
       font-weight="normal"
       font-style="normal"
       font-size="5" />
  </g>
  <g
     id="g8530"
     transform="translate(28.6951,23.6486)">
    <g
       style="font-style:normal;font-weight:normal;font-size:5px;font-family:OCRA;fill:#000000;fill-opacity:1;stroke:none"
       id="g8532"
       font-weight="normal"
       font-style="normal"
       font-size="5" />
  </g>
  <g
     id="g8538"
     transform="translate(93.8293,98.8579)">
    <g
       style="font-style:normal;font-weight:normal;font-size:5px;font-family:OCRA;fill:#000000;fill-opacity:1;stroke:none"
       id="g8540"
       font-weight="normal"
       font-style="normal"
       font-size="5" />
  </g>
  <g
     id="g8546"
     transform="translate(124.264,95.3179)">
    <g
       style="font-style:normal;font-weight:normal;font-size:5px;font-family:OCRA;fill:#000000;fill-opacity:1;stroke:none"
       id="g8548"
       font-weight="normal"
       font-style="normal"
       font-size="5" />
  </g>
  <g
     id="g8554"
     transform="translate(84.5333,31.8319)">
    <g
       id="g8556"
       transform="matrix(0,1,-1,0,0,0)">
      <g
         style="font-style:normal;font-weight:normal;font-size:5px;font-family:OCRA;fill:#000000;fill-opacity:1;stroke:none"
         id="g8558"
         font-weight="normal"
         font-style="normal"
         font-size="5" />
    </g>
  </g>
  <path
     style="display:inline;fill:none;stroke:#000000;stroke-width:0.95801103;stroke-miterlimit:4;stroke-dasharray:none;stroke-opacity:1"
     d="M 32.927919,14.29304 A 10.08165,10.081651 0 0 0 43.009569,24.37469 10.08165,10.081651 0 0 0 53.091218,14.29304 10.08165,10.081651 0 0 0 43.009569,4.2113904 10.08165,10.081651 0 0 0 32.927919,14.29304 Z"
     id="path8723-7-5-3-5-6-2-9"
     inkscape:connector-curvature="0" />
  <path
     style="display:inline;fill:none;stroke:#000000;stroke-width:0.95801103;stroke-miterlimit:4;stroke-dasharray:none;stroke-opacity:1"
     d="m 24.579954,120.09425 a 10.08165,10.081652 0 0 0 10.08165,10.08164 10.08165,10.081652 0 0 0 10.081649,-10.08164 10.08165,10.081652 0 0 0 -10.081649,-10.08163 10.08165,10.081652 0 0 0 -10.08165,10.08163 z"
     id="path8723-7-5-3-5-6-2-9-3"
     inkscape:connector-curvature="0" />
  <path
     style="display:inline;fill:none;stroke:#000000;stroke-width:0.95801103;stroke-miterlimit:4;stroke-dasharray:none;stroke-opacity:1"
     d="M 64.830059,118.7443 A 10.08165,10.081652 0 0 0 74.91171,128.82593 10.08165,10.081652 0 0 0 84.993359,118.7443 10.08165,10.081652 0 0 0 74.91171,108.66269 10.08165,10.081652 0 0 0 64.830059,118.7443 Z"
     id="path8723-7-5-3-5-6-2-9-3-6"
     inkscape:connector-curvature="0" />
  <path
     style="display:inline;fill:none;stroke:#000000;stroke-width:0.95801103;stroke-miterlimit:4;stroke-dasharray:none;stroke-opacity:1"
     d="m 103.2301,118.7443 a 10.08165,10.081652 0 0 0 10.08164,10.08162 10.08165,10.081652 0 0 0 10.08164,-10.08162 10.08165,10.081652 0 0 0 -10.08164,-10.0816 10.08165,10.081652 0 0 0 -10.08164,10.0816 z"
     id="path8723-7-5-3-5-6-2-9-3-6-7"
     inkscape:connector-curvature="0" />
  <path
     style="display:inline;fill:none;stroke:#000000;stroke-width:0.95801103;stroke-miterlimit:4;stroke-dasharray:none;stroke-opacity:1"
     d="m 141.63011,118.7443 a 10.08165,10.081652 0 0 0 10.08163,10.08161 10.08165,10.081652 0 0 0 10.08163,-10.08161 10.08165,10.081652 0 0 0 -10.08163,-10.08159 10.08165,10.081652 0 0 0 -10.08163,10.08159 z"
     id="path8723-7-5-3-5-6-2-9-3-6-7-5"
     inkscape:connector-curvature="0" />
  <path
     style="display:inline;fill:none;stroke:#000000;stroke-width:0.66312104;stroke-miterlimit:4;stroke-dasharray:none;stroke-opacity:1"
     d="m 128.29462,18.647187 a 6.9783678,6.9783708 0 0 0 6.97835,6.978349 6.9783678,6.9783708 0 0 0 6.97836,-6.978349 6.9783678,6.9783708 0 0 0 -6.97836,-6.978336 6.9783678,6.9783708 0 0 0 -6.97835,6.978336 z"
     id="path8723-7-5-3-5-6-2-9-3-6-7-3"
     inkscape:connector-curvature="0" />
  <path
     style="display:inline;fill:none;stroke:#000000;stroke-width:0.66312104;stroke-miterlimit:4;stroke-dasharray:none;stroke-opacity:1"
     d="m 150.85389,18.696137 a 6.978368,6.9783711 0 0 0 6.97835,6.978348 6.978368,6.9783711 0 0 0 6.97836,-6.978348 6.978368,6.9783711 0 0 0 -6.97836,-6.978336 6.978368,6.9783711 0 0 0 -6.97835,6.978336 z"
     id="path8723-7-5-3-5-6-2-9-3-6-7-3-5"
     inkscape:connector-curvature="0" />
  <path
     style="fill:none;fill-opacity:1;stroke:#000000;stroke-width:0.85216129;stroke-miterlimit:4;stroke-dasharray:none;stroke-opacity:1"
     d="m 63.790264,2.5665061 16.701565,0 0,8.6997859 -16.701565,0 z"
     id="rect9561" />
  <path
     style="fill:none;fill-opacity:1;stroke:#000000;stroke-width:0.85216129;stroke-miterlimit:4;stroke-dasharray:none;stroke-opacity:1"
     d="m 63.764896,32.0424 16.701565,0 0,8.699787 -16.701565,0 z"
     id="rect9561-6" />
  <path
     style="fill:none;fill-opacity:1;stroke:#000000;stroke-width:0.85216129;stroke-miterlimit:4;stroke-dasharray:none;stroke-opacity:1"
     d="m 104.66543,32.392128 16.70156,0 0,8.699786 -16.70156,0 z"
     id="rect9561-62" />
  <path
     style="fill:none;fill-opacity:1;stroke:#000000;stroke-width:0.85216129;stroke-miterlimit:4;stroke-dasharray:none;stroke-opacity:1"
     d="m 106.82341,92.546951 16.70156,0 0,8.699789 -16.70156,0 z"
     id="rect9561-62-6" />
  <path
     style="fill:none;fill-opacity:1;stroke:#000000;stroke-width:0.77926081;stroke-miterlimit:4;stroke-dasharray:none;stroke-opacity:1"
     d="m 131.01875,42.538956 8.77269,0 0,31.027635 -8.77269,0 z"
     id="rect9623" />
  <path
     style="fill:none;fill-opacity:1;stroke:#000000;stroke-width:0.76868212;stroke-miterlimit:4;stroke-dasharray:none;stroke-opacity:1"
     d="m 141.39079,37.432884 8.53321,0 0,31.038214 -8.53321,0 z"
     id="rect9623-1" />
  <path
     style="fill:none;fill-opacity:1;stroke:#000000;stroke-width:0.76868218;stroke-miterlimit:4;stroke-dasharray:none;stroke-opacity:1"
     d="m 152.12308,43.584606 8.53321,0 0,31.038216 -8.53321,0 z"
     id="rect9623-1-8" />
  <path
     style="fill:none;fill-opacity:1;stroke:#000000;stroke-width:0.76868218;stroke-miterlimit:4;stroke-dasharray:none;stroke-opacity:1"
     d="m 162.77054,38.032665 8.53321,0 0,31.038216 -8.53321,0 z"
     id="rect9623-1-8-7" />
</svg>
