G04 MADE WITH FRITZING*
G04 WWW.FRITZING.ORG*
G04 DOUBLE SIDED*
G04 HOLES PLATED*
G04 CONTOUR ON CENTER OF CONTOUR VECTOR*
%ASAXBY*%
%FSLAX23Y23*%
%MOIN*%
%OFA0B0*%
%SFA1.0B1.0*%
%ADD10C,0.085000*%
%ADD11C,0.080866*%
%ADD12C,0.080000*%
%ADD13C,0.112677*%
%ADD14C,0.087222*%
%ADD15C,0.084000*%
%ADD16C,0.049370*%
%ADD17C,0.089370*%
%ADD18C,0.088000*%
%ADD19C,0.075000*%
%ADD20C,0.084667*%
%ADD21C,0.084695*%
%ADD22C,0.134033*%
%ADD23C,0.100020*%
%ADD24C,0.072992*%
%ADD25C,0.135984*%
%ADD26C,0.120236*%
%ADD27R,0.085000X0.085000*%
%ADD28R,0.087222X0.087222*%
%ADD29R,0.072992X0.072992*%
%ADD30R,0.080000X0.079972*%
%LNMASK0*%
G90*
G70*
G54D10*
X3015Y1394D03*
X3115Y1394D03*
G54D11*
X2513Y1846D03*
X2611Y1846D03*
X2710Y1846D03*
G54D12*
X2512Y2417D03*
X2709Y2417D03*
G54D13*
X2393Y2141D03*
X2830Y2141D03*
G54D14*
X437Y547D03*
X437Y1047D03*
X437Y547D03*
X437Y1047D03*
G54D15*
X478Y133D03*
X585Y133D03*
X692Y133D03*
G54D16*
X1247Y1935D03*
X861Y1937D03*
G54D17*
X2180Y2231D03*
X2080Y2231D03*
X1980Y2231D03*
X1880Y2231D03*
X1780Y2231D03*
G54D16*
X2152Y1917D03*
G54D18*
X1461Y1572D03*
X1561Y1572D03*
X1220Y2207D03*
X1220Y2107D03*
X574Y1572D03*
X674Y1572D03*
G54D19*
X3208Y1157D03*
X3012Y1157D03*
X628Y1661D03*
X628Y1858D03*
G54D20*
X3056Y1631D03*
X3156Y1631D03*
G54D21*
X3256Y1631D03*
G54D22*
X2962Y1926D03*
X3350Y1926D03*
G54D10*
X3311Y1058D03*
X3011Y1058D03*
X732Y1795D03*
X1032Y1795D03*
X876Y2397D03*
X876Y2097D03*
G54D23*
X3036Y553D03*
X3091Y652D03*
X2922Y918D03*
X3217Y938D03*
X3345Y746D03*
X408Y2165D03*
X353Y2066D03*
X522Y1800D03*
X227Y1780D03*
X99Y1972D03*
G54D10*
X1326Y1698D03*
X1326Y1998D03*
G54D16*
X1163Y733D03*
X909Y684D03*
X1574Y684D03*
G54D18*
X1788Y992D03*
X1788Y1092D03*
X1788Y1192D03*
X1788Y1292D03*
G54D24*
X138Y738D03*
X138Y640D03*
G54D25*
X3235Y223D03*
X239Y209D03*
G54D26*
X1404Y454D03*
G54D25*
X217Y2342D03*
X3229Y2322D03*
G54D10*
X1765Y2130D03*
X1765Y1874D03*
X1588Y2130D03*
X1588Y1874D03*
X2072Y2130D03*
X2072Y1874D03*
X1895Y2130D03*
X1895Y1874D03*
X267Y654D03*
X567Y654D03*
X2396Y1053D03*
X2096Y1053D03*
X2397Y957D03*
X2097Y957D03*
X2391Y858D03*
X2091Y858D03*
X2396Y763D03*
X2096Y763D03*
G54D12*
X1570Y1458D03*
X1470Y1458D03*
X1370Y1458D03*
X1270Y1458D03*
X1170Y1458D03*
X1070Y1458D03*
X970Y1458D03*
X870Y1458D03*
X770Y1458D03*
X670Y1458D03*
X570Y1458D03*
X470Y1458D03*
X370Y1458D03*
X270Y1458D03*
X170Y1458D03*
X1570Y858D03*
X1470Y858D03*
X1370Y858D03*
X1270Y858D03*
X1170Y858D03*
X1070Y858D03*
X970Y858D03*
X870Y858D03*
X770Y858D03*
X670Y858D03*
X570Y858D03*
X470Y858D03*
X370Y858D03*
X270Y858D03*
X170Y858D03*
G54D20*
X2336Y188D03*
X2436Y188D03*
G54D21*
X2536Y188D03*
G54D22*
X2242Y484D03*
X2630Y484D03*
G54D20*
X1672Y188D03*
X1772Y188D03*
G54D21*
X1872Y188D03*
G54D22*
X1578Y484D03*
X1966Y484D03*
G54D20*
X978Y190D03*
X1078Y190D03*
G54D21*
X1178Y190D03*
G54D22*
X884Y485D03*
X1272Y485D03*
G54D18*
X1973Y1418D03*
X1973Y1318D03*
X1973Y1218D03*
X2079Y1419D03*
X2079Y1319D03*
X2079Y1219D03*
X2370Y1464D03*
X2370Y1364D03*
X2370Y1264D03*
X2370Y1164D03*
X2262Y1465D03*
X2262Y1365D03*
X2262Y1265D03*
X2262Y1165D03*
X2795Y1499D03*
X2695Y1499D03*
X162Y1669D03*
X162Y1569D03*
X266Y1670D03*
X266Y1570D03*
X472Y1570D03*
X472Y1670D03*
X368Y1570D03*
X368Y1670D03*
G54D27*
X3015Y1394D03*
G54D28*
X437Y1047D03*
X437Y1047D03*
G54D29*
X138Y738D03*
G54D30*
X1570Y1458D03*
G04 End of Mask0*
M02*