; NON-PLATED HOLES START AT T1
; THROUGH (PLATED) HOLES START AT T100
M48
INCH
T1C0.110236
T2C0.125984
T100C0.039370
T101C0.060020
T102C0.088356
T103C0.040000
T104C0.082677
T105C0.041361
T106C0.036000
T107C0.032778
T108C0.043307
T109C0.031497
T110C0.015748
T111C0.027559
T112C0.038000
T113C0.035000
T114C0.041333
%
T1
X014035Y004539
T2
X002170Y023415
X002385Y002092
X032352Y002234
X032292Y023224
T100
X017798Y022306
X019798Y022306
X020798Y022306
X021798Y022306
X018798Y022306
T101
X029219Y009178
X033449Y007458
X030909Y006518
X002274Y017798
X004084Y021648
X032169Y009378
X000994Y019718
X005224Y017998
X003534Y020658
X030359Y005528
T102
X026302Y004836
X033499Y019264
X019662Y004836
X029616Y019264
X015779Y004836
X022419Y004836
X012718Y004850
X008835Y004850
T103
X006920Y001325
X005850Y001325
X004780Y001325
T104
X028297Y021411
X023927Y021411
T105
X018720Y001883
X025360Y001883
X011776Y001898
X032557Y016311
T106
X005702Y008584
X012702Y014584
X013702Y008584
X004702Y008584
X007702Y008584
X001702Y014584
X008702Y014584
X010702Y014584
X006702Y014584
X015702Y008584
X002702Y014584
X003702Y008584
X014702Y008584
X009702Y008584
X011702Y014584
X003702Y014584
X011702Y008584
X009702Y014584
X014702Y014584
X010702Y008584
X006702Y008584
X015702Y014584
X002702Y008584
X013702Y014584
X001702Y008584
X004702Y014584
X007702Y014584
X008702Y008584
X005702Y014584
X012702Y008584
T107
X004374Y010471
X004374Y005471
T108
X025123Y024167
X025128Y018458
X026112Y018458
X027096Y018458
X027092Y024167
T109
X001377Y006398
X001377Y007382
T110
X021516Y019169
X009094Y006836
X008605Y019369
X015739Y006843
X012472Y019347
X011628Y007325
T111
X006275Y018578
X006275Y016609
X030115Y011565
X032084Y011565
T112
X020788Y013187
X017875Y012923
X014610Y015719
X023696Y013641
X019726Y014184
X022615Y012651
X023696Y014641
X020788Y012187
X006743Y015724
X012201Y021071
X001618Y016689
X015610Y015719
X012201Y022071
X004717Y015699
X022615Y011651
X003681Y015695
X027945Y014994
X001618Y015689
X019726Y013184
X023696Y012641
X003681Y016695
X004717Y016699
X022615Y014651
X026945Y014994
X020788Y014187
X017875Y010923
X017875Y009923
X019726Y012184
X002655Y016704
X022615Y013651
X002655Y015704
X005743Y015724
X023696Y011641
X017875Y011923
T113
X005674Y006537
X007319Y017953
X020718Y021297
X002674Y006537
X023969Y009573
X023909Y008584
X015875Y021297
X020718Y018738
X023955Y010534
X020969Y009573
X020909Y008584
X010319Y017953
X033113Y010579
X023955Y007629
X030154Y013944
X013264Y016977
X018947Y018738
X017647Y018738
X015875Y018738
X030113Y010579
X008755Y023970
X031154Y013944
X008755Y020970
X020955Y010534
X020955Y007629
X018947Y021297
X017647Y021297
X013264Y019977
T114
X030557Y016311
X023360Y001883
X017720Y001883
X031557Y016311
X024360Y001883
X016720Y001883
X009776Y001898
X010776Y001897
T00
M30
