G04 MADE WITH FRITZING*
G04 WWW.FRITZING.ORG*
G04 DOUBLE SIDED*
G04 HOLES PLATED*
G04 CONTOUR ON CENTER OF CONTOUR VECTOR*
%ASAXBY*%
%FSLAX23Y23*%
%MOIN*%
%OFA0B0*%
%SFA1.0B1.0*%
%ADD10C,0.005000*%
%ADD10C,0.008*%
%LNCONTOUR*%
G90*
G70*
G54D10*
G54D10*
X127Y2537D02*
X128Y2537D01*
X129Y2537D01*
X130Y2537D01*
X131Y2537D01*
X132Y2537D01*
X133Y2537D01*
X134Y2537D01*
X135Y2537D01*
X136Y2537D01*
X137Y2537D01*
X138Y2537D01*
X139Y2537D01*
X140Y2537D01*
X141Y2537D01*
X142Y2537D01*
X143Y2537D01*
X144Y2537D01*
X145Y2537D01*
X146Y2537D01*
X147Y2537D01*
X148Y2537D01*
X149Y2537D01*
X150Y2537D01*
X151Y2537D01*
X152Y2537D01*
X153Y2537D01*
X154Y2537D01*
X155Y2537D01*
X156Y2537D01*
X157Y2537D01*
X158Y2537D01*
X159Y2537D01*
X160Y2537D01*
X161Y2537D01*
X162Y2537D01*
X163Y2537D01*
X164Y2537D01*
X165Y2537D01*
X166Y2537D01*
X167Y2537D01*
X168Y2537D01*
X169Y2537D01*
X170Y2537D01*
X171Y2537D01*
X172Y2537D01*
X173Y2537D01*
X174Y2537D01*
X175Y2537D01*
X176Y2537D01*
X177Y2537D01*
X178Y2537D01*
X179Y2537D01*
X180Y2537D01*
X181Y2537D01*
X182Y2537D01*
X183Y2537D01*
X184Y2537D01*
X185Y2537D01*
X186Y2537D01*
X187Y2537D01*
X188Y2537D01*
X189Y2537D01*
X190Y2537D01*
X191Y2537D01*
X192Y2537D01*
X193Y2537D01*
X194Y2537D01*
X195Y2537D01*
X196Y2537D01*
X197Y2537D01*
X198Y2537D01*
X199Y2537D01*
X200Y2537D01*
X201Y2537D01*
X202Y2537D01*
X203Y2537D01*
X204Y2537D01*
X205Y2537D01*
X206Y2537D01*
X207Y2537D01*
X208Y2537D01*
X209Y2537D01*
X210Y2537D01*
X211Y2537D01*
X212Y2537D01*
X213Y2537D01*
X214Y2537D01*
X215Y2537D01*
X216Y2537D01*
X217Y2537D01*
X218Y2537D01*
X219Y2537D01*
X220Y2537D01*
X221Y2537D01*
X222Y2537D01*
X223Y2537D01*
X224Y2537D01*
X225Y2537D01*
X226Y2537D01*
X227Y2537D01*
X228Y2537D01*
X229Y2537D01*
X230Y2537D01*
X231Y2537D01*
X232Y2537D01*
X233Y2537D01*
X234Y2537D01*
X235Y2537D01*
X236Y2537D01*
X237Y2537D01*
X238Y2537D01*
X239Y2537D01*
X240Y2537D01*
X241Y2537D01*
X242Y2537D01*
X243Y2537D01*
X244Y2537D01*
X245Y2537D01*
X246Y2537D01*
X247Y2537D01*
X248Y2537D01*
X249Y2537D01*
X250Y2537D01*
X251Y2537D01*
X252Y2537D01*
X253Y2537D01*
X254Y2537D01*
X255Y2537D01*
X256Y2537D01*
X257Y2537D01*
X258Y2537D01*
X259Y2537D01*
X260Y2537D01*
X261Y2537D01*
X262Y2537D01*
X263Y2537D01*
X264Y2537D01*
X265Y2537D01*
X266Y2537D01*
X267Y2537D01*
X268Y2537D01*
X269Y2537D01*
X270Y2537D01*
X271Y2537D01*
X272Y2537D01*
X273Y2537D01*
X274Y2537D01*
X275Y2537D01*
X276Y2537D01*
X277Y2537D01*
X278Y2537D01*
X279Y2537D01*
X280Y2537D01*
X281Y2537D01*
X282Y2537D01*
X283Y2537D01*
X284Y2537D01*
X285Y2537D01*
X286Y2537D01*
X287Y2537D01*
X288Y2537D01*
X289Y2537D01*
X290Y2537D01*
X291Y2537D01*
X292Y2537D01*
X293Y2537D01*
X294Y2537D01*
X295Y2537D01*
X296Y2537D01*
X297Y2537D01*
X298Y2537D01*
X299Y2537D01*
X300Y2537D01*
X301Y2537D01*
X302Y2537D01*
X303Y2537D01*
X304Y2537D01*
X305Y2537D01*
X306Y2537D01*
X307Y2537D01*
X308Y2537D01*
X309Y2537D01*
X310Y2537D01*
X311Y2537D01*
X312Y2537D01*
X313Y2537D01*
X314Y2537D01*
X315Y2537D01*
X316Y2537D01*
X317Y2537D01*
X318Y2537D01*
X319Y2537D01*
X320Y2537D01*
X321Y2537D01*
X322Y2537D01*
X323Y2537D01*
X324Y2537D01*
X325Y2537D01*
X326Y2537D01*
X327Y2537D01*
X328Y2537D01*
X329Y2537D01*
X330Y2537D01*
X331Y2537D01*
X332Y2537D01*
X333Y2537D01*
X334Y2537D01*
X335Y2537D01*
X336Y2537D01*
X337Y2537D01*
X338Y2537D01*
X339Y2537D01*
X340Y2537D01*
X341Y2537D01*
X342Y2537D01*
X343Y2537D01*
X344Y2537D01*
X345Y2537D01*
X346Y2537D01*
X347Y2537D01*
X348Y2537D01*
X349Y2537D01*
X350Y2537D01*
X351Y2537D01*
X352Y2537D01*
X353Y2537D01*
X354Y2537D01*
X355Y2537D01*
X356Y2537D01*
X357Y2537D01*
X358Y2537D01*
X359Y2537D01*
X360Y2537D01*
X361Y2537D01*
X362Y2537D01*
X363Y2537D01*
X364Y2537D01*
X365Y2537D01*
X366Y2537D01*
X367Y2537D01*
X368Y2537D01*
X369Y2537D01*
X370Y2537D01*
X371Y2537D01*
X372Y2537D01*
X373Y2537D01*
X374Y2537D01*
X375Y2537D01*
X376Y2537D01*
X377Y2537D01*
X378Y2537D01*
X379Y2537D01*
X380Y2537D01*
X381Y2537D01*
X382Y2537D01*
X383Y2537D01*
X384Y2537D01*
X385Y2537D01*
X386Y2537D01*
X387Y2537D01*
X388Y2537D01*
X389Y2537D01*
X390Y2537D01*
X391Y2537D01*
X392Y2537D01*
X393Y2537D01*
X394Y2537D01*
X395Y2537D01*
X396Y2537D01*
X397Y2537D01*
X398Y2537D01*
X399Y2537D01*
X400Y2537D01*
X401Y2537D01*
X402Y2537D01*
X403Y2537D01*
X404Y2537D01*
X405Y2537D01*
X406Y2537D01*
X407Y2537D01*
X408Y2537D01*
X409Y2537D01*
X410Y2537D01*
X411Y2537D01*
X412Y2537D01*
X413Y2537D01*
X414Y2537D01*
X415Y2537D01*
X416Y2537D01*
X417Y2537D01*
X418Y2537D01*
X419Y2537D01*
X420Y2537D01*
X421Y2537D01*
X422Y2537D01*
X423Y2537D01*
X424Y2537D01*
X425Y2537D01*
X426Y2537D01*
X427Y2537D01*
X428Y2537D01*
X429Y2537D01*
X430Y2537D01*
X431Y2537D01*
X432Y2537D01*
X433Y2537D01*
X434Y2537D01*
X435Y2537D01*
X436Y2537D01*
X437Y2537D01*
X438Y2537D01*
X439Y2537D01*
X440Y2537D01*
X441Y2537D01*
X442Y2537D01*
X443Y2537D01*
X444Y2537D01*
X445Y2537D01*
X446Y2537D01*
X447Y2537D01*
X448Y2537D01*
X449Y2537D01*
X450Y2537D01*
X451Y2537D01*
X452Y2537D01*
X453Y2537D01*
X454Y2537D01*
X455Y2537D01*
X456Y2537D01*
X457Y2537D01*
X458Y2537D01*
X459Y2537D01*
X460Y2537D01*
X461Y2537D01*
X462Y2537D01*
X463Y2537D01*
X464Y2537D01*
X465Y2537D01*
X466Y2537D01*
X467Y2537D01*
X468Y2537D01*
X469Y2537D01*
X470Y2537D01*
X471Y2537D01*
X472Y2537D01*
X473Y2537D01*
X474Y2537D01*
X475Y2537D01*
X476Y2537D01*
X477Y2537D01*
X478Y2537D01*
X479Y2537D01*
X480Y2537D01*
X481Y2537D01*
X482Y2537D01*
X483Y2537D01*
X484Y2537D01*
X485Y2537D01*
X486Y2537D01*
X487Y2537D01*
X488Y2537D01*
X489Y2537D01*
X490Y2537D01*
X491Y2537D01*
X492Y2537D01*
X493Y2537D01*
X494Y2537D01*
X495Y2537D01*
X496Y2537D01*
X497Y2537D01*
X498Y2537D01*
X499Y2537D01*
X500Y2537D01*
X501Y2537D01*
X502Y2537D01*
X503Y2537D01*
X504Y2537D01*
X505Y2537D01*
X506Y2537D01*
X507Y2537D01*
X508Y2537D01*
X509Y2537D01*
X510Y2537D01*
X511Y2537D01*
X512Y2537D01*
X513Y2537D01*
X514Y2537D01*
X515Y2537D01*
X516Y2537D01*
X517Y2537D01*
X518Y2537D01*
X519Y2537D01*
X520Y2537D01*
X521Y2537D01*
X522Y2537D01*
X523Y2537D01*
X524Y2537D01*
X525Y2537D01*
X526Y2537D01*
X527Y2537D01*
X528Y2537D01*
X529Y2537D01*
X530Y2537D01*
X531Y2537D01*
X532Y2537D01*
X533Y2537D01*
X534Y2537D01*
X535Y2537D01*
X536Y2537D01*
X537Y2537D01*
X538Y2537D01*
X539Y2537D01*
X540Y2537D01*
X541Y2537D01*
X542Y2537D01*
X543Y2537D01*
X544Y2537D01*
X545Y2537D01*
X546Y2537D01*
X547Y2537D01*
X548Y2537D01*
X549Y2537D01*
X550Y2537D01*
X551Y2537D01*
X552Y2537D01*
X553Y2537D01*
X554Y2537D01*
X555Y2537D01*
X556Y2537D01*
X557Y2537D01*
X558Y2537D01*
X559Y2537D01*
X560Y2537D01*
X561Y2537D01*
X562Y2537D01*
X563Y2537D01*
X564Y2537D01*
X565Y2537D01*
X566Y2537D01*
X567Y2537D01*
X568Y2537D01*
X569Y2537D01*
X570Y2537D01*
X571Y2537D01*
X572Y2537D01*
X573Y2537D01*
X574Y2537D01*
X575Y2537D01*
X576Y2537D01*
X577Y2537D01*
X578Y2537D01*
X579Y2537D01*
X580Y2537D01*
X581Y2537D01*
X582Y2537D01*
X583Y2537D01*
X584Y2537D01*
X585Y2537D01*
X586Y2537D01*
X587Y2537D01*
X588Y2537D01*
X589Y2537D01*
X590Y2537D01*
X591Y2537D01*
X592Y2537D01*
X593Y2537D01*
X594Y2537D01*
X595Y2537D01*
X596Y2537D01*
X597Y2537D01*
X598Y2537D01*
X599Y2537D01*
X600Y2537D01*
X601Y2537D01*
X602Y2537D01*
X603Y2537D01*
X604Y2537D01*
X605Y2537D01*
X606Y2537D01*
X607Y2537D01*
X608Y2537D01*
X609Y2537D01*
X610Y2537D01*
X611Y2537D01*
X612Y2537D01*
X613Y2537D01*
X614Y2537D01*
X615Y2537D01*
X616Y2537D01*
X617Y2537D01*
X618Y2537D01*
X619Y2537D01*
X620Y2537D01*
X621Y2537D01*
X622Y2537D01*
X623Y2537D01*
X624Y2537D01*
X625Y2537D01*
X626Y2537D01*
X627Y2537D01*
X628Y2537D01*
X629Y2537D01*
X630Y2537D01*
X631Y2537D01*
X632Y2537D01*
X633Y2537D01*
X634Y2537D01*
X635Y2537D01*
X636Y2537D01*
X637Y2537D01*
X638Y2537D01*
X639Y2537D01*
X640Y2537D01*
X641Y2537D01*
X642Y2537D01*
X643Y2537D01*
X644Y2537D01*
X645Y2537D01*
X646Y2537D01*
X647Y2537D01*
X648Y2537D01*
X649Y2537D01*
X650Y2537D01*
X651Y2537D01*
X652Y2537D01*
X653Y2537D01*
X654Y2537D01*
X655Y2537D01*
X656Y2537D01*
X657Y2537D01*
X658Y2537D01*
X659Y2537D01*
X660Y2537D01*
X661Y2537D01*
X662Y2537D01*
X663Y2537D01*
X664Y2537D01*
X665Y2537D01*
X666Y2537D01*
X667Y2537D01*
X668Y2537D01*
X669Y2537D01*
X670Y2537D01*
X671Y2537D01*
X672Y2537D01*
X673Y2537D01*
X674Y2537D01*
X675Y2537D01*
X676Y2537D01*
X677Y2537D01*
X678Y2537D01*
X679Y2537D01*
X680Y2537D01*
X681Y2537D01*
X682Y2537D01*
X683Y2537D01*
X684Y2537D01*
X685Y2537D01*
X686Y2537D01*
X687Y2537D01*
X688Y2537D01*
X689Y2537D01*
X690Y2537D01*
X691Y2537D01*
X692Y2537D01*
X693Y2537D01*
X694Y2537D01*
X695Y2537D01*
X696Y2537D01*
X697Y2537D01*
X698Y2537D01*
X699Y2537D01*
X700Y2537D01*
X701Y2537D01*
X702Y2537D01*
X703Y2537D01*
X704Y2537D01*
X705Y2537D01*
X706Y2537D01*
X707Y2537D01*
X708Y2537D01*
X709Y2537D01*
X710Y2537D01*
X711Y2537D01*
X712Y2537D01*
X713Y2537D01*
X714Y2537D01*
X715Y2537D01*
X716Y2537D01*
X717Y2537D01*
X718Y2537D01*
X719Y2537D01*
X720Y2537D01*
X721Y2537D01*
X722Y2537D01*
X723Y2537D01*
X724Y2537D01*
X725Y2537D01*
X726Y2537D01*
X727Y2537D01*
X728Y2537D01*
X729Y2537D01*
X730Y2537D01*
X731Y2537D01*
X732Y2537D01*
X733Y2537D01*
X734Y2537D01*
X735Y2537D01*
X736Y2537D01*
X737Y2537D01*
X738Y2537D01*
X739Y2537D01*
X740Y2537D01*
X741Y2537D01*
X742Y2537D01*
X743Y2537D01*
X744Y2537D01*
X745Y2537D01*
X746Y2537D01*
X747Y2537D01*
X748Y2537D01*
X749Y2537D01*
X750Y2537D01*
X751Y2537D01*
X752Y2537D01*
X753Y2537D01*
X754Y2537D01*
X755Y2537D01*
X756Y2537D01*
X757Y2537D01*
X758Y2537D01*
X759Y2537D01*
X760Y2537D01*
X761Y2537D01*
X762Y2537D01*
X763Y2537D01*
X764Y2537D01*
X765Y2537D01*
X766Y2537D01*
X767Y2537D01*
X768Y2537D01*
X769Y2537D01*
X770Y2537D01*
X771Y2537D01*
X772Y2537D01*
X773Y2537D01*
X774Y2537D01*
X775Y2537D01*
X776Y2537D01*
X777Y2537D01*
X778Y2537D01*
X779Y2537D01*
X780Y2537D01*
X781Y2537D01*
X782Y2537D01*
X783Y2537D01*
X784Y2537D01*
X785Y2537D01*
X786Y2537D01*
X787Y2537D01*
X788Y2537D01*
X789Y2537D01*
X790Y2537D01*
X791Y2537D01*
X792Y2537D01*
X793Y2537D01*
X794Y2537D01*
X795Y2537D01*
X796Y2537D01*
X797Y2537D01*
X798Y2537D01*
X799Y2537D01*
X800Y2537D01*
X801Y2537D01*
X802Y2537D01*
X803Y2537D01*
X804Y2537D01*
X805Y2537D01*
X806Y2537D01*
X807Y2537D01*
X808Y2537D01*
X809Y2537D01*
X810Y2537D01*
X811Y2537D01*
X812Y2537D01*
X813Y2537D01*
X814Y2537D01*
X815Y2537D01*
X816Y2537D01*
X817Y2537D01*
X818Y2537D01*
X819Y2537D01*
X820Y2537D01*
X821Y2537D01*
X822Y2537D01*
X823Y2537D01*
X824Y2537D01*
X825Y2537D01*
X826Y2537D01*
X827Y2537D01*
X828Y2537D01*
X829Y2537D01*
X830Y2537D01*
X831Y2537D01*
X832Y2537D01*
X833Y2537D01*
X834Y2537D01*
X835Y2537D01*
X836Y2537D01*
X837Y2537D01*
X838Y2537D01*
X839Y2537D01*
X840Y2537D01*
X841Y2537D01*
X842Y2537D01*
X843Y2537D01*
X844Y2537D01*
X845Y2537D01*
X846Y2537D01*
X847Y2537D01*
X848Y2537D01*
X849Y2537D01*
X850Y2537D01*
X851Y2537D01*
X852Y2537D01*
X853Y2537D01*
X854Y2537D01*
X855Y2537D01*
X856Y2537D01*
X857Y2537D01*
X858Y2537D01*
X859Y2537D01*
X860Y2537D01*
X861Y2537D01*
X862Y2537D01*
X863Y2537D01*
X864Y2537D01*
X865Y2537D01*
X866Y2537D01*
X867Y2537D01*
X868Y2537D01*
X869Y2537D01*
X870Y2537D01*
X871Y2537D01*
X872Y2537D01*
X873Y2537D01*
X874Y2537D01*
X875Y2537D01*
X876Y2537D01*
X877Y2537D01*
X878Y2537D01*
X879Y2537D01*
X880Y2537D01*
X881Y2537D01*
X882Y2537D01*
X883Y2537D01*
X884Y2537D01*
X885Y2537D01*
X886Y2537D01*
X887Y2537D01*
X888Y2537D01*
X889Y2537D01*
X890Y2537D01*
X891Y2537D01*
X892Y2537D01*
X893Y2537D01*
X894Y2537D01*
X895Y2537D01*
X896Y2537D01*
X897Y2537D01*
X898Y2537D01*
X899Y2537D01*
X900Y2537D01*
X901Y2537D01*
X902Y2537D01*
X903Y2537D01*
X904Y2537D01*
X905Y2537D01*
X906Y2537D01*
X907Y2537D01*
X908Y2537D01*
X909Y2537D01*
X910Y2537D01*
X911Y2537D01*
X912Y2537D01*
X913Y2537D01*
X914Y2537D01*
X915Y2537D01*
X916Y2537D01*
X917Y2537D01*
X918Y2537D01*
X919Y2537D01*
X920Y2537D01*
X921Y2537D01*
X922Y2537D01*
X923Y2537D01*
X924Y2537D01*
X925Y2537D01*
X926Y2537D01*
X927Y2537D01*
X928Y2537D01*
X929Y2537D01*
X930Y2537D01*
X931Y2537D01*
X932Y2537D01*
X933Y2537D01*
X934Y2537D01*
X935Y2537D01*
X936Y2537D01*
X937Y2537D01*
X938Y2537D01*
X939Y2537D01*
X940Y2537D01*
X941Y2537D01*
X942Y2537D01*
X943Y2537D01*
X944Y2537D01*
X945Y2537D01*
X946Y2537D01*
X947Y2537D01*
X948Y2537D01*
X949Y2537D01*
X950Y2537D01*
X951Y2537D01*
X952Y2537D01*
X953Y2537D01*
X954Y2537D01*
X955Y2537D01*
X956Y2537D01*
X957Y2537D01*
X958Y2537D01*
X959Y2537D01*
X960Y2537D01*
X961Y2537D01*
X962Y2537D01*
X963Y2537D01*
X964Y2537D01*
X965Y2537D01*
X966Y2537D01*
X967Y2537D01*
X968Y2537D01*
X969Y2537D01*
X970Y2537D01*
X971Y2537D01*
X972Y2537D01*
X973Y2537D01*
X974Y2537D01*
X975Y2537D01*
X976Y2537D01*
X977Y2537D01*
X978Y2537D01*
X979Y2537D01*
X980Y2537D01*
X981Y2537D01*
X982Y2537D01*
X983Y2537D01*
X984Y2537D01*
X985Y2537D01*
X986Y2537D01*
X987Y2537D01*
X988Y2537D01*
X989Y2537D01*
X990Y2537D01*
X991Y2537D01*
X992Y2537D01*
X993Y2537D01*
X994Y2537D01*
X995Y2537D01*
X996Y2537D01*
X997Y2537D01*
X998Y2537D01*
X999Y2537D01*
X1000Y2537D01*
X1001Y2537D01*
X1002Y2537D01*
X1003Y2537D01*
X1004Y2537D01*
X1005Y2537D01*
X1006Y2537D01*
X1007Y2537D01*
X1008Y2537D01*
X1009Y2537D01*
X1010Y2537D01*
X1011Y2537D01*
X1012Y2537D01*
X1013Y2537D01*
X1014Y2537D01*
X1015Y2537D01*
X1016Y2537D01*
X1017Y2537D01*
X1018Y2537D01*
X1019Y2537D01*
X1020Y2537D01*
X1021Y2537D01*
X1022Y2537D01*
X1023Y2537D01*
X1024Y2537D01*
X1025Y2537D01*
X1026Y2537D01*
X1027Y2537D01*
X1028Y2537D01*
X1029Y2537D01*
X1030Y2537D01*
X1031Y2537D01*
X1032Y2537D01*
X1033Y2537D01*
X1034Y2537D01*
X1035Y2537D01*
X1036Y2537D01*
X1037Y2537D01*
X1038Y2537D01*
X1039Y2537D01*
X1040Y2537D01*
X1041Y2537D01*
X1042Y2537D01*
X1043Y2537D01*
X1044Y2537D01*
X1045Y2537D01*
X1046Y2537D01*
X1047Y2537D01*
X1048Y2537D01*
X1049Y2537D01*
X1050Y2537D01*
X1051Y2537D01*
X1052Y2537D01*
X1053Y2537D01*
X1054Y2537D01*
X1055Y2537D01*
X1056Y2537D01*
X1057Y2537D01*
X1058Y2537D01*
X1059Y2537D01*
X1060Y2537D01*
X1061Y2537D01*
X1062Y2537D01*
X1063Y2537D01*
X1064Y2537D01*
X1065Y2537D01*
X1066Y2537D01*
X1067Y2537D01*
X1068Y2537D01*
X1069Y2537D01*
X1070Y2537D01*
X1071Y2537D01*
X1072Y2537D01*
X1073Y2537D01*
X1074Y2537D01*
X1075Y2537D01*
X1076Y2537D01*
X1077Y2537D01*
X1078Y2537D01*
X1079Y2537D01*
X1080Y2537D01*
X1081Y2537D01*
X1082Y2537D01*
X1083Y2537D01*
X1084Y2537D01*
X1085Y2537D01*
X1086Y2537D01*
X1087Y2537D01*
X1088Y2537D01*
X1089Y2537D01*
X1090Y2537D01*
X1091Y2537D01*
X1092Y2537D01*
X1093Y2537D01*
X1094Y2537D01*
X1095Y2537D01*
X1096Y2537D01*
X1097Y2537D01*
X1098Y2537D01*
X1099Y2537D01*
X1100Y2537D01*
X1101Y2537D01*
X1102Y2537D01*
X1103Y2537D01*
X1104Y2537D01*
X1105Y2537D01*
X1106Y2537D01*
X1107Y2537D01*
X1108Y2537D01*
X1109Y2537D01*
X1110Y2537D01*
X1111Y2537D01*
X1112Y2537D01*
X1113Y2537D01*
X1114Y2537D01*
X1115Y2537D01*
X1116Y2537D01*
X1117Y2537D01*
X1118Y2537D01*
X1119Y2537D01*
X1120Y2537D01*
X1121Y2537D01*
X1122Y2537D01*
X1123Y2537D01*
X1124Y2537D01*
X1125Y2537D01*
X1126Y2537D01*
X1127Y2537D01*
X1128Y2537D01*
X1129Y2537D01*
X1130Y2537D01*
X1131Y2537D01*
X1132Y2537D01*
X1133Y2537D01*
X1134Y2537D01*
X1135Y2537D01*
X1136Y2537D01*
X1137Y2537D01*
X1138Y2537D01*
X1139Y2537D01*
X1140Y2537D01*
X1141Y2537D01*
X1142Y2537D01*
X1143Y2537D01*
X1144Y2537D01*
X1145Y2537D01*
X1146Y2537D01*
X1147Y2537D01*
X1148Y2537D01*
X1149Y2537D01*
X1150Y2537D01*
X1151Y2537D01*
X1152Y2537D01*
X1153Y2537D01*
X1154Y2537D01*
X1155Y2537D01*
X1156Y2537D01*
X1157Y2537D01*
X1158Y2537D01*
X1159Y2537D01*
X1160Y2537D01*
X1161Y2537D01*
X1162Y2537D01*
X1163Y2537D01*
X1164Y2537D01*
X1165Y2537D01*
X1166Y2537D01*
X1167Y2537D01*
X1168Y2537D01*
X1169Y2537D01*
X1170Y2537D01*
X1171Y2537D01*
X1172Y2537D01*
X1173Y2537D01*
X1174Y2537D01*
X1175Y2537D01*
X1176Y2537D01*
X1177Y2537D01*
X1178Y2537D01*
X1179Y2537D01*
X1180Y2537D01*
X1181Y2537D01*
X1182Y2537D01*
X1183Y2537D01*
X1184Y2537D01*
X1185Y2537D01*
X1186Y2537D01*
X1187Y2537D01*
X1188Y2537D01*
X1189Y2537D01*
X1190Y2537D01*
X1191Y2537D01*
X1192Y2537D01*
X1193Y2537D01*
X1194Y2537D01*
X1195Y2537D01*
X1196Y2537D01*
X1197Y2537D01*
X1198Y2537D01*
X1199Y2537D01*
X1200Y2537D01*
X1201Y2537D01*
X1202Y2537D01*
X1203Y2537D01*
X1204Y2537D01*
X1205Y2537D01*
X1206Y2537D01*
X1207Y2537D01*
X1208Y2537D01*
X1209Y2537D01*
X1210Y2537D01*
X1211Y2537D01*
X1212Y2537D01*
X1213Y2537D01*
X1214Y2537D01*
X1215Y2537D01*
X1216Y2537D01*
X1217Y2537D01*
X1218Y2537D01*
X1219Y2537D01*
X1220Y2537D01*
X1221Y2537D01*
X1222Y2537D01*
X1223Y2537D01*
X1224Y2537D01*
X1225Y2537D01*
X1226Y2537D01*
X1227Y2537D01*
X1228Y2537D01*
X1229Y2537D01*
X1230Y2537D01*
X1231Y2537D01*
X1232Y2537D01*
X1233Y2537D01*
X1234Y2537D01*
X1235Y2537D01*
X1236Y2537D01*
X1237Y2537D01*
X1238Y2537D01*
X1239Y2537D01*
X1240Y2537D01*
X1241Y2537D01*
X1242Y2537D01*
X1243Y2537D01*
X1244Y2537D01*
X1245Y2537D01*
X1246Y2537D01*
X1247Y2537D01*
X1248Y2537D01*
X1249Y2537D01*
X1250Y2537D01*
X1251Y2537D01*
X1252Y2537D01*
X1253Y2537D01*
X1254Y2537D01*
X1255Y2537D01*
X1256Y2537D01*
X1257Y2537D01*
X1258Y2537D01*
X1259Y2537D01*
X1260Y2537D01*
X1261Y2537D01*
X1262Y2537D01*
X1263Y2537D01*
X1264Y2537D01*
X1265Y2537D01*
X1266Y2537D01*
X1267Y2537D01*
X1268Y2537D01*
X1269Y2537D01*
X1270Y2537D01*
X1271Y2537D01*
X1272Y2537D01*
X1273Y2537D01*
X1274Y2537D01*
X1275Y2537D01*
X1276Y2537D01*
X1277Y2537D01*
X1278Y2537D01*
X1279Y2537D01*
X1280Y2537D01*
X1281Y2537D01*
X1282Y2537D01*
X1283Y2537D01*
X1284Y2537D01*
X1285Y2537D01*
X1286Y2537D01*
X1287Y2537D01*
X1288Y2537D01*
X1289Y2537D01*
X1290Y2537D01*
X1291Y2537D01*
X1292Y2537D01*
X1293Y2537D01*
X1294Y2537D01*
X1295Y2537D01*
X1296Y2537D01*
X1297Y2537D01*
X1298Y2537D01*
X1299Y2537D01*
X1300Y2537D01*
X1301Y2537D01*
X1302Y2537D01*
X1303Y2537D01*
X1304Y2537D01*
X1305Y2537D01*
X1306Y2537D01*
X1307Y2537D01*
X1308Y2537D01*
X1309Y2537D01*
X1310Y2537D01*
X1311Y2537D01*
X1312Y2537D01*
X1313Y2537D01*
X1314Y2537D01*
X1315Y2537D01*
X1316Y2537D01*
X1317Y2537D01*
X1318Y2537D01*
X1319Y2537D01*
X1320Y2537D01*
X1321Y2537D01*
X1322Y2537D01*
X1323Y2537D01*
X1324Y2537D01*
X1325Y2537D01*
X1326Y2537D01*
X1327Y2537D01*
X1328Y2537D01*
X1329Y2537D01*
X1330Y2537D01*
X1331Y2537D01*
X1332Y2537D01*
X1333Y2537D01*
X1334Y2537D01*
X1335Y2537D01*
X1336Y2537D01*
X1337Y2537D01*
X1338Y2537D01*
X1339Y2537D01*
X1340Y2537D01*
X1341Y2537D01*
X1342Y2537D01*
X1343Y2537D01*
X1344Y2537D01*
X1345Y2537D01*
X1346Y2537D01*
X1347Y2537D01*
X1348Y2537D01*
X1349Y2537D01*
X1350Y2537D01*
X1351Y2537D01*
X1352Y2537D01*
X1353Y2537D01*
X1354Y2537D01*
X1355Y2537D01*
X1356Y2537D01*
X1357Y2537D01*
X1358Y2537D01*
X1359Y2537D01*
X1360Y2537D01*
X1361Y2537D01*
X1362Y2537D01*
X1363Y2537D01*
X1364Y2537D01*
X1365Y2537D01*
X1366Y2537D01*
X1367Y2537D01*
X1368Y2537D01*
X1369Y2537D01*
X1370Y2537D01*
X1371Y2537D01*
X1372Y2537D01*
X1373Y2537D01*
X1374Y2537D01*
X1375Y2537D01*
X1376Y2537D01*
X1377Y2537D01*
X1378Y2537D01*
X1379Y2537D01*
X1380Y2537D01*
X1381Y2537D01*
X1382Y2537D01*
X1383Y2537D01*
X1384Y2537D01*
X1385Y2537D01*
X1386Y2537D01*
X1387Y2537D01*
X1388Y2537D01*
X1389Y2537D01*
X1390Y2537D01*
X1391Y2537D01*
X1392Y2537D01*
X1393Y2537D01*
X1394Y2537D01*
X1395Y2537D01*
X1396Y2537D01*
X1397Y2537D01*
X1398Y2537D01*
X1399Y2537D01*
X1400Y2537D01*
X1401Y2537D01*
X1402Y2537D01*
X1403Y2537D01*
X1404Y2537D01*
X1405Y2537D01*
X1406Y2537D01*
X1407Y2537D01*
X1408Y2537D01*
X1409Y2537D01*
X1410Y2537D01*
X1411Y2537D01*
X1412Y2537D01*
X1413Y2537D01*
X1414Y2537D01*
X1415Y2537D01*
X1416Y2537D01*
X1417Y2537D01*
X1418Y2537D01*
X1419Y2537D01*
X1420Y2537D01*
X1421Y2537D01*
X1422Y2537D01*
X1423Y2537D01*
X1424Y2537D01*
X1425Y2537D01*
X1426Y2537D01*
X1427Y2537D01*
X1428Y2537D01*
X1429Y2537D01*
X1430Y2537D01*
X1431Y2537D01*
X1432Y2537D01*
X1433Y2537D01*
X1434Y2537D01*
X1435Y2537D01*
X1436Y2537D01*
X1437Y2537D01*
X1438Y2537D01*
X1439Y2537D01*
X1440Y2537D01*
X1441Y2537D01*
X1442Y2537D01*
X1443Y2537D01*
X1444Y2537D01*
X1445Y2537D01*
X1446Y2537D01*
X1447Y2537D01*
X1448Y2537D01*
X1449Y2537D01*
X1450Y2537D01*
X1451Y2537D01*
X1452Y2537D01*
X1453Y2537D01*
X1454Y2537D01*
X1455Y2537D01*
X1456Y2537D01*
X1457Y2537D01*
X1458Y2537D01*
X1459Y2537D01*
X1460Y2537D01*
X1461Y2537D01*
X1462Y2537D01*
X1463Y2537D01*
X1464Y2537D01*
X1465Y2537D01*
X1466Y2537D01*
X1467Y2537D01*
X1468Y2537D01*
X1469Y2537D01*
X1470Y2537D01*
X1471Y2537D01*
X1472Y2537D01*
X1473Y2537D01*
X1474Y2537D01*
X1475Y2537D01*
X1476Y2537D01*
X1477Y2537D01*
X1478Y2537D01*
X1479Y2537D01*
X1480Y2537D01*
X1481Y2537D01*
X1482Y2537D01*
X1483Y2537D01*
X1484Y2537D01*
X1485Y2537D01*
X1486Y2537D01*
X1487Y2537D01*
X1488Y2537D01*
X1489Y2537D01*
X1490Y2537D01*
X1491Y2537D01*
X1492Y2537D01*
X1493Y2537D01*
X1494Y2537D01*
X1495Y2537D01*
X1496Y2537D01*
X1497Y2537D01*
X1498Y2537D01*
X1499Y2537D01*
X1500Y2537D01*
X1501Y2537D01*
X1502Y2537D01*
X1503Y2537D01*
X1504Y2537D01*
X1505Y2537D01*
X1506Y2537D01*
X1507Y2537D01*
X1508Y2537D01*
X1509Y2537D01*
X1510Y2537D01*
X1511Y2537D01*
X1512Y2537D01*
X1513Y2537D01*
X1514Y2537D01*
X1515Y2537D01*
X1516Y2537D01*
X1517Y2537D01*
X1518Y2537D01*
X1519Y2537D01*
X1520Y2537D01*
X1521Y2537D01*
X1522Y2537D01*
X1523Y2537D01*
X1524Y2537D01*
X1525Y2537D01*
X1526Y2537D01*
X1527Y2537D01*
X1528Y2537D01*
X1529Y2537D01*
X1530Y2537D01*
X1531Y2537D01*
X1532Y2537D01*
X1533Y2537D01*
X1534Y2537D01*
X1535Y2537D01*
X1536Y2537D01*
X1537Y2537D01*
X1538Y2537D01*
X1539Y2537D01*
X1540Y2537D01*
X1541Y2537D01*
X1542Y2537D01*
X1543Y2537D01*
X1544Y2537D01*
X1545Y2537D01*
X1546Y2537D01*
X1547Y2537D01*
X1548Y2537D01*
X1549Y2537D01*
X1550Y2537D01*
X1551Y2537D01*
X1552Y2537D01*
X1553Y2537D01*
X1554Y2537D01*
X1555Y2537D01*
X1556Y2537D01*
X1557Y2537D01*
X1558Y2537D01*
X1559Y2537D01*
X1560Y2537D01*
X1561Y2537D01*
X1562Y2537D01*
X1563Y2537D01*
X1564Y2537D01*
X1565Y2537D01*
X1566Y2537D01*
X1567Y2537D01*
X1568Y2537D01*
X1569Y2537D01*
X1570Y2537D01*
X1571Y2537D01*
X1572Y2537D01*
X1573Y2537D01*
X1574Y2537D01*
X1575Y2537D01*
X1576Y2537D01*
X1577Y2537D01*
X1578Y2537D01*
X1579Y2537D01*
X1580Y2537D01*
X1581Y2537D01*
X1582Y2537D01*
X1583Y2537D01*
X1584Y2537D01*
X1585Y2537D01*
X1586Y2537D01*
X1587Y2537D01*
X1588Y2537D01*
X1589Y2537D01*
X1590Y2537D01*
X1591Y2537D01*
X1592Y2537D01*
X1593Y2537D01*
X1594Y2537D01*
X1595Y2537D01*
X1596Y2537D01*
X1597Y2537D01*
X1598Y2537D01*
X1599Y2537D01*
X1600Y2537D01*
X1601Y2537D01*
X1602Y2537D01*
X1603Y2537D01*
X1604Y2537D01*
X1605Y2537D01*
X1606Y2537D01*
X1607Y2537D01*
X1608Y2537D01*
X1609Y2537D01*
X1610Y2537D01*
X1611Y2537D01*
X1612Y2537D01*
X1613Y2537D01*
X1614Y2537D01*
X1615Y2537D01*
X1616Y2537D01*
X1617Y2537D01*
X1618Y2537D01*
X1619Y2537D01*
X1620Y2537D01*
X1621Y2537D01*
X1622Y2537D01*
X1623Y2537D01*
X1624Y2537D01*
X1625Y2537D01*
X1626Y2537D01*
X1627Y2537D01*
X1628Y2537D01*
X1629Y2537D01*
X1630Y2537D01*
X1631Y2537D01*
X1632Y2537D01*
X1633Y2537D01*
X1634Y2537D01*
X1635Y2537D01*
X1636Y2537D01*
X1637Y2537D01*
X1638Y2537D01*
X1639Y2537D01*
X1640Y2537D01*
X1641Y2537D01*
X1642Y2537D01*
X1643Y2537D01*
X1644Y2537D01*
X1645Y2537D01*
X1646Y2537D01*
X1647Y2537D01*
X1648Y2537D01*
X1649Y2537D01*
X1650Y2537D01*
X1651Y2537D01*
X1652Y2537D01*
X1653Y2537D01*
X1654Y2537D01*
X1655Y2537D01*
X1656Y2537D01*
X1657Y2537D01*
X1658Y2537D01*
X1659Y2537D01*
X1660Y2537D01*
X1661Y2537D01*
X1662Y2537D01*
X1663Y2537D01*
X1664Y2537D01*
X1665Y2537D01*
X1666Y2537D01*
X1667Y2537D01*
X1668Y2537D01*
X1669Y2537D01*
X1670Y2537D01*
X1671Y2537D01*
X1672Y2537D01*
X1673Y2537D01*
X1674Y2537D01*
X1675Y2537D01*
X1676Y2537D01*
X1677Y2537D01*
X1678Y2537D01*
X1679Y2537D01*
X1680Y2537D01*
X1681Y2537D01*
X1682Y2537D01*
X1683Y2537D01*
X1684Y2537D01*
X1685Y2537D01*
X1686Y2537D01*
X1687Y2537D01*
X1688Y2537D01*
X1689Y2537D01*
X1690Y2537D01*
X1691Y2537D01*
X1692Y2537D01*
X1693Y2537D01*
X1694Y2537D01*
X1695Y2537D01*
X1696Y2537D01*
X1697Y2537D01*
X1698Y2537D01*
X1699Y2537D01*
X1700Y2537D01*
X1701Y2537D01*
X1702Y2537D01*
X1703Y2537D01*
X1704Y2537D01*
X1705Y2537D01*
X1706Y2537D01*
X1707Y2537D01*
X1708Y2537D01*
X1709Y2537D01*
X1710Y2537D01*
X1711Y2537D01*
X1712Y2537D01*
X1713Y2537D01*
X1714Y2537D01*
X1715Y2537D01*
X1716Y2537D01*
X1717Y2537D01*
X1718Y2537D01*
X1719Y2537D01*
X1720Y2537D01*
X1721Y2537D01*
X1722Y2537D01*
X1723Y2537D01*
X1724Y2537D01*
X1725Y2537D01*
X1726Y2537D01*
X1727Y2537D01*
X1728Y2537D01*
X1729Y2537D01*
X1730Y2537D01*
X1731Y2537D01*
X1732Y2537D01*
X1733Y2537D01*
X1734Y2537D01*
X1735Y2537D01*
X1736Y2537D01*
X1737Y2537D01*
X1738Y2537D01*
X1739Y2537D01*
X1740Y2537D01*
X1741Y2537D01*
X1742Y2537D01*
X1743Y2537D01*
X1744Y2537D01*
X1745Y2537D01*
X1746Y2537D01*
X1747Y2537D01*
X1748Y2537D01*
X1749Y2537D01*
X1750Y2537D01*
X1751Y2537D01*
X1752Y2537D01*
X1753Y2537D01*
X1754Y2537D01*
X1755Y2537D01*
X1756Y2537D01*
X1757Y2537D01*
X1758Y2537D01*
X1759Y2537D01*
X1760Y2537D01*
X1761Y2537D01*
X1762Y2537D01*
X1763Y2537D01*
X1764Y2537D01*
X1765Y2537D01*
X1766Y2537D01*
X1767Y2537D01*
X1768Y2537D01*
X1769Y2537D01*
X1770Y2537D01*
X1771Y2537D01*
X1772Y2537D01*
X1773Y2537D01*
X1774Y2537D01*
X1775Y2537D01*
X1776Y2537D01*
X1777Y2537D01*
X1778Y2537D01*
X1779Y2537D01*
X1780Y2537D01*
X1781Y2537D01*
X1782Y2537D01*
X1783Y2537D01*
X1784Y2537D01*
X1785Y2537D01*
X1786Y2537D01*
X1787Y2537D01*
X1788Y2537D01*
X1789Y2537D01*
X1790Y2537D01*
X1791Y2537D01*
X1792Y2537D01*
X1793Y2537D01*
X1794Y2537D01*
X1795Y2537D01*
X1796Y2537D01*
X1797Y2537D01*
X1798Y2537D01*
X1799Y2537D01*
X1800Y2537D01*
X1801Y2537D01*
X1802Y2537D01*
X1803Y2537D01*
X1804Y2537D01*
X1805Y2537D01*
X1806Y2537D01*
X1807Y2537D01*
X1808Y2537D01*
X1809Y2537D01*
X1810Y2537D01*
X1811Y2537D01*
X1812Y2537D01*
X1813Y2537D01*
X1814Y2537D01*
X1815Y2537D01*
X1816Y2537D01*
X1817Y2537D01*
X1818Y2537D01*
X1819Y2537D01*
X1820Y2537D01*
X1821Y2537D01*
X1822Y2537D01*
X1823Y2537D01*
X1824Y2537D01*
X1825Y2537D01*
X1826Y2537D01*
X1827Y2537D01*
X1828Y2537D01*
X1829Y2537D01*
X1830Y2537D01*
X1831Y2537D01*
X1832Y2537D01*
X1833Y2537D01*
X1834Y2537D01*
X1835Y2537D01*
X1836Y2537D01*
X1837Y2537D01*
X1838Y2537D01*
X1839Y2537D01*
X1840Y2537D01*
X1841Y2537D01*
X1842Y2537D01*
X1843Y2537D01*
X1844Y2537D01*
X1845Y2537D01*
X1846Y2537D01*
X1847Y2537D01*
X1848Y2537D01*
X1849Y2537D01*
X1850Y2537D01*
X1851Y2537D01*
X1852Y2537D01*
X1853Y2537D01*
X1854Y2537D01*
X1855Y2537D01*
X1856Y2537D01*
X1857Y2537D01*
X1858Y2537D01*
X1859Y2537D01*
X1860Y2537D01*
X1861Y2537D01*
X1862Y2537D01*
X1863Y2537D01*
X1864Y2537D01*
X1865Y2537D01*
X1866Y2537D01*
X1867Y2537D01*
X1868Y2537D01*
X1869Y2537D01*
X1870Y2537D01*
X1871Y2537D01*
X1872Y2537D01*
X1873Y2537D01*
X1874Y2537D01*
X1875Y2537D01*
X1876Y2537D01*
X1877Y2537D01*
X1878Y2537D01*
X1879Y2537D01*
X1880Y2537D01*
X1881Y2537D01*
X1882Y2537D01*
X1883Y2537D01*
X1884Y2537D01*
X1885Y2537D01*
X1886Y2537D01*
X1887Y2537D01*
X1888Y2537D01*
X1889Y2537D01*
X1890Y2537D01*
X1891Y2537D01*
X1892Y2537D01*
X1893Y2537D01*
X1894Y2537D01*
X1895Y2537D01*
X1896Y2537D01*
X1897Y2537D01*
X1898Y2537D01*
X1899Y2537D01*
X1900Y2537D01*
X1901Y2537D01*
X1902Y2537D01*
X1903Y2537D01*
X1904Y2537D01*
X1905Y2537D01*
X1906Y2537D01*
X1907Y2537D01*
X1908Y2537D01*
X1909Y2537D01*
X1910Y2537D01*
X1911Y2537D01*
X1912Y2537D01*
X1913Y2537D01*
X1914Y2537D01*
X1915Y2537D01*
X1916Y2537D01*
X1917Y2537D01*
X1918Y2537D01*
X1919Y2537D01*
X1920Y2537D01*
X1921Y2537D01*
X1922Y2537D01*
X1923Y2537D01*
X1924Y2537D01*
X1925Y2537D01*
X1926Y2537D01*
X1927Y2537D01*
X1928Y2537D01*
X1929Y2537D01*
X1930Y2537D01*
X1931Y2537D01*
X1932Y2537D01*
X1933Y2537D01*
X1934Y2537D01*
X1935Y2537D01*
X1936Y2537D01*
X1937Y2537D01*
X1938Y2537D01*
X1939Y2537D01*
X1940Y2537D01*
X1941Y2537D01*
X1942Y2537D01*
X1943Y2537D01*
X1944Y2537D01*
X1945Y2537D01*
X1946Y2537D01*
X1947Y2537D01*
X1948Y2537D01*
X1949Y2537D01*
X1950Y2537D01*
X1951Y2537D01*
X1952Y2537D01*
X1953Y2537D01*
X1954Y2537D01*
X1955Y2537D01*
X1956Y2537D01*
X1957Y2537D01*
X1958Y2537D01*
X1959Y2537D01*
X1960Y2537D01*
X1961Y2537D01*
X1962Y2537D01*
X1963Y2537D01*
X1964Y2537D01*
X1965Y2537D01*
X1966Y2537D01*
X1967Y2537D01*
X1968Y2537D01*
X1969Y2537D01*
X1970Y2537D01*
X1971Y2537D01*
X1972Y2537D01*
X1973Y2537D01*
X1974Y2537D01*
X1975Y2537D01*
X1976Y2537D01*
X1977Y2537D01*
X1978Y2537D01*
X1979Y2537D01*
X1980Y2537D01*
X1981Y2537D01*
X1982Y2537D01*
X1983Y2537D01*
X1984Y2537D01*
X1985Y2537D01*
X1986Y2537D01*
X1987Y2537D01*
X1988Y2537D01*
X1989Y2537D01*
X1990Y2537D01*
X1991Y2537D01*
X1992Y2537D01*
X1993Y2537D01*
X1994Y2537D01*
X1995Y2537D01*
X1996Y2537D01*
X1997Y2537D01*
X1998Y2537D01*
X1999Y2537D01*
X2000Y2537D01*
X2001Y2537D01*
X2002Y2537D01*
X2003Y2537D01*
X2004Y2537D01*
X2005Y2537D01*
X2006Y2537D01*
X2007Y2537D01*
X2008Y2537D01*
X2009Y2537D01*
X2010Y2537D01*
X2011Y2537D01*
X2012Y2537D01*
X2013Y2537D01*
X2014Y2537D01*
X2015Y2537D01*
X2016Y2537D01*
X2017Y2537D01*
X2018Y2537D01*
X2019Y2537D01*
X2020Y2537D01*
X2021Y2537D01*
X2022Y2537D01*
X2023Y2537D01*
X2024Y2537D01*
X2025Y2537D01*
X2026Y2537D01*
X2027Y2537D01*
X2028Y2537D01*
X2029Y2537D01*
X2030Y2537D01*
X2031Y2537D01*
X2032Y2537D01*
X2033Y2537D01*
X2034Y2537D01*
X2035Y2537D01*
X2036Y2537D01*
X2037Y2537D01*
X2038Y2537D01*
X2039Y2537D01*
X2040Y2537D01*
X2041Y2537D01*
X2042Y2537D01*
X2043Y2537D01*
X2044Y2537D01*
X2045Y2537D01*
X2046Y2537D01*
X2047Y2537D01*
X2048Y2537D01*
X2049Y2537D01*
X2050Y2537D01*
X2051Y2537D01*
X2052Y2537D01*
X2053Y2537D01*
X2054Y2537D01*
X2055Y2537D01*
X2056Y2537D01*
X2057Y2537D01*
X2058Y2537D01*
X2059Y2537D01*
X2060Y2537D01*
X2061Y2537D01*
X2062Y2537D01*
X2063Y2537D01*
X2064Y2537D01*
X2065Y2537D01*
X2066Y2537D01*
X2067Y2537D01*
X2068Y2537D01*
X2069Y2537D01*
X2070Y2537D01*
X2071Y2537D01*
X2072Y2537D01*
X2073Y2537D01*
X2074Y2537D01*
X2075Y2537D01*
X2076Y2537D01*
X2077Y2537D01*
X2078Y2537D01*
X2079Y2537D01*
X2080Y2537D01*
X2081Y2537D01*
X2082Y2537D01*
X2083Y2537D01*
X2084Y2537D01*
X2085Y2537D01*
X2086Y2537D01*
X2087Y2537D01*
X2088Y2537D01*
X2089Y2537D01*
X2090Y2537D01*
X2091Y2537D01*
X2092Y2537D01*
X2093Y2537D01*
X2094Y2537D01*
X2095Y2537D01*
X2096Y2537D01*
X2097Y2537D01*
X2098Y2537D01*
X2099Y2537D01*
X2100Y2537D01*
X2101Y2537D01*
X2102Y2537D01*
X2103Y2537D01*
X2104Y2537D01*
X2105Y2537D01*
X2106Y2537D01*
X2107Y2537D01*
X2108Y2537D01*
X2109Y2537D01*
X2110Y2537D01*
X2111Y2537D01*
X2112Y2537D01*
X2113Y2537D01*
X2114Y2537D01*
X2115Y2537D01*
X2116Y2537D01*
X2117Y2537D01*
X2118Y2537D01*
X2119Y2537D01*
X2120Y2537D01*
X2121Y2537D01*
X2122Y2537D01*
X2123Y2537D01*
X2124Y2537D01*
X2125Y2537D01*
X2126Y2537D01*
X2127Y2537D01*
X2128Y2537D01*
X2129Y2537D01*
X2130Y2537D01*
X2131Y2537D01*
X2132Y2537D01*
X2133Y2537D01*
X2134Y2537D01*
X2135Y2537D01*
X2136Y2537D01*
X2137Y2537D01*
X2138Y2537D01*
X2139Y2537D01*
X2140Y2537D01*
X2141Y2537D01*
X2142Y2537D01*
X2143Y2537D01*
X2144Y2537D01*
X2145Y2537D01*
X2146Y2537D01*
X2147Y2537D01*
X2148Y2537D01*
X2149Y2537D01*
X2150Y2537D01*
X2151Y2537D01*
X2152Y2537D01*
X2153Y2537D01*
X2154Y2537D01*
X2155Y2537D01*
X2156Y2537D01*
X2157Y2537D01*
X2158Y2537D01*
X2159Y2537D01*
X2160Y2537D01*
X2161Y2537D01*
X2162Y2537D01*
X2163Y2537D01*
X2164Y2537D01*
X2165Y2537D01*
X2166Y2537D01*
X2167Y2537D01*
X2168Y2537D01*
X2169Y2537D01*
X2170Y2537D01*
X2171Y2537D01*
X2172Y2537D01*
X2173Y2537D01*
X2174Y2537D01*
X2175Y2537D01*
X2176Y2537D01*
X2177Y2537D01*
X2178Y2537D01*
X2179Y2537D01*
X2180Y2537D01*
X2181Y2537D01*
X2182Y2537D01*
X2183Y2537D01*
X2184Y2537D01*
X2185Y2537D01*
X2186Y2537D01*
X2187Y2537D01*
X2188Y2537D01*
X2189Y2537D01*
X2190Y2537D01*
X2191Y2537D01*
X2192Y2537D01*
X2193Y2537D01*
X2194Y2537D01*
X2195Y2537D01*
X2196Y2537D01*
X2197Y2537D01*
X2198Y2537D01*
X2199Y2537D01*
X2200Y2537D01*
X2201Y2537D01*
X2202Y2537D01*
X2203Y2537D01*
X2204Y2537D01*
X2205Y2537D01*
X2206Y2537D01*
X2207Y2537D01*
X2208Y2537D01*
X2209Y2537D01*
X2210Y2537D01*
X2211Y2537D01*
X2212Y2537D01*
X2213Y2537D01*
X2214Y2537D01*
X2215Y2537D01*
X2216Y2537D01*
X2217Y2537D01*
X2218Y2537D01*
X2219Y2537D01*
X2220Y2537D01*
X2221Y2537D01*
X2222Y2537D01*
X2223Y2537D01*
X2224Y2537D01*
X2225Y2537D01*
X2226Y2537D01*
X2227Y2537D01*
X2228Y2537D01*
X2229Y2537D01*
X2230Y2537D01*
X2231Y2537D01*
X2232Y2537D01*
X2233Y2537D01*
X2234Y2537D01*
X2235Y2537D01*
X2236Y2537D01*
X2237Y2537D01*
X2238Y2537D01*
X2239Y2537D01*
X2240Y2537D01*
X2241Y2537D01*
X2242Y2537D01*
X2243Y2537D01*
X2244Y2537D01*
X2245Y2537D01*
X2246Y2537D01*
X2247Y2537D01*
X2248Y2537D01*
X2249Y2537D01*
X2250Y2537D01*
X2251Y2537D01*
X2252Y2537D01*
X2253Y2537D01*
X2254Y2537D01*
X2255Y2537D01*
X2256Y2537D01*
X2257Y2537D01*
X2258Y2537D01*
X2259Y2537D01*
X2260Y2537D01*
X2261Y2537D01*
X2262Y2537D01*
X2263Y2537D01*
X2264Y2537D01*
X2265Y2537D01*
X2266Y2537D01*
X2267Y2537D01*
X2268Y2537D01*
X2269Y2537D01*
X2270Y2537D01*
X2271Y2537D01*
X2272Y2537D01*
X2273Y2537D01*
X2274Y2537D01*
X2275Y2537D01*
X2276Y2537D01*
X2277Y2537D01*
X2278Y2537D01*
X2279Y2537D01*
X2280Y2537D01*
X2281Y2537D01*
X2282Y2537D01*
X2283Y2537D01*
X2284Y2537D01*
X2285Y2537D01*
X2286Y2537D01*
X2287Y2537D01*
X2288Y2537D01*
X2289Y2537D01*
X2290Y2537D01*
X2291Y2537D01*
X2292Y2537D01*
X2293Y2537D01*
X2294Y2537D01*
X2295Y2537D01*
X2296Y2537D01*
X2297Y2537D01*
X2298Y2537D01*
X2299Y2537D01*
X2300Y2537D01*
X2301Y2537D01*
X2302Y2537D01*
X2303Y2537D01*
X2304Y2537D01*
X2305Y2537D01*
X2306Y2537D01*
X2307Y2537D01*
X2308Y2537D01*
X2309Y2537D01*
X2310Y2537D01*
X2311Y2537D01*
X2312Y2537D01*
X2313Y2537D01*
X2314Y2537D01*
X2315Y2537D01*
X2316Y2537D01*
X2317Y2537D01*
X2318Y2537D01*
X2319Y2537D01*
X2320Y2537D01*
X2321Y2537D01*
X2322Y2537D01*
X2323Y2537D01*
X2324Y2537D01*
X2325Y2537D01*
X2326Y2537D01*
X2327Y2537D01*
X2328Y2537D01*
X2329Y2537D01*
X2330Y2537D01*
X2331Y2537D01*
X2332Y2537D01*
X2333Y2537D01*
X2334Y2537D01*
X2335Y2537D01*
X2336Y2537D01*
X2337Y2537D01*
X2338Y2537D01*
X2339Y2537D01*
X2340Y2537D01*
X2341Y2537D01*
X2342Y2537D01*
X2343Y2537D01*
X2344Y2537D01*
X2345Y2537D01*
X2346Y2537D01*
X2347Y2537D01*
X2348Y2537D01*
X2349Y2537D01*
X2350Y2537D01*
X2351Y2537D01*
X2352Y2537D01*
X2353Y2537D01*
X2354Y2537D01*
X2355Y2537D01*
X2356Y2537D01*
X2357Y2537D01*
X2358Y2537D01*
X2359Y2537D01*
X2360Y2537D01*
X2361Y2537D01*
X2362Y2537D01*
X2363Y2537D01*
X2364Y2537D01*
X2365Y2537D01*
X2366Y2537D01*
X2367Y2537D01*
X2368Y2537D01*
X2369Y2537D01*
X2370Y2537D01*
X2371Y2537D01*
X2372Y2537D01*
X2373Y2537D01*
X2374Y2537D01*
X2375Y2537D01*
X2376Y2537D01*
X2377Y2537D01*
X2378Y2537D01*
X2379Y2537D01*
X2380Y2537D01*
X2381Y2537D01*
X2382Y2537D01*
X2383Y2537D01*
X2384Y2537D01*
X2385Y2537D01*
X2386Y2537D01*
X2387Y2537D01*
X2388Y2537D01*
X2389Y2537D01*
X2390Y2537D01*
X2391Y2537D01*
X2392Y2537D01*
X2393Y2537D01*
X2394Y2537D01*
X2395Y2537D01*
X2396Y2537D01*
X2397Y2537D01*
X2398Y2537D01*
X2399Y2537D01*
X2400Y2537D01*
X2401Y2537D01*
X2402Y2537D01*
X2403Y2537D01*
X2404Y2537D01*
X2405Y2537D01*
X2406Y2537D01*
X2407Y2537D01*
X2408Y2537D01*
X2409Y2537D01*
X2410Y2537D01*
X2411Y2537D01*
X2412Y2537D01*
X2413Y2537D01*
X2414Y2537D01*
X2415Y2537D01*
X2416Y2537D01*
X2417Y2537D01*
X2418Y2537D01*
X2419Y2537D01*
X2420Y2537D01*
X2421Y2537D01*
X2422Y2537D01*
X2423Y2537D01*
X2424Y2537D01*
X2425Y2537D01*
X2426Y2537D01*
X2427Y2537D01*
X2428Y2537D01*
X2429Y2537D01*
X2430Y2537D01*
X2431Y2537D01*
X2432Y2537D01*
X2433Y2537D01*
X2434Y2537D01*
X2435Y2537D01*
X2436Y2537D01*
X2437Y2537D01*
X2438Y2537D01*
X2439Y2537D01*
X2440Y2537D01*
X2441Y2537D01*
X2442Y2537D01*
X2443Y2537D01*
X2444Y2537D01*
X2445Y2537D01*
X2446Y2537D01*
X2447Y2537D01*
X2448Y2537D01*
X2449Y2537D01*
X2450Y2537D01*
X2451Y2537D01*
X2452Y2537D01*
X2453Y2537D01*
X2454Y2537D01*
X2455Y2537D01*
X2456Y2537D01*
X2457Y2537D01*
X2458Y2537D01*
X2459Y2537D01*
X2460Y2537D01*
X2461Y2537D01*
X2462Y2537D01*
X2463Y2537D01*
X2464Y2537D01*
X2465Y2537D01*
X2466Y2537D01*
X2467Y2537D01*
X2468Y2537D01*
X2469Y2537D01*
X2470Y2537D01*
X2471Y2537D01*
X2472Y2537D01*
X2473Y2537D01*
X2474Y2537D01*
X2475Y2537D01*
X2476Y2537D01*
X2477Y2537D01*
X2478Y2537D01*
X2479Y2537D01*
X2480Y2537D01*
X2481Y2537D01*
X2482Y2537D01*
X2483Y2537D01*
X2484Y2537D01*
X2485Y2537D01*
X2486Y2537D01*
X2487Y2537D01*
X2488Y2537D01*
X2489Y2537D01*
X2490Y2537D01*
X2491Y2537D01*
X2492Y2537D01*
X2493Y2537D01*
X2494Y2537D01*
X2495Y2537D01*
X2496Y2537D01*
X2497Y2537D01*
X2498Y2537D01*
X2499Y2537D01*
X2500Y2537D01*
X2501Y2537D01*
X2502Y2537D01*
X2503Y2537D01*
X2504Y2537D01*
X2505Y2537D01*
X2506Y2537D01*
X2507Y2537D01*
X2508Y2537D01*
X2509Y2537D01*
X2510Y2537D01*
X2511Y2537D01*
X2512Y2537D01*
X2513Y2537D01*
X2514Y2537D01*
X2515Y2537D01*
X2516Y2537D01*
X2517Y2537D01*
X2518Y2537D01*
X2519Y2537D01*
X2520Y2537D01*
X2521Y2537D01*
X2522Y2537D01*
X2523Y2537D01*
X2524Y2537D01*
X2525Y2537D01*
X2526Y2537D01*
X2527Y2537D01*
X2528Y2537D01*
X2529Y2537D01*
X2530Y2537D01*
X2531Y2537D01*
X2532Y2537D01*
X2533Y2537D01*
X2534Y2537D01*
X2535Y2537D01*
X2536Y2537D01*
X2537Y2537D01*
X2538Y2537D01*
X2539Y2537D01*
X2540Y2537D01*
X2541Y2537D01*
X2542Y2537D01*
X2543Y2537D01*
X2544Y2537D01*
X2545Y2537D01*
X2546Y2537D01*
X2547Y2537D01*
X2548Y2537D01*
X2549Y2537D01*
X2550Y2537D01*
X2551Y2537D01*
X2552Y2537D01*
X2553Y2537D01*
X2554Y2537D01*
X2555Y2537D01*
X2556Y2537D01*
X2557Y2537D01*
X2558Y2537D01*
X2559Y2537D01*
X2560Y2537D01*
X2561Y2537D01*
X2562Y2537D01*
X2563Y2537D01*
X2564Y2537D01*
X2565Y2537D01*
X2566Y2537D01*
X2567Y2537D01*
X2568Y2537D01*
X2569Y2537D01*
X2570Y2537D01*
X2571Y2537D01*
X2572Y2537D01*
X2573Y2537D01*
X2574Y2537D01*
X2575Y2537D01*
X2576Y2537D01*
X2577Y2537D01*
X2578Y2537D01*
X2579Y2537D01*
X2580Y2537D01*
X2581Y2537D01*
X2582Y2537D01*
X2583Y2537D01*
X2584Y2537D01*
X2585Y2537D01*
X2586Y2537D01*
X2587Y2537D01*
X2588Y2537D01*
X2589Y2537D01*
X2590Y2537D01*
X2591Y2537D01*
X2592Y2537D01*
X2593Y2537D01*
X2594Y2537D01*
X2595Y2537D01*
X2596Y2537D01*
X2597Y2537D01*
X2598Y2537D01*
X2599Y2537D01*
X2600Y2537D01*
X2601Y2537D01*
X2602Y2537D01*
X2603Y2537D01*
X2604Y2537D01*
X2605Y2537D01*
X2606Y2537D01*
X2607Y2537D01*
X2608Y2537D01*
X2609Y2537D01*
X2610Y2537D01*
X2611Y2537D01*
X2612Y2537D01*
X2613Y2537D01*
X2614Y2537D01*
X2615Y2537D01*
X2616Y2537D01*
X2617Y2537D01*
X2618Y2537D01*
X2619Y2537D01*
X2620Y2537D01*
X2621Y2537D01*
X2622Y2537D01*
X2623Y2537D01*
X2624Y2537D01*
X2625Y2537D01*
X2626Y2537D01*
X2627Y2537D01*
X2628Y2537D01*
X2629Y2537D01*
X2630Y2537D01*
X2631Y2537D01*
X2632Y2537D01*
X2633Y2537D01*
X2634Y2537D01*
X2635Y2537D01*
X2636Y2537D01*
X2637Y2537D01*
X2638Y2537D01*
X2639Y2537D01*
X2640Y2537D01*
X2641Y2537D01*
X2642Y2537D01*
X2643Y2537D01*
X2644Y2537D01*
X2645Y2537D01*
X2646Y2537D01*
X2647Y2537D01*
X2648Y2537D01*
X2649Y2537D01*
X2650Y2537D01*
X2651Y2537D01*
X2652Y2537D01*
X2653Y2537D01*
X2654Y2537D01*
X2655Y2537D01*
X2656Y2537D01*
X2657Y2537D01*
X2658Y2537D01*
X2659Y2537D01*
X2660Y2537D01*
X2661Y2537D01*
X2662Y2537D01*
X2663Y2537D01*
X2664Y2537D01*
X2665Y2537D01*
X2666Y2537D01*
X2667Y2537D01*
X2668Y2537D01*
X2669Y2537D01*
X2670Y2537D01*
X2671Y2537D01*
X2672Y2537D01*
X2673Y2537D01*
X2674Y2537D01*
X2675Y2537D01*
X2676Y2537D01*
X2677Y2537D01*
X2678Y2537D01*
X2679Y2537D01*
X2680Y2537D01*
X2681Y2537D01*
X2682Y2537D01*
X2683Y2537D01*
X2684Y2537D01*
X2685Y2537D01*
X2686Y2537D01*
X2687Y2537D01*
X2688Y2537D01*
X2689Y2537D01*
X2690Y2537D01*
X2691Y2537D01*
X2692Y2537D01*
X2693Y2537D01*
X2694Y2537D01*
X2695Y2537D01*
X2696Y2537D01*
X2697Y2537D01*
X2698Y2537D01*
X2699Y2537D01*
X2700Y2537D01*
X2701Y2537D01*
X2702Y2537D01*
X2703Y2537D01*
X2704Y2537D01*
X2705Y2537D01*
X2706Y2537D01*
X2707Y2537D01*
X2708Y2537D01*
X2709Y2537D01*
X2710Y2537D01*
X2711Y2537D01*
X2712Y2537D01*
X2713Y2537D01*
X2714Y2537D01*
X2715Y2537D01*
X2716Y2537D01*
X2717Y2537D01*
X2718Y2537D01*
X2719Y2537D01*
X2720Y2537D01*
X2721Y2537D01*
X2722Y2537D01*
X2723Y2537D01*
X2724Y2537D01*
X2725Y2537D01*
X2726Y2537D01*
X2727Y2537D01*
X2728Y2537D01*
X2729Y2537D01*
X2730Y2537D01*
X2731Y2537D01*
X2732Y2537D01*
X2733Y2537D01*
X2734Y2537D01*
X2735Y2537D01*
X2736Y2537D01*
X2737Y2537D01*
X2738Y2537D01*
X2739Y2537D01*
X2740Y2537D01*
X2741Y2537D01*
X2742Y2537D01*
X2743Y2537D01*
X2744Y2537D01*
X2745Y2537D01*
X2746Y2537D01*
X2747Y2537D01*
X2748Y2537D01*
X2749Y2537D01*
X2750Y2537D01*
X2751Y2537D01*
X2752Y2537D01*
X2753Y2537D01*
X2754Y2537D01*
X2755Y2537D01*
X2756Y2537D01*
X2757Y2537D01*
X2758Y2537D01*
X2759Y2537D01*
X2760Y2537D01*
X2761Y2537D01*
X2762Y2537D01*
X2763Y2537D01*
X2764Y2537D01*
X2765Y2537D01*
X2766Y2537D01*
X2767Y2537D01*
X2768Y2537D01*
X2769Y2537D01*
X2770Y2537D01*
X2771Y2537D01*
X2772Y2537D01*
X2773Y2537D01*
X2774Y2537D01*
X2775Y2537D01*
X2776Y2537D01*
X2777Y2537D01*
X2778Y2537D01*
X2779Y2537D01*
X2780Y2537D01*
X2781Y2537D01*
X2782Y2537D01*
X2783Y2537D01*
X2784Y2537D01*
X2785Y2537D01*
X2786Y2537D01*
X2787Y2537D01*
X2788Y2537D01*
X2789Y2537D01*
X2790Y2537D01*
X2791Y2537D01*
X2792Y2537D01*
X2793Y2537D01*
X2794Y2537D01*
X2795Y2537D01*
X2796Y2537D01*
X2797Y2537D01*
X2798Y2537D01*
X2799Y2537D01*
X2800Y2537D01*
X2801Y2537D01*
X2802Y2537D01*
X2803Y2537D01*
X2804Y2537D01*
X2805Y2537D01*
X2806Y2537D01*
X2807Y2537D01*
X2808Y2537D01*
X2809Y2537D01*
X2810Y2537D01*
X2811Y2537D01*
X2812Y2537D01*
X2813Y2537D01*
X2814Y2537D01*
X2815Y2537D01*
X2816Y2537D01*
X2817Y2537D01*
X2818Y2537D01*
X2819Y2537D01*
X2820Y2537D01*
X2821Y2537D01*
X2822Y2537D01*
X2823Y2537D01*
X2824Y2537D01*
X2825Y2537D01*
X2826Y2537D01*
X2827Y2537D01*
X2828Y2537D01*
X2829Y2537D01*
X2830Y2537D01*
X2831Y2537D01*
X2832Y2537D01*
X2833Y2537D01*
X2834Y2537D01*
X2835Y2537D01*
X2836Y2537D01*
X2837Y2537D01*
X2838Y2537D01*
X2839Y2537D01*
X2840Y2537D01*
X2841Y2537D01*
X2842Y2537D01*
X2843Y2537D01*
X2844Y2537D01*
X2845Y2537D01*
X2846Y2537D01*
X2847Y2537D01*
X2848Y2537D01*
X2849Y2537D01*
X2850Y2537D01*
X2851Y2537D01*
X2852Y2537D01*
X2853Y2537D01*
X2854Y2537D01*
X2855Y2537D01*
X2856Y2537D01*
X2857Y2537D01*
X2858Y2537D01*
X2859Y2537D01*
X2860Y2537D01*
X2861Y2537D01*
X2862Y2537D01*
X2863Y2537D01*
X2864Y2537D01*
X2865Y2537D01*
X2866Y2537D01*
X2867Y2537D01*
X2868Y2537D01*
X2869Y2537D01*
X2870Y2537D01*
X2871Y2537D01*
X2872Y2537D01*
X2873Y2537D01*
X2874Y2537D01*
X2875Y2537D01*
X2876Y2537D01*
X2877Y2537D01*
X2878Y2537D01*
X2879Y2537D01*
X2880Y2537D01*
X2881Y2537D01*
X2882Y2537D01*
X2883Y2537D01*
X2884Y2537D01*
X2885Y2537D01*
X2886Y2537D01*
X2887Y2537D01*
X2888Y2537D01*
X2889Y2537D01*
X2890Y2537D01*
X2891Y2537D01*
X2892Y2537D01*
X2893Y2537D01*
X2894Y2537D01*
X2895Y2537D01*
X2896Y2537D01*
X2897Y2537D01*
X2898Y2537D01*
X2899Y2537D01*
X2900Y2537D01*
X2901Y2537D01*
X2902Y2537D01*
X2903Y2537D01*
X2904Y2537D01*
X2905Y2537D01*
X2906Y2537D01*
X2907Y2537D01*
X2908Y2537D01*
X2909Y2537D01*
X2910Y2537D01*
X2911Y2537D01*
X2912Y2537D01*
X2913Y2537D01*
X2914Y2537D01*
X2915Y2537D01*
X2916Y2537D01*
X2917Y2537D01*
X2918Y2537D01*
X2919Y2537D01*
X2920Y2537D01*
X2921Y2537D01*
X2922Y2537D01*
X2923Y2537D01*
X2924Y2537D01*
X2925Y2537D01*
X2926Y2537D01*
X2927Y2537D01*
X2928Y2537D01*
X2929Y2537D01*
X2930Y2537D01*
X2931Y2537D01*
X2932Y2537D01*
X2933Y2537D01*
X2934Y2537D01*
X2935Y2537D01*
X2936Y2537D01*
X2937Y2537D01*
X2938Y2537D01*
X2939Y2537D01*
X2940Y2537D01*
X2941Y2537D01*
X2942Y2537D01*
X2943Y2537D01*
X2944Y2537D01*
X2945Y2537D01*
X2946Y2537D01*
X2947Y2537D01*
X2948Y2537D01*
X2949Y2537D01*
X2950Y2537D01*
X2951Y2537D01*
X2952Y2537D01*
X2953Y2537D01*
X2954Y2537D01*
X2955Y2537D01*
X2956Y2537D01*
X2957Y2537D01*
X2958Y2537D01*
X2959Y2537D01*
X2960Y2537D01*
X2961Y2537D01*
X2962Y2537D01*
X2963Y2537D01*
X2964Y2537D01*
X2965Y2537D01*
X2966Y2537D01*
X2967Y2537D01*
X2968Y2537D01*
X2969Y2537D01*
X2970Y2537D01*
X2971Y2537D01*
X2972Y2537D01*
X2973Y2537D01*
X2974Y2537D01*
X2975Y2537D01*
X2976Y2537D01*
X2977Y2537D01*
X2978Y2537D01*
X2979Y2537D01*
X2980Y2537D01*
X2981Y2537D01*
X2982Y2537D01*
X2983Y2537D01*
X2984Y2537D01*
X2985Y2537D01*
X2986Y2537D01*
X2987Y2537D01*
X2988Y2537D01*
X2989Y2537D01*
X2990Y2537D01*
X2991Y2537D01*
X2992Y2537D01*
X2993Y2537D01*
X2994Y2537D01*
X2995Y2537D01*
X2996Y2537D01*
X2997Y2537D01*
X2998Y2537D01*
X2999Y2537D01*
X3000Y2537D01*
X3001Y2537D01*
X3002Y2537D01*
X3003Y2537D01*
X3004Y2537D01*
X3005Y2537D01*
X3006Y2537D01*
X3007Y2537D01*
X3008Y2537D01*
X3009Y2537D01*
X3010Y2537D01*
X3011Y2537D01*
X3012Y2537D01*
X3013Y2537D01*
X3014Y2537D01*
X3015Y2537D01*
X3016Y2537D01*
X3017Y2537D01*
X3018Y2537D01*
X3019Y2537D01*
X3020Y2537D01*
X3021Y2537D01*
X3022Y2537D01*
X3023Y2537D01*
X3024Y2537D01*
X3025Y2537D01*
X3026Y2537D01*
X3027Y2537D01*
X3028Y2537D01*
X3029Y2537D01*
X3030Y2537D01*
X3031Y2537D01*
X3032Y2537D01*
X3033Y2537D01*
X3034Y2537D01*
X3035Y2537D01*
X3036Y2537D01*
X3037Y2537D01*
X3038Y2537D01*
X3039Y2537D01*
X3040Y2537D01*
X3041Y2537D01*
X3042Y2537D01*
X3043Y2537D01*
X3044Y2537D01*
X3045Y2537D01*
X3046Y2537D01*
X3047Y2537D01*
X3048Y2537D01*
X3049Y2537D01*
X3050Y2537D01*
X3051Y2537D01*
X3052Y2537D01*
X3053Y2537D01*
X3054Y2537D01*
X3055Y2537D01*
X3056Y2537D01*
X3057Y2537D01*
X3058Y2537D01*
X3059Y2537D01*
X3060Y2537D01*
X3061Y2537D01*
X3062Y2537D01*
X3063Y2537D01*
X3064Y2537D01*
X3065Y2537D01*
X3066Y2537D01*
X3067Y2537D01*
X3068Y2537D01*
X3069Y2537D01*
X3070Y2537D01*
X3071Y2537D01*
X3072Y2537D01*
X3073Y2537D01*
X3074Y2537D01*
X3075Y2537D01*
X3076Y2537D01*
X3077Y2537D01*
X3078Y2537D01*
X3079Y2537D01*
X3080Y2537D01*
X3081Y2537D01*
X3082Y2537D01*
X3083Y2537D01*
X3084Y2537D01*
X3085Y2537D01*
X3086Y2537D01*
X3087Y2537D01*
X3088Y2537D01*
X3089Y2537D01*
X3090Y2537D01*
X3091Y2537D01*
X3092Y2537D01*
X3093Y2537D01*
X3094Y2537D01*
X3095Y2537D01*
X3096Y2537D01*
X3097Y2537D01*
X3098Y2537D01*
X3099Y2537D01*
X3100Y2537D01*
X3101Y2537D01*
X3102Y2537D01*
X3103Y2537D01*
X3104Y2537D01*
X3105Y2537D01*
X3106Y2537D01*
X3107Y2537D01*
X3108Y2537D01*
X3109Y2537D01*
X3110Y2537D01*
X3111Y2537D01*
X3112Y2537D01*
X3113Y2537D01*
X3114Y2537D01*
X3115Y2537D01*
X3116Y2537D01*
X3117Y2537D01*
X3118Y2537D01*
X3119Y2537D01*
X3120Y2537D01*
X3121Y2537D01*
X3122Y2537D01*
X3123Y2537D01*
X3124Y2537D01*
X3125Y2537D01*
X3126Y2537D01*
X3127Y2537D01*
X3128Y2537D01*
X3129Y2537D01*
X3130Y2537D01*
X3131Y2537D01*
X3132Y2537D01*
X3133Y2537D01*
X3134Y2537D01*
X3135Y2537D01*
X3136Y2537D01*
X3137Y2537D01*
X3138Y2537D01*
X3139Y2537D01*
X3140Y2537D01*
X3141Y2537D01*
X3142Y2537D01*
X3143Y2537D01*
X3144Y2537D01*
X3145Y2537D01*
X3146Y2537D01*
X3147Y2537D01*
X3148Y2537D01*
X3149Y2537D01*
X3150Y2537D01*
X3151Y2537D01*
X3152Y2537D01*
X3153Y2537D01*
X3154Y2537D01*
X3155Y2537D01*
X3156Y2537D01*
X3157Y2537D01*
X3158Y2537D01*
X3159Y2537D01*
X3160Y2537D01*
X3161Y2537D01*
X3162Y2537D01*
X3163Y2537D01*
X3164Y2537D01*
X3165Y2537D01*
X3166Y2537D01*
X3167Y2537D01*
X3168Y2537D01*
X3169Y2537D01*
X3170Y2537D01*
X3171Y2537D01*
X3172Y2537D01*
X3173Y2537D01*
X3174Y2537D01*
X3175Y2537D01*
X3176Y2537D01*
X3177Y2537D01*
X3178Y2537D01*
X3179Y2537D01*
X3180Y2537D01*
X3181Y2537D01*
X3182Y2537D01*
X3183Y2537D01*
X3184Y2537D01*
X3185Y2537D01*
X3186Y2537D01*
X3187Y2537D01*
X3188Y2537D01*
X3189Y2537D01*
X3190Y2537D01*
X3191Y2537D01*
X3192Y2537D01*
X3193Y2537D01*
X3194Y2537D01*
X3195Y2537D01*
X3196Y2537D01*
X3197Y2537D01*
X3198Y2537D01*
X3199Y2537D01*
X3200Y2537D01*
X3201Y2537D01*
X3202Y2537D01*
X3203Y2537D01*
X3204Y2537D01*
X3205Y2537D01*
X3206Y2537D01*
X3207Y2537D01*
X3208Y2537D01*
X3209Y2537D01*
X3210Y2537D01*
X3211Y2537D01*
X3212Y2537D01*
X3213Y2537D01*
X3214Y2537D01*
X3215Y2537D01*
X3216Y2537D01*
X3217Y2537D01*
X3218Y2537D01*
X3219Y2537D01*
X3220Y2537D01*
X3221Y2537D01*
X3222Y2537D01*
X3223Y2537D01*
X3224Y2537D01*
X3225Y2537D01*
X3226Y2537D01*
X3227Y2537D01*
X3228Y2537D01*
X3229Y2537D01*
X3230Y2537D01*
X3231Y2537D01*
X3232Y2537D01*
X3233Y2537D01*
X3234Y2537D01*
X3235Y2537D01*
X3236Y2537D01*
X3237Y2537D01*
X3238Y2537D01*
X3239Y2537D01*
X3240Y2537D01*
X3241Y2537D01*
X3242Y2537D01*
X3243Y2537D01*
X3244Y2537D01*
X3245Y2537D01*
X3246Y2537D01*
X3247Y2537D01*
X3248Y2537D01*
X3249Y2537D01*
X3250Y2537D01*
X3251Y2537D01*
X3252Y2537D01*
X3253Y2537D01*
X3254Y2537D01*
X3255Y2537D01*
X3256Y2537D01*
X3257Y2537D01*
X3258Y2537D01*
X3259Y2537D01*
X3260Y2537D01*
X3261Y2537D01*
X3262Y2537D01*
X3263Y2537D01*
X3264Y2537D01*
X3265Y2537D01*
X3266Y2537D01*
X3267Y2537D01*
X3268Y2537D01*
X3269Y2537D01*
X3270Y2537D01*
X3271Y2537D01*
X3272Y2537D01*
X3273Y2537D01*
X3274Y2537D01*
X3275Y2537D01*
X3276Y2537D01*
X3277Y2537D01*
X3278Y2537D01*
X3279Y2537D01*
X3280Y2537D01*
X3281Y2537D01*
X3282Y2537D01*
X3283Y2537D01*
X3284Y2537D01*
X3285Y2537D01*
X3286Y2537D01*
X3287Y2537D01*
X3288Y2537D01*
X3289Y2537D01*
X3290Y2537D01*
X3291Y2537D01*
X3292Y2537D01*
X3293Y2537D01*
X3294Y2537D01*
X3295Y2537D01*
X3296Y2537D01*
X3297Y2537D01*
X3298Y2537D01*
X3299Y2537D01*
X3300Y2537D01*
X3301Y2537D01*
X3302Y2537D01*
X3303Y2537D01*
X3304Y2537D01*
X3305Y2537D01*
X3306Y2537D01*
X3307Y2537D01*
X3308Y2537D01*
X3309Y2537D01*
X3310Y2537D01*
X3311Y2537D01*
X3312Y2537D01*
X3313Y2537D01*
X3314Y2537D01*
X3315Y2537D01*
X3316Y2537D01*
X3317Y2537D01*
X3318Y2537D01*
X3319Y2537D01*
X3320Y2537D01*
X3321Y2537D01*
X3322Y2537D01*
X3323Y2537D01*
X3324Y2537D01*
X3325Y2537D01*
X3326Y2537D01*
X3327Y2537D01*
X3328Y2537D01*
X3329Y2537D01*
X3330Y2537D01*
X3331Y2537D01*
X3332Y2537D01*
X3333Y2537D01*
X3334Y2537D01*
X3335Y2537D01*
X3336Y2537D01*
X3337Y2537D01*
X3338Y2537D01*
X3339Y2537D01*
X3340Y2537D01*
X3341Y2537D01*
X3342Y2537D01*
X3343Y2537D01*
X3344Y2537D01*
X3345Y2537D01*
X3346Y2537D01*
X3347Y2537D01*
X3348Y2537D01*
X3349Y2537D01*
X3350Y2536D01*
X3351Y2536D01*
X3352Y2536D01*
X3353Y2536D01*
X3354Y2536D01*
X3355Y2536D01*
X3356Y2536D01*
X3357Y2535D01*
X3358Y2535D01*
X3359Y2535D01*
X3360Y2535D01*
X3361Y2534D01*
X3362Y2534D01*
X3363Y2534D01*
X3364Y2534D01*
X3365Y2533D01*
X3366Y2533D01*
X3367Y2533D01*
X3368Y2533D01*
X3369Y2532D01*
X3370Y2532D01*
X3371Y2532D01*
X3372Y2531D01*
X3373Y2531D01*
X3374Y2531D01*
X3375Y2530D01*
X3376Y2530D01*
X3377Y2529D01*
X3378Y2529D01*
X3379Y2528D01*
X3380Y2528D01*
X3381Y2528D01*
X3382Y2527D01*
X3383Y2527D01*
X3384Y2526D01*
X3385Y2526D01*
X3386Y2525D01*
X3387Y2525D01*
X3388Y2524D01*
X3389Y2524D01*
X3390Y2523D01*
X3391Y2522D01*
X3392Y2522D01*
X3393Y2521D01*
X3394Y2521D01*
X3395Y2520D01*
X3396Y2519D01*
X3397Y2519D01*
X3398Y2518D01*
X3399Y2517D01*
X3400Y2517D01*
X3401Y2516D01*
X3402Y2515D01*
X3403Y2514D01*
X3404Y2514D01*
X3405Y2513D01*
X3406Y2512D01*
X3407Y2511D01*
X3408Y2510D01*
X3409Y2509D01*
X3410Y2509D01*
X3411Y2508D01*
X3412Y2507D01*
X3413Y2506D01*
X3414Y2505D01*
X3415Y2504D01*
X3416Y2503D01*
X3417Y2502D01*
X3418Y2501D01*
X3419Y2500D01*
X3420Y2499D01*
X3421Y2498D01*
X3421Y2497D01*
X3422Y2496D01*
X3423Y2495D01*
X3424Y2494D01*
X3425Y2493D01*
X3426Y2492D01*
X3426Y2491D01*
X3427Y2490D01*
X3428Y2489D01*
X3429Y2488D01*
X3429Y2487D01*
X3430Y2486D01*
X3431Y2485D01*
X3431Y2484D01*
X3432Y2483D01*
X3433Y2482D01*
X3433Y2481D01*
X3434Y2480D01*
X3435Y2479D01*
X3435Y2478D01*
X3436Y2477D01*
X3436Y2476D01*
X3437Y2475D01*
X3437Y2474D01*
X3438Y2473D01*
X3439Y2472D01*
X3439Y2471D01*
X3440Y2470D01*
X3440Y2469D01*
X3441Y2468D01*
X3441Y2467D01*
X3442Y2466D01*
X3442Y2465D01*
X3443Y2464D01*
X3443Y2462D01*
X3444Y2461D01*
X3444Y2460D01*
X3445Y2459D01*
X3445Y2458D01*
X3446Y2457D01*
X3446Y2455D01*
X3447Y2454D01*
X3447Y2452D01*
X3448Y2451D01*
X3448Y2450D01*
X3449Y2449D01*
X3449Y2447D01*
X3450Y2446D01*
X3450Y2443D01*
X3451Y2442D01*
X3451Y2440D01*
X3452Y2439D01*
X3452Y2436D01*
X3453Y2435D01*
X3453Y2431D01*
X3454Y2430D01*
X3454Y2426D01*
X3455Y2425D01*
X3455Y2418D01*
X3456Y2417D01*
X3456Y2407D01*
X3457Y2406D01*
X3457Y137D01*
X3456Y136D01*
X3456Y125D01*
X3455Y124D01*
X3455Y118D01*
X3454Y117D01*
X3454Y113D01*
X3453Y112D01*
X3453Y108D01*
X3452Y107D01*
X3452Y104D01*
X3451Y103D01*
X3451Y101D01*
X3450Y100D01*
X3450Y97D01*
X3449Y96D01*
X3449Y94D01*
X3448Y93D01*
X3448Y91D01*
X3447Y90D01*
X3447Y89D01*
X3446Y88D01*
X3446Y86D01*
X3445Y85D01*
X3445Y84D01*
X3444Y83D01*
X3444Y81D01*
X3443Y80D01*
X3443Y79D01*
X3442Y78D01*
X3442Y77D01*
X3441Y76D01*
X3441Y75D01*
X3440Y74D01*
X3440Y73D01*
X3439Y72D01*
X3439Y71D01*
X3438Y70D01*
X3438Y69D01*
X3437Y68D01*
X3437Y67D01*
X3436Y66D01*
X3435Y65D01*
X3435Y64D01*
X3434Y63D01*
X3433Y62D01*
X3433Y61D01*
X3432Y60D01*
X3432Y59D01*
X3431Y58D01*
X3430Y57D01*
X3429Y56D01*
X3429Y55D01*
X3428Y54D01*
X3427Y53D01*
X3427Y52D01*
X3426Y51D01*
X3425Y50D01*
X3424Y49D01*
X3423Y48D01*
X3423Y47D01*
X3422Y46D01*
X3421Y45D01*
X3420Y44D01*
X3419Y43D01*
X3418Y42D01*
X3417Y41D01*
X3416Y40D01*
X3415Y39D01*
X3414Y38D01*
X3413Y37D01*
X3412Y36D01*
X3411Y35D01*
X3410Y34D01*
X3409Y33D01*
X3408Y32D01*
X3407Y32D01*
X3406Y31D01*
X3405Y30D01*
X3404Y29D01*
X3403Y28D01*
X3402Y28D01*
X3401Y27D01*
X3400Y26D01*
X3399Y25D01*
X3398Y25D01*
X3397Y24D01*
X3396Y23D01*
X3395Y23D01*
X3394Y22D01*
X3393Y22D01*
X3392Y21D01*
X3391Y20D01*
X3390Y20D01*
X3389Y19D01*
X3388Y19D01*
X3387Y18D01*
X3386Y18D01*
X3385Y17D01*
X3384Y17D01*
X3383Y16D01*
X3382Y16D01*
X3381Y15D01*
X3380Y15D01*
X3379Y14D01*
X3378Y14D01*
X3377Y13D01*
X3376Y13D01*
X3375Y13D01*
X3374Y12D01*
X3373Y12D01*
X3372Y11D01*
X3371Y11D01*
X3370Y11D01*
X3369Y10D01*
X3368Y10D01*
X3367Y10D01*
X3366Y10D01*
X3365Y9D01*
X3364Y9D01*
X3363Y9D01*
X3362Y8D01*
X3361Y8D01*
X3360Y8D01*
X3359Y8D01*
X3358Y8D01*
X3357Y7D01*
X3356Y7D01*
X3355Y7D01*
X3354Y7D01*
X3353Y7D01*
X3352Y7D01*
X3351Y6D01*
X3350Y6D01*
X3349Y6D01*
X3348Y6D01*
X3347Y6D01*
X3346Y6D01*
X3345Y6D01*
X3344Y6D01*
X3343Y6D01*
X3342Y6D01*
X3341Y6D01*
X3340Y6D01*
X3339Y5D01*
X3338Y5D01*
X3337Y5D01*
X3336Y5D01*
X3335Y5D01*
X3334Y5D01*
X3333Y5D01*
X3332Y5D01*
X3331Y5D01*
X3330Y5D01*
X3329Y5D01*
X3328Y5D01*
X3327Y5D01*
X3326Y5D01*
X3325Y5D01*
X3324Y5D01*
X3323Y5D01*
X3322Y5D01*
X3321Y5D01*
X3320Y5D01*
X3319Y5D01*
X3318Y5D01*
X3317Y5D01*
X3316Y5D01*
X3315Y5D01*
X3314Y5D01*
X3313Y5D01*
X3312Y5D01*
X3311Y5D01*
X3310Y5D01*
X3309Y5D01*
X3308Y5D01*
X3307Y5D01*
X3306Y5D01*
X3305Y5D01*
X3304Y5D01*
X3303Y5D01*
X3302Y5D01*
X3301Y5D01*
X3300Y5D01*
X3299Y5D01*
X3298Y5D01*
X3297Y5D01*
X3296Y5D01*
X3295Y5D01*
X3294Y5D01*
X3293Y5D01*
X3292Y5D01*
X3291Y5D01*
X3290Y5D01*
X3289Y5D01*
X3288Y5D01*
X3287Y5D01*
X3286Y5D01*
X3285Y5D01*
X3284Y5D01*
X3283Y5D01*
X3282Y5D01*
X3281Y5D01*
X3280Y5D01*
X3279Y5D01*
X3278Y5D01*
X3277Y5D01*
X3276Y5D01*
X3275Y5D01*
X3274Y5D01*
X3273Y5D01*
X3272Y5D01*
X3271Y5D01*
X3270Y5D01*
X3269Y5D01*
X3268Y5D01*
X3267Y5D01*
X3266Y5D01*
X3265Y5D01*
X3264Y5D01*
X3263Y5D01*
X3262Y5D01*
X3261Y5D01*
X3260Y5D01*
X3259Y5D01*
X3258Y5D01*
X3257Y5D01*
X3256Y5D01*
X3255Y5D01*
X3254Y5D01*
X3253Y5D01*
X3252Y5D01*
X3251Y5D01*
X3250Y5D01*
X3249Y5D01*
X3248Y5D01*
X3247Y5D01*
X3246Y5D01*
X3245Y5D01*
X3244Y5D01*
X3243Y5D01*
X3242Y5D01*
X3241Y5D01*
X3240Y5D01*
X3239Y5D01*
X3238Y5D01*
X3237Y5D01*
X3236Y5D01*
X3235Y5D01*
X3234Y5D01*
X3233Y5D01*
X3232Y5D01*
X3231Y5D01*
X3230Y5D01*
X3229Y5D01*
X3228Y5D01*
X3227Y5D01*
X3226Y5D01*
X3225Y5D01*
X3224Y5D01*
X3223Y5D01*
X3222Y5D01*
X3221Y5D01*
X3220Y5D01*
X3219Y5D01*
X3218Y5D01*
X3217Y5D01*
X3216Y5D01*
X3215Y5D01*
X3214Y5D01*
X3213Y5D01*
X3212Y5D01*
X3211Y5D01*
X3210Y5D01*
X3209Y5D01*
X3208Y5D01*
X3207Y5D01*
X3206Y5D01*
X3205Y5D01*
X3204Y5D01*
X3203Y5D01*
X3202Y5D01*
X3201Y5D01*
X3200Y5D01*
X3199Y5D01*
X3198Y5D01*
X3197Y5D01*
X3196Y5D01*
X3195Y5D01*
X3194Y5D01*
X3193Y5D01*
X3192Y5D01*
X3191Y5D01*
X3190Y5D01*
X3189Y5D01*
X3188Y5D01*
X3187Y5D01*
X3186Y5D01*
X3185Y5D01*
X3184Y5D01*
X3183Y5D01*
X3182Y5D01*
X3181Y5D01*
X3180Y5D01*
X3179Y5D01*
X3178Y5D01*
X3177Y5D01*
X3176Y5D01*
X3175Y5D01*
X3174Y5D01*
X3173Y5D01*
X3172Y5D01*
X3171Y5D01*
X3170Y5D01*
X3169Y5D01*
X3168Y5D01*
X3167Y5D01*
X3166Y5D01*
X3165Y5D01*
X3164Y5D01*
X3163Y5D01*
X3162Y5D01*
X3161Y5D01*
X3160Y5D01*
X3159Y5D01*
X3158Y5D01*
X3157Y5D01*
X3156Y5D01*
X3155Y5D01*
X3154Y5D01*
X3153Y5D01*
X3152Y5D01*
X3151Y5D01*
X3150Y5D01*
X3149Y5D01*
X3148Y5D01*
X3147Y5D01*
X3146Y5D01*
X3145Y5D01*
X3144Y5D01*
X3143Y5D01*
X3142Y5D01*
X3141Y5D01*
X3140Y5D01*
X3139Y5D01*
X3138Y5D01*
X3137Y5D01*
X3136Y5D01*
X3135Y5D01*
X3134Y5D01*
X3133Y5D01*
X3132Y5D01*
X3131Y5D01*
X3130Y5D01*
X3129Y5D01*
X3128Y5D01*
X3127Y5D01*
X3126Y5D01*
X3125Y5D01*
X3124Y5D01*
X3123Y5D01*
X3122Y5D01*
X3121Y5D01*
X3120Y5D01*
X3119Y5D01*
X3118Y5D01*
X3117Y5D01*
X3116Y5D01*
X3115Y5D01*
X3114Y5D01*
X3113Y5D01*
X3112Y5D01*
X3111Y5D01*
X3110Y5D01*
X3109Y5D01*
X3108Y5D01*
X3107Y5D01*
X3106Y5D01*
X3105Y5D01*
X3104Y5D01*
X3103Y5D01*
X3102Y5D01*
X3101Y5D01*
X3100Y5D01*
X3099Y5D01*
X3098Y5D01*
X3097Y5D01*
X3096Y5D01*
X3095Y5D01*
X3094Y5D01*
X3093Y5D01*
X3092Y5D01*
X3091Y5D01*
X3090Y5D01*
X3089Y5D01*
X3088Y5D01*
X3087Y5D01*
X3086Y5D01*
X3085Y5D01*
X3084Y5D01*
X3083Y5D01*
X3082Y5D01*
X3081Y5D01*
X3080Y5D01*
X3079Y5D01*
X3078Y5D01*
X3077Y5D01*
X3076Y5D01*
X3075Y5D01*
X3074Y5D01*
X3073Y5D01*
X3072Y5D01*
X3071Y5D01*
X3070Y5D01*
X3069Y5D01*
X3068Y5D01*
X3067Y5D01*
X3066Y5D01*
X3065Y5D01*
X3064Y5D01*
X3063Y5D01*
X3062Y5D01*
X3061Y5D01*
X3060Y5D01*
X3059Y5D01*
X3058Y5D01*
X3057Y5D01*
X3056Y5D01*
X3055Y5D01*
X3054Y5D01*
X3053Y5D01*
X3052Y5D01*
X3051Y5D01*
X3050Y5D01*
X3049Y5D01*
X3048Y5D01*
X3047Y5D01*
X3046Y5D01*
X3045Y5D01*
X3044Y5D01*
X3043Y5D01*
X3042Y5D01*
X3041Y5D01*
X3040Y5D01*
X3039Y5D01*
X3038Y5D01*
X3037Y5D01*
X3036Y5D01*
X3035Y5D01*
X3034Y5D01*
X3033Y5D01*
X3032Y5D01*
X3031Y5D01*
X3030Y5D01*
X3029Y5D01*
X3028Y5D01*
X3027Y5D01*
X3026Y5D01*
X3025Y5D01*
X3024Y5D01*
X3023Y5D01*
X3022Y5D01*
X3021Y5D01*
X3020Y5D01*
X3019Y5D01*
X3018Y5D01*
X3017Y5D01*
X3016Y5D01*
X3015Y5D01*
X3014Y5D01*
X3013Y5D01*
X3012Y5D01*
X3011Y5D01*
X3010Y5D01*
X3009Y5D01*
X3008Y5D01*
X3007Y5D01*
X3006Y5D01*
X3005Y5D01*
X3004Y5D01*
X3003Y5D01*
X3002Y5D01*
X3001Y5D01*
X3000Y5D01*
X2999Y5D01*
X2998Y5D01*
X2997Y5D01*
X2996Y5D01*
X2995Y5D01*
X2994Y5D01*
X2993Y5D01*
X2992Y5D01*
X2991Y5D01*
X2990Y5D01*
X2989Y5D01*
X2988Y5D01*
X2987Y5D01*
X2986Y5D01*
X2985Y5D01*
X2984Y5D01*
X2983Y5D01*
X2982Y5D01*
X2981Y5D01*
X2980Y5D01*
X2979Y5D01*
X2978Y5D01*
X2977Y5D01*
X2976Y5D01*
X2975Y5D01*
X2974Y5D01*
X2973Y5D01*
X2972Y5D01*
X2971Y5D01*
X2970Y5D01*
X2969Y5D01*
X2968Y5D01*
X2967Y5D01*
X2966Y5D01*
X2965Y5D01*
X2964Y5D01*
X2963Y5D01*
X2962Y5D01*
X2961Y5D01*
X2960Y5D01*
X2959Y5D01*
X2958Y5D01*
X2957Y5D01*
X2956Y5D01*
X2955Y5D01*
X2954Y5D01*
X2953Y5D01*
X2952Y5D01*
X2951Y5D01*
X2950Y5D01*
X2949Y5D01*
X2948Y5D01*
X2947Y5D01*
X2946Y5D01*
X2945Y5D01*
X2944Y5D01*
X2943Y5D01*
X2942Y5D01*
X2941Y5D01*
X2940Y5D01*
X2939Y5D01*
X2938Y5D01*
X2937Y5D01*
X2936Y5D01*
X2935Y5D01*
X2934Y5D01*
X2933Y5D01*
X2932Y5D01*
X2931Y5D01*
X2930Y5D01*
X2929Y5D01*
X2928Y5D01*
X2927Y5D01*
X2926Y5D01*
X2925Y5D01*
X2924Y5D01*
X2923Y5D01*
X2922Y5D01*
X2921Y5D01*
X2920Y5D01*
X2919Y5D01*
X2918Y5D01*
X2917Y5D01*
X2916Y5D01*
X2915Y5D01*
X2914Y5D01*
X2913Y5D01*
X2912Y5D01*
X2911Y5D01*
X2910Y5D01*
X2909Y5D01*
X2908Y5D01*
X2907Y5D01*
X2906Y5D01*
X2905Y5D01*
X2904Y5D01*
X2903Y5D01*
X2902Y5D01*
X2901Y5D01*
X2900Y5D01*
X2899Y5D01*
X2898Y5D01*
X2897Y5D01*
X2896Y5D01*
X2895Y5D01*
X2894Y5D01*
X2893Y5D01*
X2892Y5D01*
X2891Y5D01*
X2890Y5D01*
X2889Y5D01*
X2888Y5D01*
X2887Y5D01*
X2886Y5D01*
X2885Y5D01*
X2884Y5D01*
X2883Y5D01*
X2882Y5D01*
X2881Y5D01*
X2880Y5D01*
X2879Y5D01*
X2878Y5D01*
X2877Y5D01*
X2876Y5D01*
X2875Y5D01*
X2874Y5D01*
X2873Y5D01*
X2872Y5D01*
X2871Y5D01*
X2870Y5D01*
X2869Y5D01*
X2868Y5D01*
X2867Y5D01*
X2866Y5D01*
X2865Y5D01*
X2864Y5D01*
X2863Y5D01*
X2862Y5D01*
X2861Y5D01*
X2860Y5D01*
X2859Y5D01*
X2858Y5D01*
X2857Y5D01*
X2856Y5D01*
X2855Y5D01*
X2854Y5D01*
X2853Y5D01*
X2852Y5D01*
X2851Y5D01*
X2850Y5D01*
X2849Y5D01*
X2848Y5D01*
X2847Y5D01*
X2846Y5D01*
X2845Y5D01*
X2844Y5D01*
X2843Y5D01*
X2842Y5D01*
X2841Y5D01*
X2840Y5D01*
X2839Y5D01*
X2838Y5D01*
X2837Y5D01*
X2836Y5D01*
X2835Y5D01*
X2834Y5D01*
X2833Y5D01*
X2832Y5D01*
X2831Y5D01*
X2830Y5D01*
X2829Y5D01*
X2828Y5D01*
X2827Y5D01*
X2826Y5D01*
X2825Y5D01*
X2824Y5D01*
X2823Y5D01*
X2822Y5D01*
X2821Y5D01*
X2820Y5D01*
X2819Y5D01*
X2818Y5D01*
X2817Y5D01*
X2816Y5D01*
X2815Y5D01*
X2814Y5D01*
X2813Y5D01*
X2812Y5D01*
X2811Y5D01*
X2810Y5D01*
X2809Y5D01*
X2808Y5D01*
X2807Y5D01*
X2806Y5D01*
X2805Y5D01*
X2804Y5D01*
X2803Y5D01*
X2802Y5D01*
X2801Y5D01*
X2800Y5D01*
X2799Y5D01*
X2798Y5D01*
X2797Y5D01*
X2796Y5D01*
X2795Y5D01*
X2794Y5D01*
X2793Y5D01*
X2792Y5D01*
X2791Y5D01*
X2790Y5D01*
X2789Y5D01*
X2788Y5D01*
X2787Y5D01*
X2786Y5D01*
X2785Y5D01*
X2784Y5D01*
X2783Y5D01*
X2782Y5D01*
X2781Y5D01*
X2780Y5D01*
X2779Y5D01*
X2778Y5D01*
X2777Y5D01*
X2776Y5D01*
X2775Y5D01*
X2774Y5D01*
X2773Y5D01*
X2772Y5D01*
X2771Y5D01*
X2770Y5D01*
X2769Y5D01*
X2768Y5D01*
X2767Y5D01*
X2766Y5D01*
X2765Y5D01*
X2764Y5D01*
X2763Y5D01*
X2762Y5D01*
X2761Y5D01*
X2760Y5D01*
X2759Y5D01*
X2758Y5D01*
X2757Y5D01*
X2756Y5D01*
X2755Y5D01*
X2754Y5D01*
X2753Y5D01*
X2752Y5D01*
X2751Y5D01*
X2750Y5D01*
X2749Y5D01*
X2748Y5D01*
X2747Y5D01*
X2746Y5D01*
X2745Y5D01*
X2744Y5D01*
X2743Y5D01*
X2742Y5D01*
X2741Y5D01*
X2740Y5D01*
X2739Y5D01*
X2738Y5D01*
X2737Y5D01*
X2736Y5D01*
X2735Y5D01*
X2734Y5D01*
X2733Y5D01*
X2732Y5D01*
X2731Y5D01*
X2730Y5D01*
X2729Y5D01*
X2728Y5D01*
X2727Y5D01*
X2726Y5D01*
X2725Y5D01*
X2724Y5D01*
X2723Y5D01*
X2722Y5D01*
X2721Y5D01*
X2720Y5D01*
X2719Y5D01*
X2718Y5D01*
X2717Y5D01*
X2716Y5D01*
X2715Y5D01*
X2714Y5D01*
X2713Y5D01*
X2712Y5D01*
X2711Y5D01*
X2710Y5D01*
X2709Y5D01*
X2708Y5D01*
X2707Y5D01*
X2706Y5D01*
X2705Y5D01*
X2704Y5D01*
X2703Y5D01*
X2702Y5D01*
X2701Y5D01*
X2700Y5D01*
X2699Y5D01*
X2698Y5D01*
X2697Y5D01*
X2696Y5D01*
X2695Y5D01*
X2694Y5D01*
X2693Y5D01*
X2692Y5D01*
X2691Y5D01*
X2690Y5D01*
X2689Y5D01*
X2688Y5D01*
X2687Y5D01*
X2686Y5D01*
X2685Y5D01*
X2684Y5D01*
X2683Y5D01*
X2682Y5D01*
X2681Y5D01*
X2680Y5D01*
X2679Y5D01*
X2678Y5D01*
X2677Y5D01*
X2676Y5D01*
X2675Y5D01*
X2674Y5D01*
X2673Y5D01*
X2672Y5D01*
X2671Y5D01*
X2670Y5D01*
X2669Y5D01*
X2668Y5D01*
X2667Y5D01*
X2666Y5D01*
X2665Y5D01*
X2664Y5D01*
X2663Y5D01*
X2662Y5D01*
X2661Y5D01*
X2660Y5D01*
X2659Y5D01*
X2658Y5D01*
X2657Y5D01*
X2656Y5D01*
X2655Y5D01*
X2654Y5D01*
X2653Y5D01*
X2652Y5D01*
X2651Y5D01*
X2650Y5D01*
X2649Y5D01*
X2648Y5D01*
X2647Y5D01*
X2646Y5D01*
X2645Y5D01*
X2644Y5D01*
X2643Y5D01*
X2642Y5D01*
X2641Y5D01*
X2640Y5D01*
X2639Y5D01*
X2638Y5D01*
X2637Y5D01*
X2636Y5D01*
X2635Y5D01*
X2634Y5D01*
X2633Y5D01*
X2632Y5D01*
X2631Y5D01*
X2630Y5D01*
X2629Y5D01*
X2628Y5D01*
X2627Y5D01*
X2626Y5D01*
X2625Y5D01*
X2624Y5D01*
X2623Y5D01*
X2622Y5D01*
X2621Y5D01*
X2620Y5D01*
X2619Y5D01*
X2618Y5D01*
X2617Y5D01*
X2616Y5D01*
X2615Y5D01*
X2614Y5D01*
X2613Y5D01*
X2612Y5D01*
X2611Y5D01*
X2610Y5D01*
X2609Y5D01*
X2608Y5D01*
X2607Y5D01*
X2606Y5D01*
X2605Y5D01*
X2604Y5D01*
X2603Y5D01*
X2602Y5D01*
X2601Y5D01*
X2600Y5D01*
X2599Y5D01*
X2598Y5D01*
X2597Y5D01*
X2596Y5D01*
X2595Y5D01*
X2594Y5D01*
X2593Y5D01*
X2592Y5D01*
X2591Y5D01*
X2590Y5D01*
X2589Y5D01*
X2588Y5D01*
X2587Y5D01*
X2586Y5D01*
X2585Y5D01*
X2584Y5D01*
X2583Y5D01*
X2582Y5D01*
X2581Y5D01*
X2580Y5D01*
X2579Y5D01*
X2578Y5D01*
X2577Y5D01*
X2576Y5D01*
X2575Y5D01*
X2574Y5D01*
X2573Y5D01*
X2572Y5D01*
X2571Y5D01*
X2570Y5D01*
X2569Y5D01*
X2568Y5D01*
X2567Y5D01*
X2566Y5D01*
X2565Y5D01*
X2564Y5D01*
X2563Y5D01*
X2562Y5D01*
X2561Y5D01*
X2560Y5D01*
X2559Y5D01*
X2558Y5D01*
X2557Y5D01*
X2556Y5D01*
X2555Y5D01*
X2554Y5D01*
X2553Y5D01*
X2552Y5D01*
X2551Y5D01*
X2550Y5D01*
X2549Y5D01*
X2548Y5D01*
X2547Y5D01*
X2546Y5D01*
X2545Y5D01*
X2544Y5D01*
X2543Y5D01*
X2542Y5D01*
X2541Y5D01*
X2540Y5D01*
X2539Y5D01*
X2538Y5D01*
X2537Y5D01*
X2536Y5D01*
X2535Y5D01*
X2534Y5D01*
X2533Y5D01*
X2532Y5D01*
X2531Y5D01*
X2530Y5D01*
X2529Y5D01*
X2528Y5D01*
X2527Y5D01*
X2526Y5D01*
X2525Y5D01*
X2524Y5D01*
X2523Y5D01*
X2522Y5D01*
X2521Y5D01*
X2520Y5D01*
X2519Y5D01*
X2518Y5D01*
X2517Y5D01*
X2516Y5D01*
X2515Y5D01*
X2514Y5D01*
X2513Y5D01*
X2512Y5D01*
X2511Y5D01*
X2510Y5D01*
X2509Y5D01*
X2508Y5D01*
X2507Y5D01*
X2506Y5D01*
X2505Y5D01*
X2504Y5D01*
X2503Y5D01*
X2502Y5D01*
X2501Y5D01*
X2500Y5D01*
X2499Y5D01*
X2498Y5D01*
X2497Y5D01*
X2496Y5D01*
X2495Y5D01*
X2494Y5D01*
X2493Y5D01*
X2492Y5D01*
X2491Y5D01*
X2490Y5D01*
X2489Y5D01*
X2488Y5D01*
X2487Y5D01*
X2486Y5D01*
X2485Y5D01*
X2484Y5D01*
X2483Y5D01*
X2482Y5D01*
X2481Y5D01*
X2480Y5D01*
X2479Y5D01*
X2478Y5D01*
X2477Y5D01*
X2476Y5D01*
X2475Y5D01*
X2474Y5D01*
X2473Y5D01*
X2472Y5D01*
X2471Y5D01*
X2470Y5D01*
X2469Y5D01*
X2468Y5D01*
X2467Y5D01*
X2466Y5D01*
X2465Y5D01*
X2464Y5D01*
X2463Y5D01*
X2462Y5D01*
X2461Y5D01*
X2460Y5D01*
X2459Y5D01*
X2458Y5D01*
X2457Y5D01*
X2456Y5D01*
X2455Y5D01*
X2454Y5D01*
X2453Y5D01*
X2452Y5D01*
X2451Y5D01*
X2450Y5D01*
X2449Y5D01*
X2448Y5D01*
X2447Y5D01*
X2446Y5D01*
X2445Y5D01*
X2444Y5D01*
X2443Y5D01*
X2442Y5D01*
X2441Y5D01*
X2440Y5D01*
X2439Y5D01*
X2438Y5D01*
X2437Y5D01*
X2436Y5D01*
X2435Y5D01*
X2434Y5D01*
X2433Y5D01*
X2432Y5D01*
X2431Y5D01*
X2430Y5D01*
X2429Y5D01*
X2428Y5D01*
X2427Y5D01*
X2426Y5D01*
X2425Y5D01*
X2424Y5D01*
X2423Y5D01*
X2422Y5D01*
X2421Y5D01*
X2420Y5D01*
X2419Y5D01*
X2418Y5D01*
X2417Y5D01*
X2416Y5D01*
X2415Y5D01*
X2414Y5D01*
X2413Y5D01*
X2412Y5D01*
X2411Y5D01*
X2410Y5D01*
X2409Y5D01*
X2408Y5D01*
X2407Y5D01*
X2406Y5D01*
X2405Y5D01*
X2404Y5D01*
X2403Y5D01*
X2402Y5D01*
X2401Y5D01*
X2400Y5D01*
X2399Y5D01*
X2398Y5D01*
X2397Y5D01*
X2396Y5D01*
X2395Y5D01*
X2394Y5D01*
X2393Y5D01*
X2392Y5D01*
X2391Y5D01*
X2390Y5D01*
X2389Y5D01*
X2388Y5D01*
X2387Y5D01*
X2386Y5D01*
X2385Y5D01*
X2384Y5D01*
X2383Y5D01*
X2382Y5D01*
X2381Y5D01*
X2380Y5D01*
X2379Y5D01*
X2378Y5D01*
X2377Y5D01*
X2376Y5D01*
X2375Y5D01*
X2374Y5D01*
X2373Y5D01*
X2372Y5D01*
X2371Y5D01*
X2370Y5D01*
X2369Y5D01*
X2368Y5D01*
X2367Y5D01*
X2366Y5D01*
X2365Y5D01*
X2364Y5D01*
X2363Y5D01*
X2362Y5D01*
X2361Y5D01*
X2360Y5D01*
X2359Y5D01*
X2358Y5D01*
X2357Y5D01*
X2356Y5D01*
X2355Y5D01*
X2354Y5D01*
X2353Y5D01*
X2352Y5D01*
X2351Y5D01*
X2350Y5D01*
X2349Y5D01*
X2348Y5D01*
X2347Y5D01*
X2346Y5D01*
X2345Y5D01*
X2344Y5D01*
X2343Y5D01*
X2342Y5D01*
X2341Y5D01*
X2340Y5D01*
X2339Y5D01*
X2338Y5D01*
X2337Y5D01*
X2336Y5D01*
X2335Y5D01*
X2334Y5D01*
X2333Y5D01*
X2332Y5D01*
X2331Y5D01*
X2330Y5D01*
X2329Y5D01*
X2328Y5D01*
X2327Y5D01*
X2326Y5D01*
X2325Y5D01*
X2324Y5D01*
X2323Y5D01*
X2322Y5D01*
X2321Y5D01*
X2320Y5D01*
X2319Y5D01*
X2318Y5D01*
X2317Y5D01*
X2316Y5D01*
X2315Y5D01*
X2314Y5D01*
X2313Y5D01*
X2312Y5D01*
X2311Y5D01*
X2310Y5D01*
X2309Y5D01*
X2308Y5D01*
X2307Y5D01*
X2306Y5D01*
X2305Y5D01*
X2304Y5D01*
X2303Y5D01*
X2302Y5D01*
X2301Y5D01*
X2300Y5D01*
X2299Y5D01*
X2298Y5D01*
X2297Y5D01*
X2296Y5D01*
X2295Y5D01*
X2294Y5D01*
X2293Y5D01*
X2292Y5D01*
X2291Y5D01*
X2290Y5D01*
X2289Y5D01*
X2288Y5D01*
X2287Y5D01*
X2286Y5D01*
X2285Y5D01*
X2284Y5D01*
X2283Y5D01*
X2282Y5D01*
X2281Y5D01*
X2280Y5D01*
X2279Y5D01*
X2278Y5D01*
X2277Y5D01*
X2276Y5D01*
X2275Y5D01*
X2274Y5D01*
X2273Y5D01*
X2272Y5D01*
X2271Y5D01*
X2270Y5D01*
X2269Y5D01*
X2268Y5D01*
X2267Y5D01*
X2266Y5D01*
X2265Y5D01*
X2264Y5D01*
X2263Y5D01*
X2262Y5D01*
X2261Y5D01*
X2260Y5D01*
X2259Y5D01*
X2258Y5D01*
X2257Y5D01*
X2256Y5D01*
X2255Y5D01*
X2254Y5D01*
X2253Y5D01*
X2252Y5D01*
X2251Y5D01*
X2250Y5D01*
X2249Y5D01*
X2248Y5D01*
X2247Y5D01*
X2246Y5D01*
X2245Y5D01*
X2244Y5D01*
X2243Y5D01*
X2242Y5D01*
X2241Y5D01*
X2240Y5D01*
X2239Y5D01*
X2238Y5D01*
X2237Y5D01*
X2236Y5D01*
X2235Y5D01*
X2234Y5D01*
X2233Y5D01*
X2232Y5D01*
X2231Y5D01*
X2230Y5D01*
X2229Y5D01*
X2228Y5D01*
X2227Y5D01*
X2226Y5D01*
X2225Y5D01*
X2224Y5D01*
X2223Y5D01*
X2222Y5D01*
X2221Y5D01*
X2220Y5D01*
X2219Y5D01*
X2218Y5D01*
X2217Y5D01*
X2216Y5D01*
X2215Y5D01*
X2214Y5D01*
X2213Y5D01*
X2212Y5D01*
X2211Y5D01*
X2210Y5D01*
X2209Y5D01*
X2208Y5D01*
X2207Y5D01*
X2206Y5D01*
X2205Y5D01*
X2204Y5D01*
X2203Y5D01*
X2202Y5D01*
X2201Y5D01*
X2200Y5D01*
X2199Y5D01*
X2198Y5D01*
X2197Y5D01*
X2196Y5D01*
X2195Y5D01*
X2194Y5D01*
X2193Y5D01*
X2192Y5D01*
X2191Y5D01*
X2190Y5D01*
X2189Y5D01*
X2188Y5D01*
X2187Y5D01*
X2186Y5D01*
X2185Y5D01*
X2184Y5D01*
X2183Y5D01*
X2182Y5D01*
X2181Y5D01*
X2180Y5D01*
X2179Y5D01*
X2178Y5D01*
X2177Y5D01*
X2176Y5D01*
X2175Y5D01*
X2174Y5D01*
X2173Y5D01*
X2172Y5D01*
X2171Y5D01*
X2170Y5D01*
X2169Y5D01*
X2168Y5D01*
X2167Y5D01*
X2166Y5D01*
X2165Y5D01*
X2164Y5D01*
X2163Y5D01*
X2162Y5D01*
X2161Y5D01*
X2160Y5D01*
X2159Y5D01*
X2158Y5D01*
X2157Y5D01*
X2156Y5D01*
X2155Y5D01*
X2154Y5D01*
X2153Y5D01*
X2152Y5D01*
X2151Y5D01*
X2150Y5D01*
X2149Y5D01*
X2148Y5D01*
X2147Y5D01*
X2146Y5D01*
X2145Y5D01*
X2144Y5D01*
X2143Y5D01*
X2142Y5D01*
X2141Y5D01*
X2140Y5D01*
X2139Y5D01*
X2138Y5D01*
X2137Y5D01*
X2136Y5D01*
X2135Y5D01*
X2134Y5D01*
X2133Y5D01*
X2132Y5D01*
X2131Y5D01*
X2130Y5D01*
X2129Y5D01*
X2128Y5D01*
X2127Y5D01*
X2126Y5D01*
X2125Y5D01*
X2124Y5D01*
X2123Y5D01*
X2122Y5D01*
X2121Y5D01*
X2120Y5D01*
X2119Y5D01*
X2118Y5D01*
X2117Y5D01*
X2116Y5D01*
X2115Y5D01*
X2114Y5D01*
X2113Y5D01*
X2112Y5D01*
X2111Y5D01*
X2110Y5D01*
X2109Y5D01*
X2108Y5D01*
X2107Y5D01*
X2106Y5D01*
X2105Y5D01*
X2104Y5D01*
X2103Y5D01*
X2102Y5D01*
X2101Y5D01*
X2100Y5D01*
X2099Y5D01*
X2098Y5D01*
X2097Y5D01*
X2096Y5D01*
X2095Y5D01*
X2094Y5D01*
X2093Y5D01*
X2092Y5D01*
X2091Y5D01*
X2090Y5D01*
X2089Y5D01*
X2088Y5D01*
X2087Y5D01*
X2086Y5D01*
X2085Y5D01*
X2084Y5D01*
X2083Y5D01*
X2082Y5D01*
X2081Y5D01*
X2080Y5D01*
X2079Y5D01*
X2078Y5D01*
X2077Y5D01*
X2076Y5D01*
X2075Y5D01*
X2074Y5D01*
X2073Y5D01*
X2072Y5D01*
X2071Y5D01*
X2070Y5D01*
X2069Y5D01*
X2068Y5D01*
X2067Y5D01*
X2066Y5D01*
X2065Y5D01*
X2064Y5D01*
X2063Y5D01*
X2062Y5D01*
X2061Y5D01*
X2060Y5D01*
X2059Y5D01*
X2058Y5D01*
X2057Y5D01*
X2056Y5D01*
X2055Y5D01*
X2054Y5D01*
X2053Y5D01*
X2052Y5D01*
X2051Y5D01*
X2050Y5D01*
X2049Y5D01*
X2048Y5D01*
X2047Y5D01*
X2046Y5D01*
X2045Y5D01*
X2044Y5D01*
X2043Y5D01*
X2042Y5D01*
X2041Y5D01*
X2040Y5D01*
X2039Y5D01*
X2038Y5D01*
X2037Y5D01*
X2036Y5D01*
X2035Y5D01*
X2034Y5D01*
X2033Y5D01*
X2032Y5D01*
X2031Y5D01*
X2030Y5D01*
X2029Y5D01*
X2028Y5D01*
X2027Y5D01*
X2026Y5D01*
X2025Y5D01*
X2024Y5D01*
X2023Y5D01*
X2022Y5D01*
X2021Y5D01*
X2020Y5D01*
X2019Y5D01*
X2018Y5D01*
X2017Y5D01*
X2016Y5D01*
X2015Y5D01*
X2014Y5D01*
X2013Y5D01*
X2012Y5D01*
X2011Y5D01*
X2010Y5D01*
X2009Y5D01*
X2008Y5D01*
X2007Y5D01*
X2006Y5D01*
X2005Y5D01*
X2004Y5D01*
X2003Y5D01*
X2002Y5D01*
X2001Y5D01*
X2000Y5D01*
X1999Y5D01*
X1998Y5D01*
X1997Y5D01*
X1996Y5D01*
X1995Y5D01*
X1994Y5D01*
X1993Y5D01*
X1992Y5D01*
X1991Y5D01*
X1990Y5D01*
X1989Y5D01*
X1988Y5D01*
X1987Y5D01*
X1986Y5D01*
X1985Y5D01*
X1984Y5D01*
X1983Y5D01*
X1982Y5D01*
X1981Y5D01*
X1980Y5D01*
X1979Y5D01*
X1978Y5D01*
X1977Y5D01*
X1976Y5D01*
X1975Y5D01*
X1974Y5D01*
X1973Y5D01*
X1972Y5D01*
X1971Y5D01*
X1970Y5D01*
X1969Y5D01*
X1968Y5D01*
X1967Y5D01*
X1966Y5D01*
X1965Y5D01*
X1964Y5D01*
X1963Y5D01*
X1962Y5D01*
X1961Y5D01*
X1960Y5D01*
X1959Y5D01*
X1958Y5D01*
X1957Y5D01*
X1956Y5D01*
X1955Y5D01*
X1954Y5D01*
X1953Y5D01*
X1952Y5D01*
X1951Y5D01*
X1950Y5D01*
X1949Y5D01*
X1948Y5D01*
X1947Y5D01*
X1946Y5D01*
X1945Y5D01*
X1944Y5D01*
X1943Y5D01*
X1942Y5D01*
X1941Y5D01*
X1940Y5D01*
X1939Y5D01*
X1938Y5D01*
X1937Y5D01*
X1936Y5D01*
X1935Y5D01*
X1934Y5D01*
X1933Y5D01*
X1932Y5D01*
X1931Y5D01*
X1930Y5D01*
X1929Y5D01*
X1928Y5D01*
X1927Y5D01*
X1926Y5D01*
X1925Y5D01*
X1924Y5D01*
X1923Y5D01*
X1922Y5D01*
X1921Y5D01*
X1920Y5D01*
X1919Y5D01*
X1918Y5D01*
X1917Y5D01*
X1916Y5D01*
X1915Y5D01*
X1914Y5D01*
X1913Y5D01*
X1912Y5D01*
X1911Y5D01*
X1910Y5D01*
X1909Y5D01*
X1908Y5D01*
X1907Y5D01*
X1906Y5D01*
X1905Y5D01*
X1904Y5D01*
X1903Y5D01*
X1902Y5D01*
X1901Y5D01*
X1900Y5D01*
X1899Y5D01*
X1898Y5D01*
X1897Y5D01*
X1896Y5D01*
X1895Y5D01*
X1894Y5D01*
X1893Y5D01*
X1892Y5D01*
X1891Y5D01*
X1890Y5D01*
X1889Y5D01*
X1888Y5D01*
X1887Y5D01*
X1886Y5D01*
X1885Y5D01*
X1884Y5D01*
X1883Y5D01*
X1882Y5D01*
X1881Y5D01*
X1880Y5D01*
X1879Y5D01*
X1878Y5D01*
X1877Y5D01*
X1876Y5D01*
X1875Y5D01*
X1874Y5D01*
X1873Y5D01*
X1872Y5D01*
X1871Y5D01*
X1870Y5D01*
X1869Y5D01*
X1868Y5D01*
X1867Y5D01*
X1866Y5D01*
X1865Y5D01*
X1864Y5D01*
X1863Y5D01*
X1862Y5D01*
X1861Y5D01*
X1860Y5D01*
X1859Y5D01*
X1858Y5D01*
X1857Y5D01*
X1856Y5D01*
X1855Y5D01*
X1854Y5D01*
X1853Y5D01*
X1852Y5D01*
X1851Y5D01*
X1850Y5D01*
X1849Y5D01*
X1848Y5D01*
X1847Y5D01*
X1846Y5D01*
X1845Y5D01*
X1844Y5D01*
X1843Y5D01*
X1842Y5D01*
X1841Y5D01*
X1840Y5D01*
X1839Y5D01*
X1838Y5D01*
X1837Y5D01*
X1836Y5D01*
X1835Y5D01*
X1834Y5D01*
X1833Y5D01*
X1832Y5D01*
X1831Y5D01*
X1830Y5D01*
X1829Y5D01*
X1828Y5D01*
X1827Y5D01*
X1826Y5D01*
X1825Y5D01*
X1824Y5D01*
X1823Y5D01*
X1822Y5D01*
X1821Y5D01*
X1820Y5D01*
X1819Y5D01*
X1818Y5D01*
X1817Y5D01*
X1816Y5D01*
X1815Y5D01*
X1814Y5D01*
X1813Y5D01*
X1812Y5D01*
X1811Y5D01*
X1810Y5D01*
X1809Y5D01*
X1808Y5D01*
X1807Y5D01*
X1806Y5D01*
X1805Y5D01*
X1804Y5D01*
X1803Y5D01*
X1802Y5D01*
X1801Y5D01*
X1800Y5D01*
X1799Y5D01*
X1798Y5D01*
X1797Y5D01*
X1796Y5D01*
X1795Y5D01*
X1794Y5D01*
X1793Y5D01*
X1792Y5D01*
X1791Y5D01*
X1790Y5D01*
X1789Y5D01*
X1788Y5D01*
X1787Y5D01*
X1786Y5D01*
X1785Y5D01*
X1784Y5D01*
X1783Y5D01*
X1782Y5D01*
X1781Y5D01*
X1780Y5D01*
X1779Y5D01*
X1778Y5D01*
X1777Y5D01*
X1776Y5D01*
X1775Y5D01*
X1774Y5D01*
X1773Y5D01*
X1772Y5D01*
X1771Y5D01*
X1770Y5D01*
X1769Y5D01*
X1768Y5D01*
X1767Y5D01*
X1766Y5D01*
X1765Y5D01*
X1764Y5D01*
X1763Y5D01*
X1762Y5D01*
X1761Y5D01*
X1760Y5D01*
X1759Y5D01*
X1758Y5D01*
X1757Y5D01*
X1756Y5D01*
X1755Y5D01*
X1754Y5D01*
X1753Y5D01*
X1752Y5D01*
X1751Y5D01*
X1750Y5D01*
X1749Y5D01*
X1748Y5D01*
X1747Y5D01*
X1746Y5D01*
X1745Y5D01*
X1744Y5D01*
X1743Y5D01*
X1742Y5D01*
X1741Y5D01*
X1740Y5D01*
X1739Y5D01*
X1738Y5D01*
X1737Y5D01*
X1736Y5D01*
X1735Y5D01*
X1734Y5D01*
X1733Y5D01*
X1732Y5D01*
X1731Y5D01*
X1730Y5D01*
X1729Y5D01*
X1728Y5D01*
X1727Y5D01*
X1726Y5D01*
X1725Y5D01*
X1724Y5D01*
X1723Y5D01*
X1722Y5D01*
X1721Y5D01*
X1720Y5D01*
X1719Y5D01*
X1718Y5D01*
X1717Y5D01*
X1716Y5D01*
X1715Y5D01*
X1714Y5D01*
X1713Y5D01*
X1712Y5D01*
X1711Y5D01*
X1710Y5D01*
X1709Y5D01*
X1708Y5D01*
X1707Y5D01*
X1706Y5D01*
X1705Y5D01*
X1704Y5D01*
X1703Y5D01*
X1702Y5D01*
X1701Y5D01*
X1700Y5D01*
X1699Y5D01*
X1698Y5D01*
X1697Y5D01*
X1696Y5D01*
X1695Y5D01*
X1694Y5D01*
X1693Y5D01*
X1692Y5D01*
X1691Y5D01*
X1690Y5D01*
X1689Y5D01*
X1688Y5D01*
X1687Y5D01*
X1686Y5D01*
X1685Y5D01*
X1684Y5D01*
X1683Y5D01*
X1682Y5D01*
X1681Y5D01*
X1680Y5D01*
X1679Y5D01*
X1678Y5D01*
X1677Y5D01*
X1676Y5D01*
X1675Y5D01*
X1674Y5D01*
X1673Y5D01*
X1672Y5D01*
X1671Y5D01*
X1670Y5D01*
X1669Y5D01*
X1668Y5D01*
X1667Y5D01*
X1666Y5D01*
X1665Y5D01*
X1664Y5D01*
X1663Y5D01*
X1662Y5D01*
X1661Y5D01*
X1660Y5D01*
X1659Y5D01*
X1658Y5D01*
X1657Y5D01*
X1656Y5D01*
X1655Y5D01*
X1654Y5D01*
X1653Y5D01*
X1652Y5D01*
X1651Y5D01*
X1650Y5D01*
X1649Y5D01*
X1648Y5D01*
X1647Y5D01*
X1646Y5D01*
X1645Y5D01*
X1644Y5D01*
X1643Y5D01*
X1642Y5D01*
X1641Y5D01*
X1640Y5D01*
X1639Y5D01*
X1638Y5D01*
X1637Y5D01*
X1636Y5D01*
X1635Y5D01*
X1634Y5D01*
X1633Y5D01*
X1632Y5D01*
X1631Y5D01*
X1630Y5D01*
X1629Y5D01*
X1628Y5D01*
X1627Y5D01*
X1626Y5D01*
X1625Y5D01*
X1624Y5D01*
X1623Y5D01*
X1622Y5D01*
X1621Y5D01*
X1620Y5D01*
X1619Y5D01*
X1618Y5D01*
X1617Y5D01*
X1616Y5D01*
X1615Y5D01*
X1614Y5D01*
X1613Y5D01*
X1612Y5D01*
X1611Y5D01*
X1610Y5D01*
X1609Y5D01*
X1608Y5D01*
X1607Y5D01*
X1606Y5D01*
X1605Y5D01*
X1604Y5D01*
X1603Y5D01*
X1602Y5D01*
X1601Y5D01*
X1600Y5D01*
X1599Y5D01*
X1598Y5D01*
X1597Y5D01*
X1596Y5D01*
X1595Y5D01*
X1594Y5D01*
X1593Y5D01*
X1592Y5D01*
X1591Y5D01*
X1590Y5D01*
X1589Y5D01*
X1588Y5D01*
X1587Y5D01*
X1586Y5D01*
X1585Y5D01*
X1584Y5D01*
X1583Y5D01*
X1582Y5D01*
X1581Y5D01*
X1580Y5D01*
X1579Y5D01*
X1578Y5D01*
X1577Y5D01*
X1576Y5D01*
X1575Y5D01*
X1574Y5D01*
X1573Y5D01*
X1572Y5D01*
X1571Y5D01*
X1570Y5D01*
X1569Y5D01*
X1568Y5D01*
X1567Y5D01*
X1566Y5D01*
X1565Y5D01*
X1564Y5D01*
X1563Y5D01*
X1562Y5D01*
X1561Y5D01*
X1560Y5D01*
X1559Y5D01*
X1558Y5D01*
X1557Y5D01*
X1556Y5D01*
X1555Y5D01*
X1554Y5D01*
X1553Y5D01*
X1552Y5D01*
X1551Y5D01*
X1550Y5D01*
X1549Y5D01*
X1548Y5D01*
X1547Y5D01*
X1546Y5D01*
X1545Y5D01*
X1544Y5D01*
X1543Y5D01*
X1542Y5D01*
X1541Y5D01*
X1540Y5D01*
X1539Y5D01*
X1538Y5D01*
X1537Y5D01*
X1536Y5D01*
X1535Y5D01*
X1534Y5D01*
X1533Y5D01*
X1532Y5D01*
X1531Y5D01*
X1530Y5D01*
X1529Y5D01*
X1528Y5D01*
X1527Y5D01*
X1526Y5D01*
X1525Y5D01*
X1524Y5D01*
X1523Y5D01*
X1522Y5D01*
X1521Y5D01*
X1520Y5D01*
X1519Y5D01*
X1518Y5D01*
X1517Y5D01*
X1516Y5D01*
X1515Y5D01*
X1514Y5D01*
X1513Y5D01*
X1512Y5D01*
X1511Y5D01*
X1510Y5D01*
X1509Y5D01*
X1508Y5D01*
X1507Y5D01*
X1506Y5D01*
X1505Y5D01*
X1504Y5D01*
X1503Y5D01*
X1502Y5D01*
X1501Y5D01*
X1500Y5D01*
X1499Y5D01*
X1498Y5D01*
X1497Y5D01*
X1496Y5D01*
X1495Y5D01*
X1494Y5D01*
X1493Y5D01*
X1492Y5D01*
X1491Y5D01*
X1490Y5D01*
X1489Y5D01*
X1488Y5D01*
X1487Y5D01*
X1486Y5D01*
X1485Y5D01*
X1484Y5D01*
X1483Y5D01*
X1482Y5D01*
X1481Y5D01*
X1480Y5D01*
X1479Y5D01*
X1478Y5D01*
X1477Y5D01*
X1476Y5D01*
X1475Y5D01*
X1474Y5D01*
X1473Y5D01*
X1472Y5D01*
X1471Y5D01*
X1470Y5D01*
X1469Y5D01*
X1468Y5D01*
X1467Y5D01*
X1466Y5D01*
X1465Y5D01*
X1464Y5D01*
X1463Y5D01*
X1462Y5D01*
X1461Y5D01*
X1460Y5D01*
X1459Y5D01*
X1458Y5D01*
X1457Y5D01*
X1456Y5D01*
X1455Y5D01*
X1454Y5D01*
X1453Y5D01*
X1452Y5D01*
X1451Y5D01*
X1450Y5D01*
X1449Y5D01*
X1448Y5D01*
X1447Y5D01*
X1446Y5D01*
X1445Y5D01*
X1444Y5D01*
X1443Y5D01*
X1442Y5D01*
X1441Y5D01*
X1440Y5D01*
X1439Y5D01*
X1438Y5D01*
X1437Y5D01*
X1436Y5D01*
X1435Y5D01*
X1434Y5D01*
X1433Y5D01*
X1432Y5D01*
X1431Y5D01*
X1430Y5D01*
X1429Y5D01*
X1428Y5D01*
X1427Y5D01*
X1426Y5D01*
X1425Y5D01*
X1424Y5D01*
X1423Y5D01*
X1422Y5D01*
X1421Y5D01*
X1420Y5D01*
X1419Y5D01*
X1418Y5D01*
X1417Y5D01*
X1416Y5D01*
X1415Y5D01*
X1414Y5D01*
X1413Y5D01*
X1412Y5D01*
X1411Y5D01*
X1410Y5D01*
X1409Y5D01*
X1408Y5D01*
X1407Y5D01*
X1406Y5D01*
X1405Y5D01*
X1404Y5D01*
X1403Y5D01*
X1402Y5D01*
X1401Y5D01*
X1400Y5D01*
X1399Y5D01*
X1398Y5D01*
X1397Y5D01*
X1396Y5D01*
X1395Y5D01*
X1394Y5D01*
X1393Y5D01*
X1392Y5D01*
X1391Y5D01*
X1390Y5D01*
X1389Y5D01*
X1388Y5D01*
X1387Y5D01*
X1386Y5D01*
X1385Y5D01*
X1384Y5D01*
X1383Y5D01*
X1382Y5D01*
X1381Y5D01*
X1380Y5D01*
X1379Y5D01*
X1378Y5D01*
X1377Y5D01*
X1376Y5D01*
X1375Y5D01*
X1374Y5D01*
X1373Y5D01*
X1372Y5D01*
X1371Y5D01*
X1370Y5D01*
X1369Y5D01*
X1368Y5D01*
X1367Y5D01*
X1366Y5D01*
X1365Y5D01*
X1364Y5D01*
X1363Y5D01*
X1362Y5D01*
X1361Y5D01*
X1360Y5D01*
X1359Y5D01*
X1358Y5D01*
X1357Y5D01*
X1356Y5D01*
X1355Y5D01*
X1354Y5D01*
X1353Y5D01*
X1352Y5D01*
X1351Y5D01*
X1350Y5D01*
X1349Y5D01*
X1348Y5D01*
X1347Y5D01*
X1346Y5D01*
X1345Y5D01*
X1344Y5D01*
X1343Y5D01*
X1342Y5D01*
X1341Y5D01*
X1340Y5D01*
X1339Y5D01*
X1338Y5D01*
X1337Y5D01*
X1336Y5D01*
X1335Y5D01*
X1334Y5D01*
X1333Y5D01*
X1332Y5D01*
X1331Y5D01*
X1330Y5D01*
X1329Y5D01*
X1328Y5D01*
X1327Y5D01*
X1326Y5D01*
X1325Y5D01*
X1324Y5D01*
X1323Y5D01*
X1322Y5D01*
X1321Y5D01*
X1320Y5D01*
X1319Y5D01*
X1318Y5D01*
X1317Y5D01*
X1316Y5D01*
X1315Y5D01*
X1314Y5D01*
X1313Y5D01*
X1312Y5D01*
X1311Y5D01*
X1310Y5D01*
X1309Y5D01*
X1308Y5D01*
X1307Y5D01*
X1306Y5D01*
X1305Y5D01*
X1304Y5D01*
X1303Y5D01*
X1302Y5D01*
X1301Y5D01*
X1300Y5D01*
X1299Y5D01*
X1298Y5D01*
X1297Y5D01*
X1296Y5D01*
X1295Y5D01*
X1294Y5D01*
X1293Y5D01*
X1292Y5D01*
X1291Y5D01*
X1290Y5D01*
X1289Y5D01*
X1288Y5D01*
X1287Y5D01*
X1286Y5D01*
X1285Y5D01*
X1284Y5D01*
X1283Y5D01*
X1282Y5D01*
X1281Y5D01*
X1280Y5D01*
X1279Y5D01*
X1278Y5D01*
X1277Y5D01*
X1276Y5D01*
X1275Y5D01*
X1274Y5D01*
X1273Y5D01*
X1272Y5D01*
X1271Y5D01*
X1270Y5D01*
X1269Y5D01*
X1268Y5D01*
X1267Y5D01*
X1266Y5D01*
X1265Y5D01*
X1264Y5D01*
X1263Y5D01*
X1262Y5D01*
X1261Y5D01*
X1260Y5D01*
X1259Y5D01*
X1258Y5D01*
X1257Y5D01*
X1256Y5D01*
X1255Y5D01*
X1254Y5D01*
X1253Y5D01*
X1252Y5D01*
X1251Y5D01*
X1250Y5D01*
X1249Y5D01*
X1248Y5D01*
X1247Y5D01*
X1246Y5D01*
X1245Y5D01*
X1244Y5D01*
X1243Y5D01*
X1242Y5D01*
X1241Y5D01*
X1240Y5D01*
X1239Y5D01*
X1238Y5D01*
X1237Y5D01*
X1236Y5D01*
X1235Y5D01*
X1234Y5D01*
X1233Y5D01*
X1232Y5D01*
X1231Y5D01*
X1230Y5D01*
X1229Y5D01*
X1228Y5D01*
X1227Y5D01*
X1226Y5D01*
X1225Y5D01*
X1224Y5D01*
X1223Y5D01*
X1222Y5D01*
X1221Y5D01*
X1220Y5D01*
X1219Y5D01*
X1218Y5D01*
X1217Y5D01*
X1216Y5D01*
X1215Y5D01*
X1214Y5D01*
X1213Y5D01*
X1212Y5D01*
X1211Y5D01*
X1210Y5D01*
X1209Y5D01*
X1208Y5D01*
X1207Y5D01*
X1206Y5D01*
X1205Y5D01*
X1204Y5D01*
X1203Y5D01*
X1202Y5D01*
X1201Y5D01*
X1200Y5D01*
X1199Y5D01*
X1198Y5D01*
X1197Y5D01*
X1196Y5D01*
X1195Y5D01*
X1194Y5D01*
X1193Y5D01*
X1192Y5D01*
X1191Y5D01*
X1190Y5D01*
X1189Y5D01*
X1188Y5D01*
X1187Y5D01*
X1186Y5D01*
X1185Y5D01*
X1184Y5D01*
X1183Y5D01*
X1182Y5D01*
X1181Y5D01*
X1180Y5D01*
X1179Y5D01*
X1178Y5D01*
X1177Y5D01*
X1176Y5D01*
X1175Y5D01*
X1174Y5D01*
X1173Y5D01*
X1172Y5D01*
X1171Y5D01*
X1170Y5D01*
X1169Y5D01*
X1168Y5D01*
X1167Y5D01*
X1166Y5D01*
X1165Y5D01*
X1164Y5D01*
X1163Y5D01*
X1162Y5D01*
X1161Y5D01*
X1160Y5D01*
X1159Y5D01*
X1158Y5D01*
X1157Y5D01*
X1156Y5D01*
X1155Y5D01*
X1154Y5D01*
X1153Y5D01*
X1152Y5D01*
X1151Y5D01*
X1150Y5D01*
X1149Y5D01*
X1148Y5D01*
X1147Y5D01*
X1146Y5D01*
X1145Y5D01*
X1144Y5D01*
X1143Y5D01*
X1142Y5D01*
X1141Y5D01*
X1140Y5D01*
X1139Y5D01*
X1138Y5D01*
X1137Y5D01*
X1136Y5D01*
X1135Y5D01*
X1134Y5D01*
X1133Y5D01*
X1132Y5D01*
X1131Y5D01*
X1130Y5D01*
X1129Y5D01*
X1128Y5D01*
X1127Y5D01*
X1126Y5D01*
X1125Y5D01*
X1124Y5D01*
X1123Y5D01*
X1122Y5D01*
X1121Y5D01*
X1120Y5D01*
X1119Y5D01*
X1118Y5D01*
X1117Y5D01*
X1116Y5D01*
X1115Y5D01*
X1114Y5D01*
X1113Y5D01*
X1112Y5D01*
X1111Y5D01*
X1110Y5D01*
X1109Y5D01*
X1108Y5D01*
X1107Y5D01*
X1106Y5D01*
X1105Y5D01*
X1104Y5D01*
X1103Y5D01*
X1102Y5D01*
X1101Y5D01*
X1100Y5D01*
X1099Y5D01*
X1098Y5D01*
X1097Y5D01*
X1096Y5D01*
X1095Y5D01*
X1094Y5D01*
X1093Y5D01*
X1092Y5D01*
X1091Y5D01*
X1090Y5D01*
X1089Y5D01*
X1088Y5D01*
X1087Y5D01*
X1086Y5D01*
X1085Y5D01*
X1084Y5D01*
X1083Y5D01*
X1082Y5D01*
X1081Y5D01*
X1080Y5D01*
X1079Y5D01*
X1078Y5D01*
X1077Y5D01*
X1076Y5D01*
X1075Y5D01*
X1074Y5D01*
X1073Y5D01*
X1072Y5D01*
X1071Y5D01*
X1070Y5D01*
X1069Y5D01*
X1068Y5D01*
X1067Y5D01*
X1066Y5D01*
X1065Y5D01*
X1064Y5D01*
X1063Y5D01*
X1062Y5D01*
X1061Y5D01*
X1060Y5D01*
X1059Y5D01*
X1058Y5D01*
X1057Y5D01*
X1056Y5D01*
X1055Y5D01*
X1054Y5D01*
X1053Y5D01*
X1052Y5D01*
X1051Y5D01*
X1050Y5D01*
X1049Y5D01*
X1048Y5D01*
X1047Y5D01*
X1046Y5D01*
X1045Y5D01*
X1044Y5D01*
X1043Y5D01*
X1042Y5D01*
X1041Y5D01*
X1040Y5D01*
X1039Y5D01*
X1038Y5D01*
X1037Y5D01*
X1036Y5D01*
X1035Y5D01*
X1034Y5D01*
X1033Y5D01*
X1032Y5D01*
X1031Y5D01*
X1030Y5D01*
X1029Y5D01*
X1028Y5D01*
X1027Y5D01*
X1026Y5D01*
X1025Y5D01*
X1024Y5D01*
X1023Y5D01*
X1022Y5D01*
X1021Y5D01*
X1020Y5D01*
X1019Y5D01*
X1018Y5D01*
X1017Y5D01*
X1016Y5D01*
X1015Y5D01*
X1014Y5D01*
X1013Y5D01*
X1012Y5D01*
X1011Y5D01*
X1010Y5D01*
X1009Y5D01*
X1008Y5D01*
X1007Y5D01*
X1006Y5D01*
X1005Y5D01*
X1004Y5D01*
X1003Y5D01*
X1002Y5D01*
X1001Y5D01*
X1000Y5D01*
X999Y5D01*
X998Y5D01*
X997Y5D01*
X996Y5D01*
X995Y5D01*
X994Y5D01*
X993Y5D01*
X992Y5D01*
X991Y5D01*
X990Y5D01*
X989Y5D01*
X988Y5D01*
X987Y5D01*
X986Y5D01*
X985Y5D01*
X984Y5D01*
X983Y5D01*
X982Y5D01*
X981Y5D01*
X980Y5D01*
X979Y5D01*
X978Y5D01*
X977Y5D01*
X976Y5D01*
X975Y5D01*
X974Y5D01*
X973Y5D01*
X972Y5D01*
X971Y5D01*
X970Y5D01*
X969Y5D01*
X968Y5D01*
X967Y5D01*
X966Y5D01*
X965Y5D01*
X964Y5D01*
X963Y5D01*
X962Y5D01*
X961Y5D01*
X960Y5D01*
X959Y5D01*
X958Y5D01*
X957Y5D01*
X956Y5D01*
X955Y5D01*
X954Y5D01*
X953Y5D01*
X952Y5D01*
X951Y5D01*
X950Y5D01*
X949Y5D01*
X948Y5D01*
X947Y5D01*
X946Y5D01*
X945Y5D01*
X944Y5D01*
X943Y5D01*
X942Y5D01*
X941Y5D01*
X940Y5D01*
X939Y5D01*
X938Y5D01*
X937Y5D01*
X936Y5D01*
X935Y5D01*
X934Y5D01*
X933Y5D01*
X932Y5D01*
X931Y5D01*
X930Y5D01*
X929Y5D01*
X928Y5D01*
X927Y5D01*
X926Y5D01*
X925Y5D01*
X924Y5D01*
X923Y5D01*
X922Y5D01*
X921Y5D01*
X920Y5D01*
X919Y5D01*
X918Y5D01*
X917Y5D01*
X916Y5D01*
X915Y5D01*
X914Y5D01*
X913Y5D01*
X912Y5D01*
X911Y5D01*
X910Y5D01*
X909Y5D01*
X908Y5D01*
X907Y5D01*
X906Y5D01*
X905Y5D01*
X904Y5D01*
X903Y5D01*
X902Y5D01*
X901Y5D01*
X900Y5D01*
X899Y5D01*
X898Y5D01*
X897Y5D01*
X896Y5D01*
X895Y5D01*
X894Y5D01*
X893Y5D01*
X892Y5D01*
X891Y5D01*
X890Y5D01*
X889Y5D01*
X888Y5D01*
X887Y5D01*
X886Y5D01*
X885Y5D01*
X884Y5D01*
X883Y5D01*
X882Y5D01*
X881Y5D01*
X880Y5D01*
X879Y5D01*
X878Y5D01*
X877Y5D01*
X876Y5D01*
X875Y5D01*
X874Y5D01*
X873Y5D01*
X872Y5D01*
X871Y5D01*
X870Y5D01*
X869Y5D01*
X868Y5D01*
X867Y5D01*
X866Y5D01*
X865Y5D01*
X864Y5D01*
X863Y5D01*
X862Y5D01*
X861Y5D01*
X860Y5D01*
X859Y5D01*
X858Y5D01*
X857Y5D01*
X856Y5D01*
X855Y5D01*
X854Y5D01*
X853Y5D01*
X852Y5D01*
X851Y5D01*
X850Y5D01*
X849Y5D01*
X848Y5D01*
X847Y5D01*
X846Y5D01*
X845Y5D01*
X844Y5D01*
X843Y5D01*
X842Y5D01*
X841Y5D01*
X840Y5D01*
X839Y5D01*
X838Y5D01*
X837Y5D01*
X836Y5D01*
X835Y5D01*
X834Y5D01*
X833Y5D01*
X832Y5D01*
X831Y5D01*
X830Y5D01*
X829Y5D01*
X828Y5D01*
X827Y5D01*
X826Y5D01*
X825Y5D01*
X824Y5D01*
X823Y5D01*
X822Y5D01*
X821Y5D01*
X820Y5D01*
X819Y5D01*
X818Y5D01*
X817Y5D01*
X816Y5D01*
X815Y5D01*
X814Y5D01*
X813Y5D01*
X812Y5D01*
X811Y5D01*
X810Y5D01*
X809Y5D01*
X808Y5D01*
X807Y5D01*
X806Y5D01*
X805Y5D01*
X804Y5D01*
X803Y5D01*
X802Y5D01*
X801Y5D01*
X800Y5D01*
X799Y5D01*
X798Y5D01*
X797Y5D01*
X796Y5D01*
X795Y5D01*
X794Y5D01*
X793Y5D01*
X792Y5D01*
X791Y5D01*
X790Y5D01*
X789Y5D01*
X788Y5D01*
X787Y5D01*
X786Y5D01*
X785Y5D01*
X784Y5D01*
X783Y5D01*
X782Y5D01*
X781Y5D01*
X780Y5D01*
X779Y5D01*
X778Y5D01*
X777Y5D01*
X776Y5D01*
X775Y5D01*
X774Y5D01*
X773Y5D01*
X772Y5D01*
X771Y5D01*
X770Y5D01*
X769Y5D01*
X768Y5D01*
X767Y5D01*
X766Y5D01*
X765Y5D01*
X764Y5D01*
X763Y5D01*
X762Y5D01*
X761Y5D01*
X760Y5D01*
X759Y5D01*
X758Y5D01*
X757Y5D01*
X756Y5D01*
X755Y5D01*
X754Y5D01*
X753Y5D01*
X752Y5D01*
X751Y5D01*
X750Y5D01*
X749Y5D01*
X748Y5D01*
X747Y5D01*
X746Y5D01*
X745Y5D01*
X744Y5D01*
X743Y5D01*
X742Y5D01*
X741Y5D01*
X740Y5D01*
X739Y5D01*
X738Y5D01*
X737Y5D01*
X736Y5D01*
X735Y5D01*
X734Y5D01*
X733Y5D01*
X732Y5D01*
X731Y5D01*
X730Y5D01*
X729Y5D01*
X728Y5D01*
X727Y5D01*
X726Y5D01*
X725Y5D01*
X724Y5D01*
X723Y5D01*
X722Y5D01*
X721Y5D01*
X720Y5D01*
X719Y5D01*
X718Y5D01*
X717Y5D01*
X716Y5D01*
X715Y5D01*
X714Y5D01*
X713Y5D01*
X712Y5D01*
X711Y5D01*
X710Y5D01*
X709Y5D01*
X708Y5D01*
X707Y5D01*
X706Y5D01*
X705Y5D01*
X704Y5D01*
X703Y5D01*
X702Y5D01*
X701Y5D01*
X700Y5D01*
X699Y5D01*
X698Y5D01*
X697Y5D01*
X696Y5D01*
X695Y5D01*
X694Y5D01*
X693Y5D01*
X692Y5D01*
X691Y5D01*
X690Y5D01*
X689Y5D01*
X688Y5D01*
X687Y5D01*
X686Y5D01*
X685Y5D01*
X684Y5D01*
X683Y5D01*
X682Y5D01*
X681Y5D01*
X680Y5D01*
X679Y5D01*
X678Y5D01*
X677Y5D01*
X676Y5D01*
X675Y5D01*
X674Y5D01*
X673Y5D01*
X672Y5D01*
X671Y5D01*
X670Y5D01*
X669Y5D01*
X668Y5D01*
X667Y5D01*
X666Y5D01*
X665Y5D01*
X664Y5D01*
X663Y5D01*
X662Y5D01*
X661Y5D01*
X660Y5D01*
X659Y5D01*
X658Y5D01*
X657Y5D01*
X656Y5D01*
X655Y5D01*
X654Y5D01*
X653Y5D01*
X652Y5D01*
X651Y5D01*
X650Y5D01*
X649Y5D01*
X648Y5D01*
X647Y5D01*
X646Y5D01*
X645Y5D01*
X644Y5D01*
X643Y5D01*
X642Y5D01*
X641Y5D01*
X640Y5D01*
X639Y5D01*
X638Y5D01*
X637Y5D01*
X636Y5D01*
X635Y5D01*
X634Y5D01*
X633Y5D01*
X632Y5D01*
X631Y5D01*
X630Y5D01*
X629Y5D01*
X628Y5D01*
X627Y5D01*
X626Y5D01*
X625Y5D01*
X624Y5D01*
X623Y5D01*
X622Y5D01*
X621Y5D01*
X620Y5D01*
X619Y5D01*
X618Y5D01*
X617Y5D01*
X616Y5D01*
X615Y5D01*
X614Y5D01*
X613Y5D01*
X612Y5D01*
X611Y5D01*
X610Y5D01*
X609Y5D01*
X608Y5D01*
X607Y5D01*
X606Y5D01*
X605Y5D01*
X604Y5D01*
X603Y5D01*
X602Y5D01*
X601Y5D01*
X600Y5D01*
X599Y5D01*
X598Y5D01*
X597Y5D01*
X596Y5D01*
X595Y5D01*
X594Y5D01*
X593Y5D01*
X592Y5D01*
X591Y5D01*
X590Y5D01*
X589Y5D01*
X588Y5D01*
X587Y5D01*
X586Y5D01*
X585Y5D01*
X584Y5D01*
X583Y5D01*
X582Y5D01*
X581Y5D01*
X580Y5D01*
X579Y5D01*
X578Y5D01*
X577Y5D01*
X576Y5D01*
X575Y5D01*
X574Y5D01*
X573Y5D01*
X572Y5D01*
X571Y5D01*
X570Y5D01*
X569Y5D01*
X568Y5D01*
X567Y5D01*
X566Y5D01*
X565Y5D01*
X564Y5D01*
X563Y5D01*
X562Y5D01*
X561Y5D01*
X560Y5D01*
X559Y5D01*
X558Y5D01*
X557Y5D01*
X556Y5D01*
X555Y5D01*
X554Y5D01*
X553Y5D01*
X552Y5D01*
X551Y5D01*
X550Y5D01*
X549Y5D01*
X548Y5D01*
X547Y5D01*
X546Y5D01*
X545Y5D01*
X544Y5D01*
X543Y5D01*
X542Y5D01*
X541Y5D01*
X540Y5D01*
X539Y5D01*
X538Y5D01*
X537Y5D01*
X536Y5D01*
X535Y5D01*
X534Y5D01*
X533Y5D01*
X532Y5D01*
X531Y5D01*
X530Y5D01*
X529Y5D01*
X528Y5D01*
X527Y5D01*
X526Y5D01*
X525Y5D01*
X524Y5D01*
X523Y5D01*
X522Y5D01*
X521Y5D01*
X520Y5D01*
X519Y5D01*
X518Y5D01*
X517Y5D01*
X516Y5D01*
X515Y5D01*
X514Y5D01*
X513Y5D01*
X512Y5D01*
X511Y5D01*
X510Y5D01*
X509Y5D01*
X508Y5D01*
X507Y5D01*
X506Y5D01*
X505Y5D01*
X504Y5D01*
X503Y5D01*
X502Y5D01*
X501Y5D01*
X500Y5D01*
X499Y5D01*
X498Y5D01*
X497Y5D01*
X496Y5D01*
X495Y5D01*
X494Y5D01*
X493Y5D01*
X492Y5D01*
X491Y5D01*
X490Y5D01*
X489Y5D01*
X488Y5D01*
X487Y5D01*
X486Y5D01*
X485Y5D01*
X484Y5D01*
X483Y5D01*
X482Y5D01*
X481Y5D01*
X480Y5D01*
X479Y5D01*
X478Y5D01*
X477Y5D01*
X476Y5D01*
X475Y5D01*
X474Y5D01*
X473Y5D01*
X472Y5D01*
X471Y5D01*
X470Y5D01*
X469Y5D01*
X468Y5D01*
X467Y5D01*
X466Y5D01*
X465Y5D01*
X464Y5D01*
X463Y5D01*
X462Y5D01*
X461Y5D01*
X460Y5D01*
X459Y5D01*
X458Y5D01*
X457Y5D01*
X456Y5D01*
X455Y5D01*
X454Y5D01*
X453Y5D01*
X452Y5D01*
X451Y5D01*
X450Y5D01*
X449Y5D01*
X448Y5D01*
X447Y5D01*
X446Y5D01*
X445Y5D01*
X444Y5D01*
X443Y5D01*
X442Y5D01*
X441Y5D01*
X440Y5D01*
X439Y5D01*
X438Y5D01*
X437Y5D01*
X436Y5D01*
X435Y5D01*
X434Y5D01*
X433Y5D01*
X432Y5D01*
X431Y5D01*
X430Y5D01*
X429Y5D01*
X428Y5D01*
X427Y5D01*
X426Y5D01*
X425Y5D01*
X424Y5D01*
X423Y5D01*
X422Y5D01*
X421Y5D01*
X420Y5D01*
X419Y5D01*
X418Y5D01*
X417Y5D01*
X416Y5D01*
X415Y5D01*
X414Y5D01*
X413Y5D01*
X412Y5D01*
X411Y5D01*
X410Y5D01*
X409Y5D01*
X408Y5D01*
X407Y5D01*
X406Y5D01*
X405Y5D01*
X404Y5D01*
X403Y5D01*
X402Y5D01*
X401Y5D01*
X400Y5D01*
X399Y5D01*
X398Y5D01*
X397Y5D01*
X396Y5D01*
X395Y5D01*
X394Y5D01*
X393Y5D01*
X392Y5D01*
X391Y5D01*
X390Y5D01*
X389Y5D01*
X388Y5D01*
X387Y5D01*
X386Y5D01*
X385Y5D01*
X384Y5D01*
X383Y5D01*
X382Y5D01*
X381Y5D01*
X380Y5D01*
X379Y5D01*
X378Y5D01*
X377Y5D01*
X376Y5D01*
X375Y5D01*
X374Y5D01*
X373Y5D01*
X372Y5D01*
X371Y5D01*
X370Y5D01*
X369Y5D01*
X368Y5D01*
X367Y5D01*
X366Y5D01*
X365Y5D01*
X364Y5D01*
X363Y5D01*
X362Y5D01*
X361Y5D01*
X360Y5D01*
X359Y5D01*
X358Y5D01*
X357Y5D01*
X356Y5D01*
X355Y5D01*
X354Y5D01*
X353Y5D01*
X352Y5D01*
X351Y5D01*
X350Y5D01*
X349Y5D01*
X348Y5D01*
X347Y5D01*
X346Y5D01*
X345Y5D01*
X344Y5D01*
X343Y5D01*
X342Y5D01*
X341Y5D01*
X340Y5D01*
X339Y5D01*
X338Y5D01*
X337Y5D01*
X336Y5D01*
X335Y5D01*
X334Y5D01*
X333Y5D01*
X332Y5D01*
X331Y5D01*
X330Y5D01*
X329Y5D01*
X328Y5D01*
X327Y5D01*
X326Y5D01*
X325Y5D01*
X324Y5D01*
X323Y5D01*
X322Y5D01*
X321Y5D01*
X320Y5D01*
X319Y5D01*
X318Y5D01*
X317Y5D01*
X316Y5D01*
X315Y5D01*
X314Y5D01*
X313Y5D01*
X312Y5D01*
X311Y5D01*
X310Y5D01*
X309Y5D01*
X308Y5D01*
X307Y5D01*
X306Y5D01*
X305Y5D01*
X304Y5D01*
X303Y5D01*
X302Y5D01*
X301Y5D01*
X300Y5D01*
X299Y5D01*
X298Y5D01*
X297Y5D01*
X296Y5D01*
X295Y5D01*
X294Y5D01*
X293Y5D01*
X292Y5D01*
X291Y5D01*
X290Y5D01*
X289Y5D01*
X288Y5D01*
X287Y5D01*
X286Y5D01*
X285Y5D01*
X284Y5D01*
X283Y5D01*
X282Y5D01*
X281Y5D01*
X280Y5D01*
X279Y5D01*
X278Y5D01*
X277Y5D01*
X276Y5D01*
X275Y5D01*
X274Y5D01*
X273Y5D01*
X272Y5D01*
X271Y5D01*
X270Y5D01*
X269Y5D01*
X268Y5D01*
X267Y5D01*
X266Y5D01*
X265Y5D01*
X264Y5D01*
X263Y5D01*
X262Y5D01*
X261Y5D01*
X260Y5D01*
X259Y5D01*
X258Y5D01*
X257Y5D01*
X256Y5D01*
X255Y5D01*
X254Y5D01*
X253Y5D01*
X252Y5D01*
X251Y5D01*
X250Y5D01*
X249Y5D01*
X248Y5D01*
X247Y5D01*
X246Y5D01*
X245Y5D01*
X244Y5D01*
X243Y5D01*
X242Y5D01*
X241Y5D01*
X240Y5D01*
X239Y5D01*
X238Y5D01*
X237Y5D01*
X236Y5D01*
X235Y5D01*
X234Y5D01*
X233Y5D01*
X232Y5D01*
X231Y5D01*
X230Y5D01*
X229Y5D01*
X228Y5D01*
X227Y5D01*
X226Y5D01*
X225Y5D01*
X224Y5D01*
X223Y5D01*
X222Y5D01*
X221Y5D01*
X220Y5D01*
X219Y5D01*
X218Y5D01*
X217Y5D01*
X216Y5D01*
X215Y5D01*
X214Y5D01*
X213Y5D01*
X212Y5D01*
X211Y5D01*
X210Y5D01*
X209Y5D01*
X208Y5D01*
X207Y5D01*
X206Y5D01*
X205Y5D01*
X204Y5D01*
X203Y5D01*
X202Y5D01*
X201Y5D01*
X200Y5D01*
X199Y5D01*
X198Y5D01*
X197Y5D01*
X196Y5D01*
X195Y5D01*
X194Y5D01*
X193Y5D01*
X192Y5D01*
X191Y5D01*
X190Y5D01*
X189Y5D01*
X188Y5D01*
X187Y5D01*
X186Y5D01*
X185Y5D01*
X184Y5D01*
X183Y5D01*
X182Y5D01*
X181Y5D01*
X180Y5D01*
X179Y5D01*
X178Y5D01*
X177Y5D01*
X176Y5D01*
X175Y5D01*
X174Y5D01*
X173Y5D01*
X172Y5D01*
X171Y5D01*
X170Y5D01*
X169Y5D01*
X168Y5D01*
X167Y5D01*
X166Y5D01*
X165Y5D01*
X164Y5D01*
X163Y5D01*
X162Y5D01*
X161Y5D01*
X160Y5D01*
X159Y5D01*
X158Y5D01*
X157Y5D01*
X156Y5D01*
X155Y5D01*
X154Y5D01*
X153Y5D01*
X152Y5D01*
X151Y5D01*
X150Y5D01*
X149Y5D01*
X148Y5D01*
X147Y5D01*
X146Y5D01*
X145Y5D01*
X144Y5D01*
X143Y5D01*
X142Y5D01*
X141Y5D01*
X140Y5D01*
X139Y5D01*
X138Y5D01*
X137Y5D01*
X136Y5D01*
X135Y6D01*
X134Y6D01*
X133Y6D01*
X132Y6D01*
X131Y6D01*
X130Y6D01*
X129Y6D01*
X128Y6D01*
X127Y6D01*
X126Y6D01*
X125Y6D01*
X124Y6D01*
X123Y7D01*
X122Y7D01*
X121Y7D01*
X120Y7D01*
X119Y7D01*
X118Y8D01*
X117Y8D01*
X116Y8D01*
X115Y8D01*
X114Y8D01*
X113Y9D01*
X112Y9D01*
X111Y9D01*
X110Y9D01*
X109Y10D01*
X108Y10D01*
X107Y10D01*
X106Y11D01*
X105Y11D01*
X104Y11D01*
X103Y12D01*
X102Y12D01*
X101Y12D01*
X100Y13D01*
X99Y13D01*
X98Y14D01*
X97Y14D01*
X96Y15D01*
X95Y15D01*
X94Y15D01*
X93Y16D01*
X92Y16D01*
X91Y17D01*
X90Y17D01*
X89Y18D01*
X88Y18D01*
X87Y19D01*
X86Y20D01*
X85Y20D01*
X84Y21D01*
X83Y21D01*
X82Y22D01*
X81Y23D01*
X80Y23D01*
X79Y24D01*
X78Y25D01*
X77Y25D01*
X76Y26D01*
X75Y27D01*
X74Y27D01*
X73Y28D01*
X72Y29D01*
X71Y30D01*
X70Y30D01*
X69Y31D01*
X68Y32D01*
X67Y33D01*
X66Y34D01*
X65Y35D01*
X64Y36D01*
X63Y37D01*
X62Y37D01*
X61Y38D01*
X60Y39D01*
X59Y40D01*
X58Y41D01*
X58Y42D01*
X57Y43D01*
X56Y44D01*
X55Y45D01*
X54Y46D01*
X53Y47D01*
X52Y48D01*
X51Y49D01*
X51Y50D01*
X50Y51D01*
X49Y52D01*
X48Y53D01*
X48Y54D01*
X47Y55D01*
X46Y56D01*
X45Y57D01*
X45Y58D01*
X44Y59D01*
X43Y60D01*
X43Y61D01*
X42Y62D01*
X42Y63D01*
X41Y64D01*
X40Y65D01*
X40Y66D01*
X39Y67D01*
X39Y68D01*
X38Y69D01*
X37Y70D01*
X37Y71D01*
X36Y72D01*
X36Y73D01*
X35Y74D01*
X35Y75D01*
X34Y76D01*
X34Y77D01*
X33Y78D01*
X33Y79D01*
X32Y80D01*
X32Y82D01*
X31Y83D01*
X31Y84D01*
X30Y85D01*
X30Y87D01*
X29Y88D01*
X29Y89D01*
X28Y90D01*
X28Y92D01*
X27Y93D01*
X27Y95D01*
X26Y96D01*
X26Y98D01*
X25Y99D01*
X25Y102D01*
X24Y103D01*
X24Y106D01*
X23Y107D01*
X23Y110D01*
X22Y111D01*
X22Y115D01*
X21Y116D01*
X21Y121D01*
X20Y122D01*
X20Y130D01*
X19Y131D01*
X19Y2412D01*
X20Y2413D01*
X20Y2420D01*
X21Y2421D01*
X21Y2427D01*
X22Y2428D01*
X22Y2432D01*
X23Y2433D01*
X23Y2436D01*
X24Y2437D01*
X24Y2440D01*
X25Y2441D01*
X25Y2443D01*
X26Y2444D01*
X26Y2447D01*
X27Y2448D01*
X27Y2450D01*
X28Y2451D01*
X28Y2453D01*
X29Y2454D01*
X29Y2455D01*
X30Y2456D01*
X30Y2458D01*
X31Y2459D01*
X31Y2460D01*
X32Y2461D01*
X32Y2462D01*
X33Y2463D01*
X33Y2464D01*
X34Y2465D01*
X34Y2467D01*
X35Y2468D01*
X35Y2469D01*
X36Y2470D01*
X36Y2471D01*
X37Y2472D01*
X38Y2473D01*
X38Y2474D01*
X39Y2475D01*
X39Y2476D01*
X40Y2477D01*
X40Y2478D01*
X41Y2479D01*
X42Y2480D01*
X42Y2481D01*
X43Y2482D01*
X44Y2483D01*
X44Y2484D01*
X45Y2485D01*
X46Y2486D01*
X46Y2487D01*
X47Y2488D01*
X48Y2489D01*
X49Y2490D01*
X49Y2491D01*
X50Y2492D01*
X51Y2493D01*
X52Y2494D01*
X53Y2495D01*
X53Y2496D01*
X54Y2497D01*
X55Y2498D01*
X56Y2499D01*
X57Y2500D01*
X58Y2501D01*
X59Y2502D01*
X60Y2503D01*
X61Y2504D01*
X62Y2505D01*
X63Y2506D01*
X64Y2507D01*
X65Y2508D01*
X66Y2509D01*
X67Y2510D01*
X68Y2511D01*
X69Y2511D01*
X70Y2512D01*
X71Y2513D01*
X72Y2514D01*
X73Y2515D01*
X74Y2515D01*
X75Y2516D01*
X76Y2517D01*
X77Y2518D01*
X78Y2518D01*
X79Y2519D01*
X80Y2520D01*
X81Y2520D01*
X82Y2521D01*
X83Y2521D01*
X84Y2522D01*
X85Y2523D01*
X86Y2523D01*
X87Y2524D01*
X88Y2524D01*
X89Y2525D01*
X90Y2525D01*
X91Y2526D01*
X92Y2526D01*
X93Y2527D01*
X94Y2527D01*
X95Y2528D01*
X96Y2528D01*
X97Y2529D01*
X98Y2529D01*
X99Y2529D01*
X100Y2530D01*
X101Y2530D01*
X102Y2531D01*
X103Y2531D01*
X104Y2531D01*
X105Y2532D01*
X106Y2532D01*
X107Y2532D01*
X108Y2533D01*
X109Y2533D01*
X110Y2533D01*
X111Y2534D01*
X112Y2534D01*
X113Y2534D01*
X114Y2534D01*
X115Y2535D01*
X116Y2535D01*
X117Y2535D01*
X118Y2535D01*
X119Y2535D01*
X120Y2536D01*
X121Y2536D01*
X122Y2536D01*
X123Y2536D01*
X124Y2536D01*
X125Y2536D01*
X126Y2536D01*
X127Y2537D01*
D02*
G04 End of contour*
M02*