; NON-PLATED HOLES START AT T1
; THROUGH (PLATED) HOLES START AT T100
M48
INCH
T1C0.070866
T100C0.039370
T101C0.038000
%
T1
X003248Y006004
X006792Y006004
X029950Y005999
X033494Y005999
T100
X019642Y022269
X021642Y022269
X020642Y022269
X017642Y022269
X029519Y012365
X018642Y022269
X029519Y011365
X029519Y013365
T101
X030738Y003538
X006004Y008464
X006004Y003543
X004036Y008464
X032706Y003538
X032706Y008460
X004036Y003543
X030738Y008460
T00
M30
